<?xml version="1.0" encoding="UTF-8" standalone="no"?>
<!-- Created with Inkscape (http://www.inkscape.org/) -->

<svg
   width="210mm"
   height="297mm"
   viewBox="0 0 210.00001 297"
   version="1.1"
   id="svg5"
   inkscape:version="1.3.2 (091e20ef0f, 2023-11-25, custom)"
   sodipodi:docname="cover_general_preface.svg"
   xml:space="preserve"
   xmlns:inkscape="http://www.inkscape.org/namespaces/inkscape"
   xmlns:sodipodi="http://sodipodi.sourceforge.net/DTD/sodipodi-0.dtd"
   xmlns="http://www.w3.org/2000/svg"
   xmlns:svg="http://www.w3.org/2000/svg"><sodipodi:namedview
     id="namedview7"
     pagecolor="#ffffff"
     bordercolor="#000000"
     borderopacity="1"
     inkscape:showpageshadow="0"
     inkscape:pageopacity="1"
     inkscape:pagecheckerboard="0"
     inkscape:deskcolor="#ffffff"
     inkscape:document-units="mm"
     showgrid="false"
     inkscape:zoom="0.76620055"
     inkscape:cx="182.06722"
     inkscape:cy="1010.1794"
     inkscape:window-width="1920"
     inkscape:window-height="1017"
     inkscape:window-x="0"
     inkscape:window-y="0"
     inkscape:window-maximized="1"
     inkscape:current-layer="layer3"
     showguides="true"><inkscape:grid
       type="xygrid"
       id="grid132"
       originx="0"
       originy="17.455399"
       spacingy="1"
       spacingx="1"
       units="mm"
       visible="false" /></sodipodi:namedview><defs
     id="defs2"><clipPath
       clipPathUnits="userSpaceOnUse"
       id="clipPath12"><path
         d="M 0,0 H 27.566244 V 31.50001 H 0 Z"
         transform="matrix(0.99999998,0,0,-0.99999998,-8.3502838,0.096022)"
         id="path12-3" /></clipPath><clipPath
       clipPathUnits="userSpaceOnUse"
       id="clipPath13"><path
         d="M 0,0 H 27.566244 V 31.50001 H 0 Z"
         transform="matrix(0.99999998,0,0,-0.99999998,-9.7235758,9.0960218)"
         id="path13-6" /></clipPath><clipPath
       clipPathUnits="userSpaceOnUse"
       id="clipPath14"><path
         d="M 0,0 H 27.566244 V 31.50001 H 0 Z"
         transform="matrix(0.99999998,0,0,-0.99999998,0,31.500009)"
         id="path14-7" /></clipPath><clipPath
       clipPathUnits="userSpaceOnUse"
       id="clipPath15"><path
         d="M 0,0 H 27.566244 V 31.50001 H 0 Z"
         transform="matrix(0.99999998,0,0,-0.99999998,0,31.500009)"
         id="path15-5" /></clipPath><clipPath
       clipPathUnits="userSpaceOnUse"
       id="clipPath16"><path
         d="M 0,0 H 27.566244 V 31.50001 H 0 Z"
         transform="matrix(0.99999998,0,0,-0.99999998,0,31.500009)"
         id="path16-3" /></clipPath><clipPath
       clipPathUnits="userSpaceOnUse"
       id="clipPath17"><path
         d="M 0,0 H 27.566244 V 31.50001 H 0 Z"
         transform="matrix(0.99999998,0,0,-0.99999998,0,31.500009)"
         id="path17-5" /></clipPath><clipPath
       clipPathUnits="userSpaceOnUse"
       id="clipPath18"><path
         d="M 0,0 H 27.566244 V 31.50001 H 0 Z"
         transform="matrix(0.99999998,0,0,-0.99999998,0,31.500009)"
         id="path18-6" /></clipPath><clipPath
       clipPathUnits="userSpaceOnUse"
       id="clipPath19"><path
         d="M 0,0 H 27.566244 V 31.50001 H 0 Z"
         transform="matrix(0.99999998,0,0,-0.99999998,0,31.500009)"
         id="path19-2" /></clipPath><clipPath
       clipPathUnits="userSpaceOnUse"
       id="clipPath20"><path
         d="M 0,0 H 27.566244 V 31.50001 H 0 Z"
         transform="matrix(0.99999998,0,0,-0.99999998,0,31.500009)"
         id="path20-9" /></clipPath><clipPath
       clipPathUnits="userSpaceOnUse"
       id="clipPath21"><path
         d="M 0,0 H 27.566244 V 31.50001 H 0 Z"
         transform="matrix(0.99999998,0,0,-0.99999998,-9.7235758,18.096004)"
         id="path21-1" /></clipPath><clipPath
       clipPathUnits="userSpaceOnUse"
       id="clipPath9"><path
         d="M 0,0 H 27.566244 V 31.50001 H 0 Z"
         transform="matrix(0.99999998,0,0,-0.99999998,-8.3502838,0.096022)"
         id="path9" /></clipPath><clipPath
       clipPathUnits="userSpaceOnUse"
       id="clipPath10"><path
         d="M 0,0 H 27.566244 V 31.50001 H 0 Z"
         transform="matrix(0.99999998,0,0,-0.99999998,-9.7235758,9.0960218)"
         id="path10" /></clipPath><clipPath
       clipPathUnits="userSpaceOnUse"
       id="clipPath11"><path
         d="M 0,0 H 27.566244 V 31.50001 H 0 Z"
         transform="matrix(0.99999998,0,0,-0.99999998,0,31.500009)"
         id="path11" /></clipPath><clipPath
       clipPathUnits="userSpaceOnUse"
       id="clipPath12-2"><path
         d="M 0,0 H 27.566244 V 31.50001 H 0 Z"
         transform="matrix(0.99999998,0,0,-0.99999998,0,31.500009)"
         id="path12" /></clipPath><clipPath
       clipPathUnits="userSpaceOnUse"
       id="clipPath13-8"><path
         d="M 0,0 H 27.566244 V 31.50001 H 0 Z"
         transform="matrix(0.99999998,0,0,-0.99999998,0,31.500009)"
         id="path13" /></clipPath><clipPath
       clipPathUnits="userSpaceOnUse"
       id="clipPath14-9"><path
         d="M 0,0 H 27.566244 V 31.50001 H 0 Z"
         transform="matrix(0.99999998,0,0,-0.99999998,0,31.500009)"
         id="path14" /></clipPath><clipPath
       clipPathUnits="userSpaceOnUse"
       id="clipPath15-7"><path
         d="M 0,0 H 27.566244 V 31.50001 H 0 Z"
         transform="matrix(0.99999998,0,0,-0.99999998,0,31.500009)"
         id="path15" /></clipPath><clipPath
       clipPathUnits="userSpaceOnUse"
       id="clipPath16-3"><path
         d="M 0,0 H 27.566244 V 31.50001 H 0 Z"
         transform="matrix(0.99999998,0,0,-0.99999998,0,31.500009)"
         id="path16" /></clipPath><clipPath
       clipPathUnits="userSpaceOnUse"
       id="clipPath17-6"><path
         d="M 0,0 H 27.566244 V 31.50001 H 0 Z"
         transform="matrix(0.99999998,0,0,-0.99999998,0,31.500009)"
         id="path17" /></clipPath><clipPath
       clipPathUnits="userSpaceOnUse"
       id="clipPath18-1"><path
         d="M 0,0 H 27.566244 V 31.50001 H 0 Z"
         transform="matrix(0.99999998,0,0,-0.99999998,-9.7235758,18.096004)"
         id="path18" /></clipPath></defs><g
     inkscape:groupmode="layer"
     id="layer3"
     inkscape:label="Cover"
     style="display:inline"
     transform="translate(0,-6.2799988)"><rect
       style="font-variation-settings:normal;opacity:1;vector-effect:none;fill:#0088aa;fill-opacity:1;fill-rule:evenodd;stroke:none;stroke-width:2.43108;stroke-linecap:butt;stroke-linejoin:miter;stroke-miterlimit:4;stroke-dasharray:none;stroke-dashoffset:0;stroke-opacity:1;-inkscape-stroke:none;stop-color:#000000;stop-opacity:1"
       id="rect1"
       width="212"
       height="299"
       x="-1"
       y="5.2799902" /><text
       xml:space="preserve"
       style="font-size:4.9389px;line-height:1.25;font-family:Arial;-inkscape-font-specification:Arial;letter-spacing:0.0529167px;display:inline;fill:#ffffff;stroke-width:0.264583"
       x="22.87627"
       y="117.56102"
       id="text2"><tspan
         sodipodi:role="line"
         id="tspan2"
         style="font-style:normal;font-variant:normal;font-weight:500;font-stretch:normal;font-family:'Source Sans 3';-inkscape-font-specification:'Source Sans 3 Medium';letter-spacing:0.0529167px;fill:#ffffff;stroke-width:0.264583"
         x="22.87627"
         y="117.56102">Gregor Joseph</tspan></text><text
       xml:space="preserve"
       style="font-style:normal;font-variant:normal;font-weight:600;font-stretch:normal;font-size:4.9389px;line-height:1.25;font-family:'Source Sans 3';-inkscape-font-specification:'Source Sans 3 Semi-Bold';letter-spacing:0.0529167px;display:inline;fill:#ffffff;stroke-width:0.264583"
       x="22.87627"
       y="123.82612"
       id="text2-3"><tspan
         sodipodi:role="line"
         id="tspan2-1"
         style="font-style:normal;font-variant:normal;font-weight:bold;font-stretch:normal;font-family:'Source Sans 3';-inkscape-font-specification:'Source Sans 3 Bold';letter-spacing:0.0529167px;fill:#ffffff;stroke-width:0.264583"
         x="22.87627"
         y="123.82612">Werner</tspan></text><g
       id="g5"
       transform="matrix(1.75,0,0,1.75,-632.6027,205.40238)"><text
         xml:space="preserve"
         style="font-style:normal;font-variant:normal;font-weight:normal;font-stretch:normal;font-size:2.82222px;line-height:1.25;font-family:'Source Sans Pro';-inkscape-font-specification:'Source Sans Pro';fill:#ffffff;fill-opacity:1;stroke-width:0.264583"
         x="454.85413"
         y="33.039047"
         id="text10198"><tspan
           sodipodi:role="line"
           id="tspan10196"
           style="font-style:normal;font-variant:normal;font-weight:normal;font-stretch:normal;font-size:2.82222px;font-family:'Source Sans Pro';-inkscape-font-specification:'Source Sans Pro';fill:#ffffff;fill-opacity:1;stroke-width:0.264583"
           x="454.85413"
           y="33.039047">dition</tspan></text><text
         xml:space="preserve"
         style="font-style:normal;font-variant:normal;font-weight:normal;font-stretch:normal;font-size:2.82222px;line-height:1.25;font-family:'Source Sans Pro';-inkscape-font-specification:'Source Sans Pro';fill:#ffffff;stroke-width:0.264583"
         x="455.33859"
         y="29.864048"
         id="text10206"><tspan
           sodipodi:role="line"
           id="tspan10204"
           style="font-style:normal;font-variant:normal;font-weight:normal;font-stretch:normal;font-size:2.82222px;font-family:'Source Sans Pro';-inkscape-font-specification:'Source Sans Pro';fill:#ffffff;stroke-width:0.264583"
           x="455.33859"
           y="29.864048">kala</tspan></text><g
         id="g10222"
         transform="translate(253.04442,-43.584522)"><path
           id="path10208"
           style="fill:none;fill-rule:evenodd;stroke:#ffffff;stroke-width:0.529167;stroke-miterlimit:4;stroke-dasharray:none;stroke-opacity:1;stop-color:#000000"
           d="m 201.52667,74.276192 h -1.33142 c -0.58916,0 -1.06675,0.473824 -1.06675,1.058333 0,0.584501 0.47761,1.058334 1.06677,1.058334 h 1.3314"
           sodipodi:nodetypes="cscsc" /><path
           id="path10210"
           style="fill:none;fill-rule:evenodd;stroke:#ffffff;stroke-width:0.529167;stroke-miterlimit:4;stroke-dasharray:none;stroke-opacity:1;stop-color:#000000"
           d="m 200.72442,72.159525 h -0.52917 c -0.58916,0 -1.06675,0.473824 -1.06675,1.058333 0,0.584501 0.47761,1.058334 1.06677,1.058334 h 0.52915"
           sodipodi:nodetypes="cscsc" /><path
           id="path10212"
           style="fill:none;fill-rule:evenodd;stroke:#ffffff;stroke-width:0.529167;stroke-miterlimit:4;stroke-dasharray:none;stroke-opacity:1;stop-color:#000000"
           d="m 200.19527,67.92619 h 0.52917 c 0.58916,0 1.06675,0.473824 1.06675,1.058333 0,0.584501 -0.47761,1.058334 -1.06677,1.058334 h -0.52915"
           sodipodi:nodetypes="cscsc" /><path
           id="path10214"
           style="fill:none;fill-rule:evenodd;stroke:#ffffff;stroke-width:0.529167;stroke-miterlimit:4;stroke-dasharray:none;stroke-opacity:1;stop-color:#000000"
           d="m 199.39307,65.809523 h 1.33137 c 0.58916,0 1.06675,0.473824 1.06675,1.058333 0,0.584501 -0.47761,1.058334 -1.06677,1.058334 h -1.33135"
           sodipodi:nodetypes="cscsc" /><path
           id="path10216"
           style="fill:none;fill-rule:evenodd;stroke:#ffffff;stroke-width:0.529167;stroke-miterlimit:4;stroke-dasharray:none;stroke-opacity:1;stop-color:#000000"
           d="m 200.72444,68.984523 h -0.52915 c -0.58916,0 -1.06677,0.473833 -1.06677,1.058334 0,0.584509 0.47759,1.058333 1.06675,1.058333 h 0.52917 c 0.58916,0 1.06675,0.473824 1.06675,1.058333 0,0.584501 -0.47761,1.058334 -1.06677,1.058334 h -0.52915"
           sodipodi:nodetypes="cssccssc" /><rect
           style="font-variation-settings:normal;vector-effect:none;fill:#ffffff;fill-opacity:1;fill-rule:evenodd;stroke:none;stroke-width:0.264583;stroke-linecap:butt;stroke-linejoin:miter;stroke-miterlimit:4;stroke-dasharray:none;stroke-dashoffset:0;stroke-opacity:1;stop-color:#000000"
           id="rect10218"
           width="1.3313692"
           height="0.52916664"
           x="199.39307"
           y="66.603271" /><rect
           style="font-variation-settings:normal;vector-effect:none;fill:#ffffff;fill-opacity:1;fill-rule:evenodd;stroke:none;stroke-width:0.264583;stroke-linecap:butt;stroke-linejoin:miter;stroke-miterlimit:4;stroke-dasharray:none;stroke-dashoffset:0;stroke-opacity:1;stop-color:#000000"
           id="rect10220"
           width="1.3313692"
           height="0.52916664"
           x="200.19527"
           y="75.069939" /></g><text
         xml:space="preserve"
         style="font-style:normal;font-variant:normal;font-weight:normal;font-stretch:normal;font-size:2.82222px;line-height:1.25;font-family:'Source Sans Pro';-inkscape-font-specification:'Source Sans Pro';fill:#ffffff;stroke-width:0.264583"
         x="455.33859"
         y="26.689053"
         id="text10306"><tspan
           sodipodi:role="line"
           id="tspan10304"
           style="font-style:normal;font-variant:normal;font-weight:normal;font-stretch:normal;font-size:2.82222px;font-family:'Source Sans Pro';-inkscape-font-specification:'Source Sans Pro';fill:#ffffff;stroke-width:0.264583"
           x="455.33859"
           y="26.689053">sser</tspan></text></g><text
       xml:space="preserve"
       style="font-style:normal;font-variant:normal;font-weight:600;font-stretch:normal;font-size:4.9389px;line-height:1.25;font-family:'Source Sans 3';-inkscape-font-specification:'Source Sans 3 Semi-Bold';fill:#ffffff;stroke-width:0.264583"
       x="77.218666"
       y="58.929844"
       id="text1-6"><tspan
         sodipodi:role="line"
         id="tspan1-7"
         x="77.218666"
         y="58.929844"
         style="font-style:normal;font-variant:normal;font-weight:500;font-stretch:normal;font-family:'Source Sans 3';-inkscape-font-specification:'Source Sans 3 Medium';fill:#ffffff;stroke-width:0.264583">C O L L E C T E D   W O R K S </tspan></text><text
       xml:space="preserve"
       style="font-size:4.9389px;line-height:1.25;font-family:Arial;-inkscape-font-specification:Arial;letter-spacing:0.0396875px;display:inline;fill:#ffffff;stroke-width:0.264583"
       x="22.87653"
       y="177.68388"
       id="text6"><tspan
         sodipodi:role="line"
         style="font-style:normal;font-variant:normal;font-weight:500;font-stretch:normal;font-family:'Source Sans 3';-inkscape-font-specification:'Source Sans 3 Medium';letter-spacing:0.0396875px;fill:#ffffff;stroke-width:0.264583"
         x="22.87653"
         y="177.68388"
         id="tspan19"><tspan
           style="font-style:normal;font-variant:normal;font-weight:bold;font-stretch:normal;font-family:'Source Sans 3';-inkscape-font-specification:'Source Sans 3 Bold'"
           id="tspan23">General preface</tspan></tspan></text><text
       xml:space="preserve"
       style="font-size:4.9389px;line-height:1.25;font-family:Arial;-inkscape-font-specification:Arial;letter-spacing:0.0396875px;display:inline;fill:#ffffff;stroke-width:0.264583"
       x="22.87653"
       y="158.84563"
       id="text72"><tspan
         sodipodi:role="line"
         style="font-style:normal;font-variant:normal;font-weight:500;font-stretch:normal;font-family:'Source Sans 3';-inkscape-font-specification:'Source Sans 3 Medium';letter-spacing:0.0396875px;fill:#ffffff;stroke-width:0.264583"
         x="22.87653"
         y="158.84563"
         id="tspan72">Collected works</tspan></text><path
       style="fill:#ffffff;stroke-width:1.41183"
       d="m 70.447468,58.978211 c -0.01758,0 0.01808,-0.06319 0.0791,-0.140346 0.06893,-0.08716 0.158909,-0.130503 0.237691,-0.11431 0.114627,0.02334 0.106969,0.03683 -0.0791,0.140347 -0.113246,0.06287 -0.220152,0.114309 -0.237691,0.114309 z m -3.678087,-1.439788 c -0.0452,0.01588 -0.110986,-0.0079 -0.146165,-0.05207 -0.03515,-0.04445 -0.0639,-0.174877 -0.0639,-0.289789 0,-0.114945 0.03314,-0.266166 0.07345,-0.336085 0.05173,-0.08954 0.05775,-0.158985 0.02034,-0.234795 -0.03917,-0.07922 -0.01733,-0.195516 0.08261,-0.440185 0.0747,-0.182895 0.232882,-0.468636 0.351615,-0.634988 0.11877,-0.166335 0.215896,-0.357184 0.215946,-0.424087 3.8e-5,-0.06684 0.08563,-0.263498 0.190221,-0.436867 0.104583,-0.173353 0.236122,-0.33691 0.292318,-0.36344 0.05625,-0.02651 0.102197,-0.105101 0.102197,-0.174416 0,-0.06938 0.04369,-0.176227 0.09718,-0.237398 0.05348,-0.06112 0.119273,-0.111293 0.146153,-0.111452 0.02699,-1.11e-4 0.09429,-0.08335 0.149806,-0.184831 0.05549,-0.101609 0.216524,-0.305619 0.357931,-0.453474 0.141407,-0.147809 0.287371,-0.299078 0.324358,-0.336054 0.03704,-0.03699 0.160302,-0.155111 0.274013,-0.262625 0.113748,-0.107482 0.317001,-0.328226 0.451766,-0.490545 0.134766,-0.162319 0.343643,-0.35566 0.464171,-0.42966 0.120528,-0.07398 0.274427,-0.208963 0.342011,-0.299918 0.06755,-0.09097 0.214113,-0.196453 0.325639,-0.234429 0.111488,-0.03795 0.202776,-0.09812 0.202776,-0.133679 0,-0.03556 0.0457,-0.122406 0.10157,-0.193039 0.05587,-0.07065 0.193384,-0.183054 0.305613,-0.249845 0.112242,-0.06684 0.304785,-0.218029 0.427887,-0.336133 0.123165,-0.118119 0.296926,-0.235016 0.386242,-0.259831 0.08927,-0.02477 0.247823,-0.147014 0.352243,-0.2715 0.104458,-0.12447 0.27739,-0.260053 0.384422,-0.301189 0.107094,-0.04112 0.290271,-0.122247 0.407196,-0.180402 0.116887,-0.05811 0.287961,-0.146855 0.380077,-0.197294 0.09215,-0.05049 0.18928,-0.09161 0.215909,-0.09161 0.02662,0 0.154564,-0.06493 0.284283,-0.144316 0.12973,-0.07938 0.343504,-0.159636 0.475043,-0.178306 0.131551,-0.01857 0.328866,-0.10526 0.438483,-0.192516 0.121909,-0.097 0.199311,-0.210741 0.199311,-0.292758 0,-0.07382 0.07169,-0.259419 0.159448,-0.412498 0.0877,-0.153047 0.15945,-0.345721 0.15945,-0.428056 0,-0.0824 0.03587,-0.187356 0.07972,-0.233381 0.04385,-0.04604 0.07972,-0.136695 0.07972,-0.201629 0,-0.06493 -0.03782,-0.157651 -0.08404,-0.206153 -0.06591,-0.06922 -0.105888,-0.07097 -0.185304,-0.0079 -0.05574,0.04398 -0.113497,0.08002 -0.12855,0.08002 -0.01507,0 -0.02725,-0.02762 -0.02725,-0.06144 0,-0.03382 0.08437,-0.171226 0.187367,-0.305412 0.136532,-0.177782 0.196152,-0.325067 0.219762,-0.542889 0.03134,-0.289139 0.02667,-0.301967 -0.143126,-0.392239 -0.175528,-0.09335 -0.175528,-0.09335 -0.03034,-0.189515 0.07985,-0.05287 0.174577,-0.16994 0.210513,-0.260086 0.05249,-0.131614 0.101469,-0.16108 0.249074,-0.149554 0.101055,0.0079 0.26298,0.01635 0.359837,0.01873 0.112367,0.0032 0.262411,-0.06938 0.414574,-0.1992 0.131157,-0.111927 0.258257,-0.203518 0.282444,-0.203518 0.02419,0 0.07606,0.0489 0.115268,0.108594 0.03921,0.05969 0.10157,0.218521 0.138581,0.35285 0.03701,0.134314 0.06766,0.293696 0.0681,0.354168 4.41e-4,0.06049 -0.02978,0.184451 -0.06714,0.275549 -0.03738,0.09113 -0.108588,0.216997 -0.158265,0.279819 -0.04967,0.06287 -0.120741,0.167558 -0.157938,0.232778 -0.03719,0.06525 -0.16329,0.165574 -0.280219,0.22303 -0.119297,0.05858 -0.264513,0.200152 -0.33089,0.322495 -0.06506,0.119866 -0.132268,0.328083 -0.149351,0.462571 -0.01707,0.134472 -0.0655,0.324797 -0.107596,0.422912 -0.0421,0.09811 -0.07653,0.210361 -0.07653,0.249416 0,0.03906 0.04847,0.128122 0.107709,0.19793 0.06564,0.07732 0.09455,0.170225 0.07404,0.237842 -0.01852,0.06097 -0.05503,0.110976 -0.08113,0.110976 -0.0261,0 -0.04746,0.04191 -0.04746,0.09319 0,0.05128 -0.08134,0.141934 -0.180768,0.201629 -0.09942,0.05969 -0.225646,0.108435 -0.280496,0.108435 -0.05485,0 -0.158858,0.05128 -0.231137,0.113833 -0.07232,0.06255 -0.173272,0.173099 -0.224434,0.24551 -0.0511,0.0724 -0.09303,0.152571 -0.09303,0.178275 0,0.02556 -0.08487,0.157175 -0.188576,0.292155 -0.103704,0.135107 -0.21105,0.245543 -0.238507,0.245543 -0.0275,0 -0.110233,0.120818 -0.183919,0.26842 -0.0737,0.147649 -0.242236,0.412259 -0.374528,0.588089 -0.132292,0.175814 -0.353323,0.462682 -0.491176,0.63748 -0.137854,0.174798 -0.276775,0.318462 -0.308715,0.31924 -0.03189,7.94e-4 -0.151527,0.164589 -0.265752,0.363995 -0.11425,0.199422 -0.267472,0.408894 -0.340554,0.465509 -0.07307,0.05668 -0.225563,0.211043 -0.33886,0.343149 -0.113246,0.132091 -0.237779,0.240177 -0.276624,0.240177 -0.0388,0 -0.132957,0.07875 -0.209141,0.175163 -0.07621,0.09637 -0.152857,0.157016 -0.170397,0.134789 -0.01758,-0.02223 0.0113,-0.100179 0.0634,-0.173432 0.05236,-0.07319 0.139951,-0.150984 0.194565,-0.172956 0.05461,-0.02191 0.09931,-0.06827 0.09931,-0.103196 0,-0.03477 0.06579,-0.157969 0.146165,-0.273675 0.08035,-0.115738 0.176059,-0.249401 0.212594,-0.297061 0.03653,-0.04763 0.06642,-0.114309 0.06642,-0.148285 0,-0.03382 0.14948,-0.201168 0.33218,-0.371774 0.182701,-0.170591 0.392608,-0.394542 0.466443,-0.497674 0.07382,-0.103196 0.17572,-0.270055 0.226392,-0.370933 0.05072,-0.100815 0.163655,-0.230206 0.251075,-0.287377 0.08738,-0.05715 0.158946,-0.143204 0.158946,-0.191309 0,-0.0481 0.05537,-0.153206 0.123039,-0.233508 0.06767,-0.08033 0.151363,-0.146062 0.186015,-0.146062 0.03465,0 0.06303,-0.02588 0.06303,-0.05747 0,-0.03159 0.0629,-0.143363 0.139901,-0.248289 0.07696,-0.104942 0.173372,-0.292187 0.214288,-0.416022 0.04093,-0.123835 0.06026,-0.254068 0.04294,-0.289408 -0.01732,-0.03525 -0.06466,-0.0643 -0.10521,-0.0643 -0.04055,0 -0.187735,0.07668 -0.327008,0.170273 -0.139273,0.09367 -0.270008,0.204581 -0.29051,0.246527 -0.02047,0.04191 -0.15297,0.09954 -0.294365,0.128121 -0.141394,0.02842 -0.326944,0.07319 -0.412343,0.09954 -0.08537,0.02636 -0.256273,0.133996 -0.379751,0.239383 -0.123416,0.105418 -0.256913,0.192436 -0.296512,0.193468 -0.03967,10e-4 -0.165977,0.09177 -0.280805,0.201629 -0.114878,0.109864 -0.24039,0.199755 -0.279035,0.199755 -0.03867,0 -0.07031,0.02826 -0.07031,0.06271 0,0.03445 -0.05286,0.08383 -0.117514,0.109864 -0.06466,0.02604 -0.16206,0.118755 -0.216449,0.206153 -0.05436,0.08748 -0.122034,0.15897 -0.150409,0.15897 -0.02837,0 -0.102825,0.06049 -0.165612,0.134472 -0.06278,0.07398 -0.144622,0.134472 -0.181935,0.134472 -0.03729,0 -0.09203,0.05715 -0.121658,0.127169 -0.02963,0.06985 -0.191878,0.228682 -0.36063,0.352802 -0.168751,0.124153 -0.330736,0.238113 -0.359977,0.253338 -0.02925,0.01588 -0.178707,0.144792 -0.33218,0.287805 -0.153472,0.143045 -0.279035,0.282899 -0.279035,0.31073 0,0.02778 -0.06579,0.100974 -0.146165,0.162653 -0.08035,0.0616 -0.220905,0.196691 -0.312255,0.300141 -0.0914,0.103513 -0.175067,0.222522 -0.186028,0.264626 -0.0113,0.04207 -0.123792,0.185768 -0.250836,0.31924 -0.126994,0.133519 -0.253975,0.2427 -0.282148,0.2427 -0.02812,0 -0.1541,0.12193 -0.279801,0.270881 -0.125701,0.14892 -0.273787,0.383381 -0.329067,0.520869 -0.05524,0.137489 -0.166278,0.338911 -0.246668,0.447584 -0.08035,0.108594 -0.146165,0.262181 -0.146165,0.341134 0,0.0789 0.06102,0.216012 0.135556,0.304586 0.11739,0.139552 0.130849,0.197231 0.100315,0.431771 -0.01946,0.148919 -0.05989,0.30927 -0.09002,0.356375 -0.03013,0.04715 -0.04093,0.103037 -0.0241,0.124311 0.01682,0.02127 0.128325,0.01778 0.247798,-0.0079 0.119523,-0.02556 0.250937,-0.08907 0.292117,-0.14114 0.04118,-0.05207 0.09215,-0.09462 0.113121,-0.09462 0.02109,0 0.119523,-0.105736 0.218708,-0.234905 0.122411,-0.159319 0.248074,-0.248575 0.390699,-0.277422 0.115631,-0.02334 0.210283,-0.01588 0.210283,0.01826 0,0.0335 -0.06943,0.150665 -0.154213,0.260624 -0.08487,0.109864 -0.187973,0.233509 -0.229229,0.274723 -0.04131,0.04112 -0.125751,0.109229 -0.18776,0.151143 -0.06202,0.04191 -0.15764,0.07636 -0.212518,0.07636 -0.05487,0 -0.150321,0.05954 -0.212105,0.132408 -0.06177,0.07271 -0.191865,0.193643 -0.289053,0.268579 -0.09718,0.07494 -0.212958,0.136377 -0.25724,0.136536 -0.04432,1.27e-4 -0.163867,0.05668 -0.265751,0.12574 -0.101821,0.06906 -0.268941,0.146855 -0.371252,0.173035 -0.102323,0.0262 -0.223027,0.06049 -0.26825,0.07636 z m 0.564385,-0.643703 c 0.07094,0 0.150007,-0.05842 0.182211,-0.134472 0.0516,-0.122089 0.04043,-0.134472 -0.12216,-0.134472 -0.09843,0 -0.193335,0.0181 -0.210811,0.04017 -0.01745,0.02207 -0.01896,0.08256 -0.0038,0.134472 0.01569,0.05192 0.085,0.0943 0.153912,0.0943 z m 9.111323,-11.627259 c 0.02923,0 0.05315,-0.02842 0.05315,-0.06319 0,-0.03477 -0.02392,-0.08192 -0.05315,-0.104783 -0.02923,-0.02286 -0.05315,0.0063 -0.05315,0.06319 0,0.05763 0.02392,0.104784 0.05315,0.104783 z m -7.040188,10.417487 c -0.01582,0 -0.02863,-0.03779 -0.02863,-0.08399 0,-0.0462 0.209279,-0.263657 0.46505,-0.483226 0.255783,-0.219569 0.473034,-0.423722 0.482777,-0.453664 0.01004,-0.03001 0.04871,-0.05446 0.08663,-0.05446 0.03792,0 0.09743,-0.08716 0.132255,-0.193595 0.04055,-0.123677 0.142474,-0.238684 0.2825,-0.318526 0.120528,-0.06874 0.273146,-0.19331 0.339236,-0.276882 0.06604,-0.08351 0.143554,-0.151936 0.172141,-0.151936 0.02863,0 0.06717,-0.06049 0.08575,-0.134472 0.02159,-0.08589 0.08035,-0.134472 0.163027,-0.134472 0.07106,0 0.129291,0.02461 0.129291,0.05477 0,0.03016 -0.107596,0.156699 -0.239173,0.281327 -0.131538,0.124629 -0.239172,0.245019 -0.239172,0.267532 0,0.02254 -0.125563,0.160175 -0.279035,0.305967 -0.153472,0.145744 -0.338822,0.345849 -0.411905,0.444568 -0.07307,0.09875 -0.230145,0.240541 -0.349028,0.315128 -0.118896,0.07462 -0.248828,0.185387 -0.288765,0.246241 -0.03992,0.06081 -0.162952,0.168907 -0.27336,0.240144 -0.110359,0.07128 -0.213661,0.129551 -0.229443,0.129551 z m 15.544108,-2.200293 c -0.07308,0.01953 -0.240503,8.73e-4 -0.372048,-0.04144 -0.23167,-0.07462 -0.239681,-0.08589 -0.25539,-0.359344 -0.01546,-0.269198 -0.0063,-0.288805 0.196461,-0.419594 0.116975,-0.07541 0.231898,-0.179656 0.25539,-0.231539 0.02349,-0.05192 0.138381,-0.163463 0.255311,-0.247956 0.116925,-0.08446 0.255385,-0.208583 0.307679,-0.275787 0.05229,-0.06716 0.142337,-0.122088 0.200093,-0.122088 0.06143,0 0.148739,0.09065 0.210372,0.218425 0.05795,0.120184 0.120039,0.316621 0.137975,0.436646 0.0326,0.218203 0.0326,0.218203 0.398776,0.175178 0.249066,-0.02921 0.366164,-0.01969 0.366164,0.03001 0,0.04017 -0.05316,0.120183 -0.11813,0.177671 -0.06497,0.05763 -0.152776,0.104625 -0.195125,0.104625 -0.04235,0 -0.119348,0.04842 -0.171093,0.107641 -0.05175,0.05922 -0.233014,0.130661 -0.402806,0.158604 -0.169793,0.0281 -0.392426,0.09653 -0.494737,0.152253 -0.102311,0.05573 -0.245817,0.117167 -0.318897,0.136695 z m 2.150975,-1.025766 c -0.05797,0 -0.08006,-0.04795 -0.06855,-0.148761 0.01105,-0.09716 0.161704,-0.277739 0.434422,-0.520869 0.334647,-0.298347 0.442598,-0.438804 0.544296,-0.708193 0.06977,-0.184831 0.126711,-0.396541 0.126531,-0.470477 -1.8e-4,-0.07398 -0.0179,-0.164653 -0.03937,-0.201629 -0.02148,-0.03699 -0.09258,-0.105101 -0.158006,-0.151301 -0.08333,-0.0589 -0.261981,-0.0724 -0.596459,-0.04525 -0.384757,0.03128 -0.500732,0.01826 -0.597099,-0.06716 -0.06578,-0.05827 -0.159183,-0.105895 -0.207563,-0.105895 -0.04837,0 -0.115757,-0.04239 -0.149725,-0.09415 -0.04692,-0.07144 -0.04685,-0.168923 2.4e-4,-0.405464 0.0341,-0.171241 0.104934,-0.340403 0.157407,-0.375918 0.05247,-0.03556 0.13536,-0.115103 0.184193,-0.176846 0.04884,-0.06176 0.206629,-0.135901 0.350659,-0.164621 0.144028,-0.02874 0.324005,-0.114151 0.399949,-0.18969 0.07595,-0.07557 0.159185,-0.120818 0.184982,-0.100656 0.0258,0.02016 0.04636,0.102879 0.04572,0.183911 -6.5e-4,0.08097 -0.04251,0.210916 -0.09301,0.288726 -0.05051,0.07779 -0.133685,0.160033 -0.184841,0.18272 -0.05116,0.0227 -0.09301,0.10272 -0.09301,0.177767 0,0.125581 0.03524,0.137171 0.438483,0.144474 0.241166,0.0048 0.465189,0.0048 0.49783,-8.89e-4 0.03264,-0.0048 0.08938,0.03699 0.126095,0.09288 0.03671,0.05588 0.09647,0.101608 0.132795,0.101608 0.03632,0 0.129068,0.06271 0.206091,0.139235 0.07703,0.07668 0.140041,0.196659 0.140041,0.266769 0,0.07017 -0.04982,0.248337 -0.110698,0.39605 -0.06088,0.147649 -0.204388,0.387031 -0.318897,0.531839 -0.114514,0.144792 -0.208992,0.289504 -0.209965,0.321574 -9.73e-4,0.03207 -0.04365,0.118754 -0.09485,0.192738 -0.0512,0.07398 -0.17597,0.207789 -0.277267,0.297474 -0.101293,0.0897 -0.203396,0.203311 -0.226887,0.252512 -0.02349,0.04922 -0.136145,0.149713 -0.250343,0.223395 -0.1142,0.07367 -0.246122,0.133996 -0.293168,0.133996 z M 78.076935,49.49636 c -0.0644,-0.0032 -0.146981,-0.02064 -0.183523,-0.03921 -0.03654,-0.01873 -0.06644,-0.10526 -0.06644,-0.192484 0,-0.08716 0.0502,-0.266166 0.111551,-0.397653 0.06136,-0.131456 0.145414,-0.239081 0.186805,-0.239081 0.04139,0 0.12265,-0.09827 0.180575,-0.218426 0.05793,-0.120183 0.105411,-0.282407 0.105512,-0.360598 1.09e-4,-0.07811 0.04421,-0.214282 0.09799,-0.302443 0.05379,-0.08811 0.125836,-0.264165 0.160112,-0.391143 0.03427,-0.127011 0.0997,-0.283122 0.145401,-0.346961 0.0457,-0.06382 0.09038,-0.239842 0.0993,-0.39108 0.0089,-0.151301 0.045,-0.318843 0.08016,-0.372425 0.03517,-0.0535 0.09435,-0.22738 0.131519,-0.386191 0.03716,-0.158826 0.05633,-0.334132 0.04257,-0.389588 -0.01375,-0.05541 -0.0627,-0.1386 -0.108764,-0.184815 -0.04608,-0.0462 -0.152464,-0.08399 -0.236426,-0.08399 -0.140213,0 -0.1513,-0.01778 -0.136003,-0.218426 0.01436,-0.188308 0.05322,-0.240493 0.281779,-0.378427 0.145819,-0.08795 0.390143,-0.171273 0.542942,-0.185085 0.275401,-0.02493 0.279336,-0.02254 0.452395,0.274993 0.09602,0.165034 0.210878,0.301252 0.255249,0.302697 0.04437,0.0014 0.173585,-0.07716 0.287144,-0.174798 0.11356,-0.09764 0.280552,-0.20139 0.371097,-0.230698 0.09055,-0.02937 0.212462,-0.07081 0.270926,-0.09224 0.05847,-0.02143 0.142175,-0.0095 0.186023,0.02667 0.0552,0.04541 0.07669,0.164589 0.06983,0.387333 -0.0054,0.176941 -0.0174,0.397177 -0.02658,0.489434 -0.01438,0.144633 0.01424,0.180148 0.207279,0.257656 0.219256,0.08796 0.230712,0.08462 0.544783,-0.160493 0.176449,-0.137647 0.32094,-0.268785 0.321088,-0.29125 1.48e-4,-0.02255 0.07788,-0.13987 0.172735,-0.26072 0.09485,-0.120978 0.280095,-0.309413 0.41164,-0.418848 0.131545,-0.109388 0.278099,-0.199517 0.325675,-0.200184 0.04757,-6.83e-4 0.115757,-0.04572 0.151503,-0.100338 0.03574,-0.05446 0.150059,-0.119231 0.254022,-0.143839 0.103968,-0.02461 0.248065,-0.08351 0.320223,-0.13098 0.07215,-0.04731 0.171587,-0.06573 0.220953,-0.04096 0.04937,0.02477 0.158061,0.113991 0.241544,0.198215 0.125904,0.12701 0.155923,0.216155 0.176045,0.52298 0.01695,0.258434 0.0015,0.404734 -0.05119,0.485417 -0.04149,0.0635 -0.108639,0.199343 -0.149214,0.301824 -0.04057,0.102561 -0.188987,0.329322 -0.329814,0.504072 -0.140828,0.174766 -0.256085,0.355549 -0.256128,0.401749 -4.4e-5,0.0462 -0.01901,0.08398 -0.04216,0.08398 -0.02314,0 -0.127037,0.09828 -0.230878,0.218426 -0.103842,0.120184 -0.252327,0.275596 -0.329969,0.345468 -0.07764,0.06986 -0.14117,0.178592 -0.14117,0.241621 0,0.06303 0.04286,0.163637 0.09524,0.223586 0.07465,0.08541 0.221211,0.110657 0.677656,0.116531 0.320325,0.0048 0.725913,-0.0079 0.901306,-0.02556 0.175393,-0.01826 0.408586,-0.05414 0.518208,-0.07986 0.178533,-0.04191 0.19931,-0.03207 0.19931,0.09383 0,0.0978 -0.04443,0.153841 -0.146161,0.184514 -0.08039,0.02413 -0.205955,0.08462 -0.279035,0.134154 -0.07308,0.04953 -0.317225,0.136219 -0.542542,0.192484 -0.225317,0.0562 -0.582378,0.102243 -0.793468,0.102243 -0.211091,0 -0.461393,0.03556 -0.556226,0.07891 -0.134293,0.06144 -0.273908,0.0589 -0.631318,-0.01111 -0.382914,-0.07525 -0.46939,-0.11542 -0.522293,-0.242494 -0.03487,-0.08367 -0.147109,-0.224379 -0.249422,-0.312572 -0.180764,-0.155905 -0.185657,-0.171639 -0.173065,-0.558861 0.0072,-0.219172 0.02453,-0.461555 0.03868,-0.53865 0.01562,-0.0851 -0.01805,-0.199565 -0.0857,-0.291393 -0.07686,-0.104307 -0.146567,-0.138441 -0.224702,-0.110182 -0.0623,0.02255 -0.226238,0.05954 -0.364302,0.08208 -0.235224,0.03842 -0.254368,0.03001 -0.30412,-0.135584 -0.0292,-0.09716 -0.04034,-0.2186 -0.02476,-0.26996 0.01725,-0.05684 -0.04295,-0.149078 -0.153926,-0.235826 -0.100239,-0.07827 -0.206742,-0.14241 -0.236663,-0.14241 -0.02992,0 -0.06962,0.07668 -0.0882,0.170321 -0.01859,0.09367 -0.0903,0.202851 -0.15935,0.242637 -0.06905,0.03985 -0.152101,0.146061 -0.184557,0.236112 -0.03245,0.09002 -0.05901,0.203073 -0.05901,0.251099 0,0.04795 -0.03808,0.183863 -0.08463,0.301855 -0.04655,0.117961 -0.154176,0.27955 -0.239172,0.359026 -0.085,0.07938 -0.15454,0.184149 -0.15454,0.232651 0,0.04858 -0.02223,0.08811 -0.04942,0.08811 -0.02718,0 -0.101909,0.132884 -0.166073,0.295362 -0.06416,0.162446 -0.172049,0.370901 -0.239756,0.463238 -0.06771,0.0924 -0.16151,0.334942 -0.208451,0.539126 -0.04694,0.204185 -0.120101,0.407735 -0.162594,0.452315 -0.04249,0.04461 -0.07725,0.117802 -0.07725,0.162875 0,0.04493 -0.06092,0.116849 -0.135375,0.159795 -0.07445,0.04287 -0.188064,0.07557 -0.252461,0.07271 z m 4.848243,-2.478636 c 0.05269,-0.03572 0.236632,-0.242002 0.408742,-0.458538 0.172109,-0.216521 0.378697,-0.502992 0.459087,-0.636591 0.08039,-0.13352 0.14616,-0.30638 0.14616,-0.383968 0,-0.07764 0.03217,-0.238382 0.07149,-0.357327 0.03932,-0.118913 0.11081,-0.257513 0.158863,-0.307905 0.04805,-0.05033 0.07426,-0.118437 0.05824,-0.151142 -0.01602,-0.0327 -0.134733,-0.05954 -0.263809,-0.05954 -0.214883,0 -0.260577,0.0327 -0.541645,0.387747 -0.168831,0.21325 -0.37376,0.477891 -0.455398,0.588073 -0.08165,0.110181 -0.220784,0.291091 -0.309209,0.401987 -0.139428,0.174861 -0.157205,0.237303 -0.133887,0.47035 0.01785,0.178402 0.07372,0.319685 0.166215,0.420293 0.105274,0.114468 0.162743,0.135742 0.235143,0.08668 z m 11.510932,2.080681 c -0.04506,0 -0.109191,-0.07573 -0.142507,-0.168145 -0.05106,-0.141775 -0.03834,-0.225586 0.08087,-0.533443 0.0778,-0.200914 0.14145,-0.406052 0.14145,-0.455855 0,-0.04985 0.07175,-0.144157 0.159448,-0.209647 0.0877,-0.06557 0.159449,-0.172845 0.159449,-0.238525 0,-0.06573 0.07109,-0.20763 0.157972,-0.315445 0.08688,-0.1078 0.158636,-0.265579 0.159448,-0.350596 8.13e-4,-0.08494 0.03797,-0.24378 0.08256,-0.35285 0.0446,-0.10907 0.09961,-0.198295 0.122248,-0.198295 0.02264,0 0.06896,0.03524 0.102963,0.07811 0.04697,0.05938 0.07184,0.03921 0.103642,-0.08398 0.02301,-0.08922 0.04183,-0.388985 0.04183,-0.666232 0,-0.504072 0,-0.504072 -0.218287,-0.524267 -0.164319,-0.01588 -0.278974,0.02636 -0.463735,0.168019 -0.134996,0.103513 -0.259613,0.241161 -0.276926,0.305841 -0.01731,0.06477 -0.06962,0.117643 -0.116234,0.117643 -0.04662,0 -0.182531,0.07303 -0.302028,0.162414 -0.119499,0.08938 -0.30944,0.302999 -0.422093,0.474812 -0.112656,0.171813 -0.221587,0.391652 -0.242072,0.488513 -0.02704,0.127962 -0.133422,0.241732 -0.388395,0.41572 -0.193131,0.131773 -0.395123,0.287551 -0.448871,0.34615 -0.05375,0.05858 -0.175751,0.145586 -0.271119,0.193326 -0.09537,0.04779 -0.274746,0.08621 -0.398621,0.08573 -0.123868,-6.04e-4 -0.304903,-0.02334 -0.402286,-0.05049 -0.109015,-0.03048 -0.222158,-0.01889 -0.294409,0.03001 -0.06477,0.04382 -0.259078,0.07017 -0.433693,0.0589 -0.292612,-0.01905 -0.321985,-0.03572 -0.391502,-0.222204 -0.04133,-0.110975 -0.09536,-0.21171 -0.12005,-0.22403 -0.0247,-0.0127 -0.0449,-0.321908 -0.0449,-0.687951 0,-0.665533 0,-0.665533 0.212597,-0.843443 0.127346,-0.10653 0.212599,-0.230508 0.212599,-0.309079 0,-0.07208 0.110635,-0.309254 0.245869,-0.526902 0.135228,-0.217664 0.294507,-0.41526 0.353954,-0.439122 0.05945,-0.02381 0.241792,-0.160747 0.405211,-0.304189 0.163421,-0.143522 0.35833,-0.260863 0.433131,-0.260911 0.0748,-4.8e-5 0.182429,-0.04303 0.239173,-0.09558 0.07205,-0.06668 0.183312,-0.08414 0.368917,-0.05795 0.146162,0.02064 0.293555,0.06525 0.32754,0.09891 0.03863,0.03842 0.135689,0.02223 0.258952,-0.04287 0.108437,-0.05731 0.204983,-0.104149 0.214547,-0.104149 0.0095,0 0.09025,0.09828 0.179287,0.218442 0.144084,0.194389 0.161923,0.263927 0.162143,0.631907 2.33e-4,0.393034 0.0077,0.416753 0.150136,0.479559 0.106479,0.04699 0.194992,0.04144 0.30561,-0.01921 0.08565,-0.04699 0.20504,-0.145268 0.26532,-0.218378 0.06028,-0.07319 0.193749,-0.183578 0.296594,-0.245289 0.102851,-0.06176 0.310636,-0.141457 0.461755,-0.177179 0.15112,-0.03572 0.38837,-0.09367 0.527224,-0.128598 0.138853,-0.03509 0.331561,-0.09399 0.428241,-0.13082 0.09667,-0.03699 0.209767,-0.05065 0.251306,-0.03048 0.0419,0.02032 0.145467,-0.05176 0.232619,-0.162001 0.0864,-0.109229 0.289636,-0.266674 0.451632,-0.349818 0.289951,-0.148761 0.29711,-0.149237 0.459877,-0.02636 0.09094,0.06859 0.203324,0.20509 0.249751,0.303269 0.07736,0.163637 0.07682,0.22738 -0.0065,0.764173 -0.06645,0.427722 -0.122713,0.619794 -0.208597,0.712257 -0.06468,0.0697 -0.193338,0.174099 -0.285911,0.232175 -0.09257,0.05811 -0.234231,0.09573 -0.314798,0.08383 -0.105662,-0.01588 -0.160214,-0.0743 -0.195757,-0.209979 -0.04046,-0.154476 -0.02441,-0.235684 0.08986,-0.45403 0.09882,-0.188832 0.12945,-0.314588 0.105726,-0.434137 -0.01837,-0.09256 -0.05603,-0.18599 -0.08369,-0.207598 -0.02766,-0.02159 -0.108714,-0.0208 -0.180135,0.0016 -0.08163,0.02588 -0.129853,0.08938 -0.129853,0.171019 0,0.07144 -0.03286,0.154 -0.07301,0.183546 -0.04015,0.02953 -0.147781,0.208312 -0.239173,0.397224 -0.09139,0.188912 -0.166165,0.408179 -0.166165,0.487275 0,0.07906 -0.03303,0.143839 -0.07342,0.143839 -0.04038,0 -0.136047,0.103831 -0.212597,0.230761 -0.07655,0.126852 -0.139183,0.301951 -0.139183,0.388985 0,0.087 -0.07079,0.262959 -0.157287,0.390937 -0.0865,0.127963 -0.158261,0.266801 -0.159449,0.308476 -0.0012,0.04176 -0.03804,0.113357 -0.08188,0.159462 -0.04385,0.04604 -0.07972,0.123835 -0.07972,0.172781 0,0.04906 -0.05979,0.170718 -0.132873,0.270421 -0.07308,0.0997 -0.132875,0.243319 -0.132875,0.319097 0,0.07573 -0.06521,0.256783 -0.144902,0.402209 -0.0797,0.145427 -0.234683,0.336069 -0.344415,0.423675 -0.109731,0.08764 -0.236377,0.159255 -0.281433,0.159255 z M 92.044466,47.1779 c 0.116925,-0.02175 0.332184,-0.06065 0.478345,-0.08653 0.146162,-0.02572 0.295644,-0.07049 0.332184,-0.09923 0.03654,-0.02874 0.06644,-0.08303 0.06644,-0.120342 0,-0.03747 0.03853,-0.116691 0.08564,-0.176322 0.07038,-0.08907 0.07906,-0.192913 0.04871,-0.583295 -0.02475,-0.318287 -0.0675,-0.511073 -0.129582,-0.584389 -0.05096,-0.06017 -0.150616,-0.133361 -0.22145,-0.162732 -0.07084,-0.02937 -0.197802,-0.04731 -0.282153,-0.04001 -0.08434,0.0079 -0.209073,-0.03286 -0.277164,-0.08938 -0.06809,-0.05636 -0.166498,-0.102402 -0.218683,-0.102243 -0.05219,1.91e-4 -0.212857,0.113674 -0.357049,0.252036 -0.155687,0.149396 -0.278222,0.328067 -0.301693,0.439741 -0.02173,0.103354 -0.01512,0.390747 0.01473,0.638496 0.02984,0.247733 0.07292,0.475383 0.09573,0.505882 0.02281,0.03048 0.134163,0.09875 0.247443,0.151777 0.125198,0.05858 0.28933,0.08065 0.418563,0.05668 z m 16.353724,1.449012 c -0.0787,-5.56e-4 -0.1766,-0.02778 -0.21751,-0.06065 -0.0553,-0.04429 -0.0655,-0.141141 -0.0398,-0.378634 0.019,-0.175512 0.056,-0.35239 0.0822,-0.39308 0.0262,-0.04064 0.0778,-0.202899 0.11483,-0.360439 0.037,-0.157493 0.0993,-0.320019 0.13836,-0.361075 0.0417,-0.04382 0.0711,-0.211043 0.0711,-0.404622 0,-0.181482 0.0359,-0.438551 0.0797,-0.57126 0.0438,-0.132726 0.0801,-0.305635 0.0805,-0.384302 4.3e-4,-0.07859 0.0352,-0.267975 0.0773,-0.420721 0.0421,-0.15273 0.12516,-0.379586 0.18459,-0.504071 0.0594,-0.12447 0.13073,-0.291235 0.15844,-0.370537 0.0277,-0.07922 0.0708,-0.154952 0.0959,-0.168018 0.025,-0.0127 0.10763,-0.12971 0.18359,-0.259085 0.0797,-0.135743 0.15012,-0.363091 0.16655,-0.537682 0.0157,-0.166336 0.0433,-0.350517 0.0614,-0.40929 0.0182,-0.0589 -0.003,-0.144792 -0.0478,-0.191643 -0.0661,-0.06938 -0.12275,-0.05906 -0.31152,0.05636 -0.1269,0.07764 -0.25705,0.141299 -0.28924,0.141299 -0.0322,0 -0.0665,0.02302 -0.0762,0.05112 -0.01,0.0281 -0.11133,0.147491 -0.22575,0.265309 -0.1636,0.168399 -0.22886,0.200025 -0.30561,0.148125 -0.0537,-0.03636 -0.0976,-0.103672 -0.0976,-0.149713 0,-0.04604 0.0816,-0.181053 0.18144,-0.300077 0.0998,-0.119073 0.22536,-0.216934 0.27904,-0.217585 0.0537,-6.35e-4 0.14829,-0.0689 0.21025,-0.151618 0.062,-0.08272 0.23435,-0.205773 0.38308,-0.273406 0.14873,-0.06763 0.29275,-0.105577 0.32004,-0.08414 0.0273,0.02127 0.13586,-0.08192 0.24128,-0.229507 0.10543,-0.147491 0.21624,-0.268293 0.24628,-0.268293 0.03,0 0.0779,-0.07764 0.10644,-0.172385 0.0285,-0.09478 0.0518,-0.261165 0.0518,-0.369663 0,-0.108435 0.0196,-0.197247 0.0436,-0.197247 0.024,0 0.14137,-0.105895 0.2609,-0.235239 0.17289,-0.187133 0.26256,-0.235238 0.43852,-0.235238 0.18185,0 0.26761,-0.04953 0.4821,-0.2782 0.21824,-0.232699 0.27412,-0.26434 0.34172,-0.193389 0.0444,0.04668 0.0808,0.155587 0.0808,0.24197 0,0.08653 -0.0513,0.217664 -0.11412,0.291568 -0.0628,0.07398 -0.21919,0.154317 -0.34764,0.178687 -0.20286,0.03842 -0.24899,0.0797 -0.35098,0.313906 -0.0646,0.148284 -0.15813,0.363948 -0.20788,0.479225 -0.0497,0.115262 -0.0916,0.259307 -0.093,0.32005 -0.001,0.06081 -0.0384,0.127804 -0.0823,0.149078 -0.0438,0.02127 -0.0797,0.09669 -0.0797,0.167527 0,0.07081 -0.0357,0.215473 -0.0794,0.321351 -0.0437,0.105895 -0.0796,0.241367 -0.0797,0.301062 -1.8e-4,0.05969 -0.0431,0.180688 -0.0954,0.268849 -0.0523,0.08811 -0.12343,0.243098 -0.15802,0.344309 -0.0346,0.101132 -0.0481,0.232809 -0.03,0.292425 0.0181,0.05954 0.009,0.127963 -0.0192,0.152095 -0.0287,0.02397 -0.11521,0.209963 -0.1923,0.413275 -0.0771,0.203311 -0.22405,0.566243 -0.32658,0.806515 -0.10254,0.240271 -0.18691,0.510088 -0.18749,0.599599 -5.9e-4,0.08954 -0.0381,0.214504 -0.0834,0.277771 -0.0453,0.06335 -0.0871,0.247114 -0.093,0.408544 -0.0107,0.293505 -0.0107,0.293505 0.22136,0.28001 0.19513,-0.01111 0.28113,-0.06747 0.54059,-0.35285 0.1697,-0.186642 0.35228,-0.340308 0.40575,-0.341467 0.0535,-0.0012 0.16298,-0.07525 0.24337,-0.164812 0.0804,-0.08954 0.14616,-0.191134 0.14616,-0.225919 0,-0.03477 0.0378,-0.0816 0.0841,-0.10399 0.0462,-0.02238 0.11727,-0.0408 0.15787,-0.0408 0.0406,0 0.20008,-0.07255 0.35442,-0.161191 0.15432,-0.08859 0.36887,-0.207345 0.47675,-0.263737 0.15575,-0.08145 0.20749,-0.08526 0.2512,-0.01873 0.0384,0.05842 0.0362,0.1078 -0.008,0.162938 -0.0344,0.0435 -0.0826,0.07906 -0.10722,0.07906 -0.0246,0 -0.096,0.06049 -0.15884,0.134472 -0.0628,0.07398 -0.15601,0.134472 -0.20723,0.134472 -0.0512,0 -0.10798,0.03032 -0.12599,0.06716 -0.0181,0.03699 -0.0711,0.06716 -0.1179,0.06716 -0.0468,0 -0.21875,0.127328 -0.38219,0.282868 -0.16344,0.155587 -0.34224,0.335529 -0.39734,0.399907 -0.0551,0.0643 -0.17775,0.163574 -0.27254,0.220458 -0.0948,0.05684 -0.21051,0.177068 -0.25715,0.267087 -0.0466,0.09002 -0.13926,0.185292 -0.20581,0.21171 -0.0666,0.02636 -0.17368,0.11939 -0.23805,0.206725 -0.0644,0.08732 -0.13096,0.158763 -0.14796,0.158763 -0.017,0 -0.0967,0.08319 -0.17706,0.184831 -0.0804,0.101609 -0.22308,0.257402 -0.3171,0.346103 -0.094,0.08875 -0.17095,0.199136 -0.17095,0.2454 0,0.0462 -0.0851,0.147649 -0.18906,0.225173 -0.10398,0.07763 -0.25347,0.140664 -0.33219,0.140029 z m 3.96101,-0.336625 c -0.0839,9.05e-4 -0.16118,-0.04239 -0.17868,-0.10002 -0.017,-0.05588 -0.0165,-0.199549 0.001,-0.31924 0.0176,-0.119708 0.0403,-0.278375 0.0504,-0.35266 0.01,-0.0743 0.0493,-0.210377 0.0871,-0.302443 0.0378,-0.09208 0.0984,-0.212758 0.13485,-0.268198 0.0364,-0.05541 0.085,-0.221792 0.10785,-0.369663 0.023,-0.147808 0.0355,-0.479607 0.028,-0.737231 -0.0113,-0.372362 -0.0358,-0.492545 -0.12103,-0.586073 -0.0594,-0.06509 -0.0938,-0.162366 -0.077,-0.217758 0.0167,-0.05509 0.15109,-0.17745 0.29863,-0.271993 0.16011,-0.102561 0.26825,-0.216917 0.26825,-0.283598 0,-0.06144 0.028,-0.20944 0.0621,-0.328877 0.0506,-0.17702 0.0468,-0.257195 -0.0208,-0.43374 -0.0535,-0.139711 -0.069,-0.279057 -0.0438,-0.392493 0.0215,-0.09669 0.0298,-0.296902 0.0182,-0.444758 -0.0113,-0.147808 -0.0316,-0.334481 -0.0448,-0.414704 -0.0157,-0.09558 -0.0781,-0.16089 -0.18073,-0.18942 -0.1376,-0.03826 -0.16117,-0.08049 -0.19263,-0.345848 -0.0323,-0.27231 -0.0207,-0.322321 0.11676,-0.503691 0.0839,-0.110817 0.25731,-0.259958 0.38536,-0.331576 0.12804,-0.0716 0.26661,-0.130186 0.30793,-0.130186 0.0413,0 0.14852,0.06811 0.23823,0.151143 0.0898,0.08319 0.18679,0.22684 0.21573,0.31924 0.0289,0.0924 0.0682,0.304126 0.0871,0.470477 0.019,0.166336 0.0299,0.502357 0.0244,0.746709 -0.006,0.286535 -0.0473,0.53711 -0.11488,0.7057 -0.0686,0.171274 -0.0949,0.336752 -0.0767,0.479861 0.0153,0.120183 0.0551,0.218299 0.0883,0.218124 0.0333,-1.75e-4 0.19195,-0.06906 0.35273,-0.152889 0.16078,-0.08398 0.36407,-0.211059 0.45177,-0.282454 0.0878,-0.07144 0.22706,-0.199152 0.30969,-0.2839 0.0826,-0.08478 0.19253,-0.154159 0.24422,-0.154159 0.0517,0 0.13728,-0.06049 0.19019,-0.134472 0.0529,-0.07398 0.12241,-0.135107 0.1544,-0.136059 0.032,-8.89e-4 0.16582,-0.107165 0.29736,-0.236096 0.13155,-0.128916 0.40028,-0.371362 0.59718,-0.538682 0.19691,-0.16732 0.385,-0.367981 0.41798,-0.445917 0.0447,-0.105419 0.0443,-0.20763 -0.001,-0.399511 -0.0336,-0.141775 -0.1081,-0.289631 -0.16551,-0.328512 -0.0574,-0.0389 -0.10446,-0.12955 -0.10446,-0.201676 0,-0.07208 0.1017,-0.325956 0.22589,-0.564211 0.1243,-0.238255 0.25496,-0.435312 0.29047,-0.437899 0.0355,-0.0032 0.14446,-0.09335 0.24206,-0.201756 0.0977,-0.108435 0.2438,-0.218108 0.32485,-0.243828 0.0868,-0.02747 0.19786,-0.0127 0.27027,0.03636 0.0675,0.04572 0.14896,0.155428 0.1808,0.243828 0.0319,0.08827 0.0975,0.160636 0.14592,0.160636 0.0485,0 0.14462,0.07716 0.21375,0.171495 0.0739,0.100973 0.12568,0.254275 0.12568,0.372854 0,0.133044 -0.0496,0.2598 -0.14617,0.373696 -0.0803,0.09478 -0.25378,0.265944 -0.38532,0.38038 -0.13155,0.114468 -0.33213,0.315192 -0.44573,0.446155 -0.11362,0.130979 -0.29324,0.345515 -0.39917,0.47678 -0.10597,0.131297 -0.29402,0.310747 -0.41795,0.398828 -0.12392,0.08811 -0.22535,0.184832 -0.22535,0.214997 0,0.03017 -0.0286,0.05477 -0.0636,0.05477 -0.035,0 -0.22519,0.137012 -0.42259,0.304507 -0.19739,0.167463 -0.44919,0.352199 -0.55956,0.410513 -0.11036,0.05827 -0.24907,0.174305 -0.30822,0.257751 -0.0591,0.08351 -0.27498,0.253465 -0.4796,0.377792 -0.20462,0.124311 -0.40421,0.265197 -0.44352,0.313032 -0.0393,0.04779 -0.13497,0.127963 -0.21259,0.178148 -0.0776,0.05017 -0.21638,0.11161 -0.30835,0.136695 -0.092,0.02508 -0.20259,0.09669 -0.24581,0.159318 -0.0468,0.06779 -0.0912,0.32132 -0.10973,0.626732 -0.0206,0.339292 -0.01,0.572101 0.0331,0.687697 0.0354,0.09605 0.091,0.187879 0.12354,0.203914 0.0325,0.01604 0.22103,-0.04239 0.41891,-0.129867 0.19788,-0.08748 0.41044,-0.217505 0.47236,-0.289044 0.0619,-0.0716 0.27997,-0.182228 0.48457,-0.245971 0.2046,-0.06382 0.4355,-0.173083 0.51312,-0.242986 0.0776,-0.06986 0.18773,-0.127011 0.24465,-0.127011 0.0569,0 0.17857,-0.09065 0.27035,-0.201628 0.10094,-0.122089 0.22472,-0.20247 0.31348,-0.203756 0.0806,-0.0012 0.19307,-0.04652 0.24982,-0.100815 0.0568,-0.0543 0.13448,-0.09875 0.17273,-0.09875 0.0383,0 0.0696,0.07192 0.0696,0.159795 0,0.08795 -0.0344,0.19596 -0.0766,0.240144 -0.0421,0.04414 -0.11977,0.07192 -0.17273,0.0616 -0.0528,-0.01111 -0.19783,0.0635 -0.32207,0.16397 -0.1243,0.100497 -0.22588,0.210281 -0.22588,0.243923 0,0.03366 -0.0849,0.09653 -0.18869,0.13987 -0.10383,0.04334 -0.34855,0.196882 -0.54394,0.341261 -0.19538,0.144474 -0.42215,0.262514 -0.50392,0.262514 -0.0817,0 -0.16154,0.04239 -0.17727,0.09415 -0.0157,0.05176 -0.11663,0.113992 -0.22422,0.137965 -0.10759,0.02413 -0.23747,0.05938 -0.28864,0.07827 -0.0512,0.01905 -0.093,0.07335 -0.093,0.12066 0,0.04731 -0.0981,0.141934 -0.21788,0.210329 -0.11977,0.06827 -0.23761,0.189832 -0.26172,0.269992 -0.0241,0.08018 -0.2549,0.360804 -0.51291,0.623651 -0.32588,0.332005 -0.51423,0.4784 -0.61693,0.479527 z M 73.118984,48.082181 c -0.11061,0.04001 -0.202713,0.03223 -0.28643,-0.02445 -0.06792,-0.04588 -0.288137,-0.08875 -0.489432,-0.09526 -0.201306,-0.0064 -0.428075,-0.0416 -0.503932,-0.07795 -0.137917,-0.06636 -0.137917,-0.06636 -0.09755,-0.619206 0.02222,-0.304094 0.0452,-0.634559 0.05122,-0.734373 0.0063,-0.09986 0.04281,-0.230285 0.08198,-0.289932 0.03917,-0.0597 0.08023,-0.219284 0.09115,-0.354724 0.0113,-0.135425 0.05461,-0.29468 0.09692,-0.35385 0.04231,-0.05922 0.07696,-0.131139 0.07696,-0.159827 0,-0.02874 0.07169,-0.166796 0.159449,-0.306825 0.08776,-0.140029 0.159448,-0.306063 0.159448,-0.36898 0,-0.06287 0.131539,-0.303888 0.292318,-0.535459 0.160779,-0.231572 0.292318,-0.453093 0.292318,-0.49226 0,-0.03921 0.07181,-0.09113 0.159449,-0.115579 0.08763,-0.02429 0.159448,-0.06763 0.159448,-0.09621 0,-0.02858 0.125575,-0.204867 0.279035,-0.391763 0.153472,-0.186879 0.396537,-0.478606 0.540141,-0.64826 0.143617,-0.169653 0.346907,-0.338609 0.451779,-0.375442 0.104834,-0.03683 0.215004,-0.06716 0.24476,-0.06731 0.02975,-2.07e-4 0.137389,-0.07129 0.239173,-0.158128 0.101821,-0.08668 0.292707,-0.232206 0.424245,-0.323288 0.131547,-0.09113 0.370719,-0.217029 0.531498,-0.279915 0.215375,-0.08414 0.418233,-0.106847 0.770667,-0.08589 0.26309,0.01588 0.517327,0.03112 0.564971,0.03429 0.04765,0.0032 0.185169,0.170988 0.30561,0.372712 0.12044,0.201723 0.218983,0.439042 0.218983,0.527393 0,0.08827 -0.04712,0.229333 -0.104721,0.313303 -0.0576,0.08398 -0.118369,0.207058 -0.135046,0.2735 -0.01667,0.06652 -0.104671,0.153683 -0.195532,0.193659 -0.09086,0.04001 -0.220705,0.07287 -0.288534,0.07287 -0.06784,0 -0.210162,0.06176 -0.316296,0.137013 -0.151458,0.107641 -0.20923,0.120024 -0.268564,0.05763 -0.04158,-0.04366 -0.06187,-0.133995 -0.0451,-0.200819 0.02107,-0.08399 -0.03818,-0.208328 -0.191563,-0.402304 -0.217335,-0.274819 -0.228132,-0.279994 -0.507693,-0.243511 -0.1571,0.02048 -0.41568,0.115103 -0.574614,0.210155 -0.158933,0.0951 -0.316586,0.17286 -0.350322,0.17286 -0.03377,0 -0.12216,0.06049 -0.196485,0.134473 -0.08198,0.08145 -0.221232,0.136694 -0.35385,0.140028 -0.205576,0.0048 -0.242676,0.03985 -0.617342,0.573626 -0.219236,0.312382 -0.465841,0.65188 -0.548001,0.754456 -0.08211,0.102561 -0.154954,0.234572 -0.161771,0.29333 -0.0063,0.05874 -0.03792,0.14765 -0.06918,0.197612 -0.03126,0.05001 -0.0732,0.177307 -0.09316,0.283043 -0.01996,0.105736 -0.08123,0.31743 -0.135921,0.470461 -0.05474,0.153048 -0.11538,0.347595 -0.134702,0.432375 -0.01933,0.08478 -0.01858,0.378728 0.0013,0.653197 0.03541,0.477654 0.04482,0.504882 0.219211,0.635004 0.100189,0.07478 0.241294,0.154634 0.313485,0.177623 0.07219,0.02286 0.152908,0.09065 0.179361,0.150349 0.04369,0.09859 0.05838,0.097 0.157804,-0.01683 0.08588,-0.09827 0.159386,-0.11685 0.338633,-0.08589 0.192355,0.03334 0.2397,0.01794 0.296198,-0.09653 0.03704,-0.07494 0.148877,-0.17929 0.248664,-0.232 0.09981,-0.05271 0.219713,-0.09589 0.266543,-0.09589 0.05687,0 0.07947,0.04779 0.06817,0.144315 -0.0088,0.07938 -0.05286,0.166209 -0.09667,0.192929 -0.04382,0.02667 -0.187346,0.113674 -0.318897,0.193309 -0.131539,0.07954 -0.320441,0.219601 -0.419764,0.311127 -0.122662,0.113039 -0.25066,0.166416 -0.398973,0.166416 -0.120151,0 -0.291728,0.02667 -0.381383,0.05906 z m 13.997718,-0.169066 c -0.211883,0.08065 -0.266095,0.0797 -0.408746,-0.0079 -0.09046,-0.05541 -0.164463,-0.142251 -0.164463,-0.19315 0,-0.0508 -0.02308,-0.0924 -0.05127,-0.0924 -0.0282,0 -0.07715,-0.06112 -0.108777,-0.135901 -0.03163,-0.07478 -0.06002,-0.414974 -0.06311,-0.756108 -0.0031,-0.341133 0.01042,-0.683457 0.02993,-0.760711 0.01955,-0.07732 0.08897,-0.173195 0.154259,-0.213203 0.06529,-0.04001 0.178499,-0.08954 0.251579,-0.11034 0.07308,-0.02064 0.211317,-0.136377 0.307191,-0.257259 0.09587,-0.120819 0.275254,-0.383174 0.398621,-0.582929 0.123365,-0.19974 0.26018,-0.386429 0.304028,-0.414863 0.04385,-0.02842 0.202232,-0.142093 0.351962,-0.252608 0.172659,-0.127486 0.386511,-0.218028 0.584645,-0.247717 0.171824,-0.02572 0.417415,-0.104148 0.545757,-0.174322 0.176514,-0.09653 0.250949,-0.10907 0.305609,-0.05176 0.03975,0.04175 0.07225,0.128598 0.07225,0.19296 0,0.06446 0.05381,0.203867 0.119586,0.309889 0.09824,0.158286 0.11808,0.268769 0.111149,0.618683 -0.0051,0.259545 -0.03832,0.470033 -0.08493,0.538809 -0.04207,0.06208 -0.09234,0.158286 -0.111727,0.213694 -0.01938,0.05541 -0.08107,0.191547 -0.137068,0.302443 -0.05601,0.110975 -0.103579,0.254656 -0.105713,0.319478 -0.0021,0.06478 -0.05166,0.230587 -0.110057,0.368362 -0.05839,0.137806 -0.174416,0.341816 -0.257822,0.453426 -0.0834,0.11161 -0.28078,0.290377 -0.438608,0.397288 -0.157829,0.106847 -0.418507,0.280677 -0.579284,0.38619 -0.160777,0.105578 -0.353311,0.19196 -0.427853,0.192103 -0.07454,1.43e-4 -0.159675,-0.03032 -0.189186,-0.06763 -0.03611,-0.04572 -0.133549,-0.03747 -0.297938,0.02508 z m 0.796981,-0.647848 c 0.137978,-0.01715 0.343777,-0.07652 0.457331,-0.131931 0.136349,-0.06652 0.228291,-0.166463 0.270746,-0.29441 0.03535,-0.10653 0.08042,-0.302808 0.100126,-0.436121 0.01971,-0.133361 0.108099,-0.380332 0.196423,-0.548938 0.121055,-0.231095 0.151914,-0.350247 0.125374,-0.483989 -0.01937,-0.09764 -0.09805,-0.228602 -0.174847,-0.291155 -0.0768,-0.06255 -0.176919,-0.170384 -0.22249,-0.239652 -0.05461,-0.08303 -0.158037,-0.128439 -0.303459,-0.133202 -0.155673,-0.0048 -0.2506,0.03191 -0.322531,0.125899 -0.05606,0.07319 -0.152973,0.186133 -0.215358,0.250829 -0.06239,0.06462 -0.125135,0.117643 -0.139451,0.117643 -0.01431,0 -0.12167,0.124629 -0.238566,0.276946 -0.145945,0.190166 -0.212538,0.336339 -0.212538,0.466493 0,0.104307 0.02392,0.208249 0.05315,0.231095 0.02923,0.02286 0.05315,0.184244 0.05315,0.358645 0,0.25918 0.02942,0.357835 0.161039,0.540063 0.14801,0.204915 0.181339,0.220442 0.411909,0.191769 z m -17.394764,0.690587 c -0.01456,0 -0.02662,-0.01588 -0.02662,-0.03366 0,-0.01842 0.01255,-0.03366 0.02662,-0.03366 0.01456,0 0.02662,0.01588 0.02662,0.03366 0,0.01842 -0.01255,0.03366 -0.02662,0.03366 z m 65.255971,-0.280248 c -0.18942,0.0535 -0.22815,0.04636 -0.24954,-0.04668 -0.0139,-0.06049 -0.0176,-0.270547 -0.008,-0.466762 0.0113,-0.240192 0.0521,-0.404893 0.12392,-0.504072 0.0586,-0.08097 0.12417,-0.222919 0.14583,-0.315334 0.0216,-0.0924 0.0841,-0.222141 0.13898,-0.288266 0.0549,-0.0662 0.0997,-0.162637 0.0997,-0.214457 0,-0.05192 -0.026,-0.114626 -0.0578,-0.139393 -0.0318,-0.02477 -0.0844,-0.01111 -0.11688,0.02969 -0.0325,0.04112 -0.10622,0.07478 -0.16381,0.07478 -0.0576,0 -0.23464,0.09272 -0.39348,0.206121 -0.22134,0.157969 -0.37758,0.214489 -0.66867,0.241907 -0.25015,0.0235 -0.42902,0.07938 -0.52386,0.163526 -0.0792,0.07033 -0.17117,0.127804 -0.20439,0.127804 -0.0332,0 -0.1301,0.05207 -0.21531,0.115738 -0.14698,0.109863 -0.16393,0.109546 -0.33106,-0.0048 -0.11099,-0.07557 -0.22599,-0.104149 -0.31098,-0.07716 -0.11877,0.03763 -0.16267,-0.0063 -0.36807,-0.365504 -0.12829,-0.224554 -0.28639,-0.426436 -0.35134,-0.448615 -0.0768,-0.0262 -0.20669,0.0235 -0.37204,0.142569 -0.13969,0.100655 -0.33615,0.192325 -0.4366,0.203851 -0.10044,0.01111 -0.298,0.04096 -0.43901,0.06557 -0.14715,0.02556 -0.28447,0.09335 -0.32229,0.159175 -0.0363,0.06303 -0.14028,0.15273 -0.23116,0.19947 -0.10722,0.05509 -0.28646,0.07113 -0.51075,0.04557 -0.27212,-0.03096 -0.35977,-0.01762 -0.41262,0.06303 -0.0369,0.0562 -0.12405,0.102243 -0.19348,0.102243 -0.11136,0 -0.12636,-0.03096 -0.12636,-0.261117 0,-0.205566 0.0288,-0.284932 0.13524,-0.373156 0.0743,-0.0616 0.1575,-0.186102 0.18471,-0.276581 0.0272,-0.09049 0.0739,-0.16451 0.10396,-0.16451 0.03,0 0.0545,-0.05573 0.0545,-0.123993 0,-0.06827 0.0451,-0.175608 0.10019,-0.238668 0.0551,-0.06303 0.11375,-0.200661 0.13042,-0.305762 0.0166,-0.105101 0.13889,-0.337958 0.27169,-0.517439 0.13282,-0.179497 0.27742,-0.379268 0.32136,-0.443964 0.0439,-0.06462 0.0798,-0.144633 0.0798,-0.177513 0,-0.03286 0.0957,-0.20628 0.2126,-0.385222 0.17464,-0.267245 0.21259,-0.376537 0.21259,-0.612205 0,-0.280613 -0.004,-0.286868 -0.17811,-0.286868 -0.0979,0 -0.29056,0.07557 -0.42801,0.168018 -0.13744,0.0924 -0.27559,0.168035 -0.30702,0.168035 -0.0314,0 -0.23337,0.219267 -0.44881,0.487259 -0.21544,0.268007 -0.39176,0.513232 -0.39183,0.544969 -9e-5,0.03175 -0.15561,0.295314 -0.34562,0.585739 -0.19002,0.290425 -0.34547,0.543492 -0.34547,0.562369 0,0.01889 -0.17939,0.342198 -0.39862,0.718465 -0.21925,0.376284 -0.39863,0.722466 -0.39863,0.769301 0,0.04684 -0.14732,0.178227 -0.32738,0.292012 -0.18006,0.113833 -0.35783,0.206868 -0.39504,0.206868 -0.0372,0 -0.0835,-0.06303 -0.10283,-0.140187 -0.0239,-0.09494 7.3e-4,-0.188468 0.0762,-0.289981 0.0613,-0.0824 0.11136,-0.196611 0.11136,-0.253782 0,-0.05715 0.1076,-0.250115 0.23918,-0.428739 0.13155,-0.178624 0.23917,-0.345356 0.23917,-0.37052 0,-0.02508 0.12028,-0.193214 0.26725,-0.373442 0.14698,-0.180243 0.3169,-0.448695 0.37759,-0.596551 0.0606,-0.147808 0.14371,-0.293028 0.18452,-0.32259 0.0408,-0.02953 0.0742,-0.101132 0.0742,-0.159144 0,-0.05795 0.0747,-0.213059 0.16609,-0.344626 0.0914,-0.131614 0.19874,-0.338022 0.23864,-0.458777 0.0399,-0.120818 0.0576,-0.26888 0.0393,-0.329146 -0.0249,-0.08208 -0.0682,-0.09716 -0.1722,-0.06033 -0.0765,0.02699 -0.1868,0.05207 -0.24525,0.05541 -0.0585,0.0032 -0.11551,-0.02302 -0.12676,-0.05858 -0.0113,-0.03556 0.0216,-0.09605 0.0731,-0.134472 0.0513,-0.03826 0.17488,-0.164748 0.27437,-0.280946 0.0998,-0.116691 0.26953,-0.232095 0.37874,-0.257736 0.10885,-0.02556 0.23875,-0.09288 0.28872,-0.149554 0.05,-0.05668 0.20183,-0.118913 0.33749,-0.138282 0.22369,-0.03191 0.25793,-0.01731 0.36806,0.157333 0.12141,0.19258 0.12141,0.19258 0.45975,0.106213 0.18608,-0.04747 0.36225,-0.123676 0.39148,-0.169067 0.0293,-0.04541 0.16078,-0.132567 0.29232,-0.193452 0.13155,-0.06097 0.31092,-0.115738 0.39862,-0.12193 0.0878,-0.0064 0.18934,-0.0079 0.22589,-0.0048 0.0426,0.0048 0.0664,0.11685 0.0664,0.31289 0,0.168177 -0.0395,0.402574 -0.088,0.520884 -0.0483,0.118279 -0.13352,0.293013 -0.1892,0.388271 -0.0557,0.09526 -0.11337,0.269992 -0.12807,0.388333 -0.0167,0.133679 -0.11614,0.331291 -0.26257,0.521885 -0.12965,0.168701 -0.23574,0.342277 -0.23574,0.38573 0,0.0435 -0.10998,0.23797 -0.24439,0.432263 -0.14814,0.214171 -0.23238,0.392795 -0.21392,0.453649 0.0167,0.05525 -0.0167,0.198152 -0.0743,0.317669 -0.0576,0.119548 -0.10483,0.282121 -0.10496,0.361328 -1e-4,0.07922 0.0377,0.162398 0.0839,0.184831 0.0462,0.02239 0.12204,0.0408 0.16855,0.0408 0.0465,0 0.12342,-0.04461 0.17109,-0.09907 0.0476,-0.05446 0.29503,-0.175496 0.54977,-0.268849 0.25474,-0.09335 0.51064,-0.169717 0.56867,-0.169717 0.058,0 0.10546,-0.03858 0.10546,-0.08589 0,-0.04715 0.0737,-0.187911 0.16383,-0.312667 0.0901,-0.124787 0.18579,-0.299807 0.21261,-0.389 0.0269,-0.08923 0.0487,-0.251893 0.0487,-0.361535 0,-0.115262 0.0336,-0.215695 0.0797,-0.238049 0.0438,-0.02127 0.0797,-0.0878 0.0797,-0.147649 0,-0.06001 0.0777,-0.253258 0.17273,-0.429549 0.095,-0.176274 0.1968,-0.320557 0.2262,-0.320621 0.0294,-7.9e-5 0.083,-0.08335 0.11902,-0.184959 0.036,-0.101608 0.1437,-0.290678 0.23923,-0.42007 0.0955,-0.129391 0.36486,-0.383158 0.59852,-0.563957 0.37772,-0.292298 0.47342,-0.335513 0.86326,-0.389826 0.27826,-0.03874 0.47213,-0.03731 0.53064,0.0048 0.0806,0.057 0.0903,0.161239 0.0766,0.826678 -0.0128,0.625176 -0.0341,0.794036 -0.11877,0.943542 -0.0567,0.10018 -0.10308,0.21044 -0.10308,0.245082 0,0.03461 -0.088,0.160621 -0.19545,0.279963 -0.10747,0.119389 -0.2809,0.261561 -0.38533,0.316017 -0.10446,0.05446 -0.26603,0.171654 -0.35908,0.260434 -0.093,0.08875 -0.21862,0.161414 -0.27904,0.161414 -0.0808,0 -0.10985,-0.04302 -0.10985,-0.163271 0,-0.107483 0.10784,-0.306555 0.31543,-0.582453 0.28202,-0.374791 0.31671,-0.451775 0.32756,-0.727245 0.006,-0.169447 -0.005,-0.37614 -0.0268,-0.459316 -0.0221,-0.08621 -0.082,-0.151142 -0.13939,-0.151142 -0.0554,0 -0.19123,0.123835 -0.30203,0.275342 -0.11086,0.15146 -0.191,0.279962 -0.1782,0.28563 0.0128,0.0064 -0.053,0.143363 -0.14617,0.306047 -0.0932,0.162637 -0.1694,0.332846 -0.1694,0.378221 0,0.04541 -0.0359,0.120183 -0.0797,0.166161 -0.0458,0.0481 -0.0797,0.194627 -0.0797,0.344277 0,0.180037 0.0232,0.260609 0.0753,0.260609 0.0414,0 0.0855,0.03778 0.0978,0.08398 0.0126,0.0462 0.0128,0.254433 7.7e-4,0.462746 -0.0206,0.357661 -0.0126,0.390334 0.1546,0.587771 0.097,0.114945 0.22423,0.208107 0.2827,0.206979 0.0585,-0.0011 0.16609,-0.04525 0.23917,-0.09811 0.0731,-0.05287 0.21179,-0.09716 0.30826,-0.09843 0.0964,-0.0013 0.23995,-0.04414 0.31889,-0.0951 0.079,-0.05096 0.22723,-0.114785 0.32955,-0.141934 0.10232,-0.02699 0.22189,-0.08748 0.26573,-0.134313 0.0438,-0.04684 0.2326,-0.118278 0.41944,-0.158858 0.18685,-0.04049 0.34357,-0.08208 0.34828,-0.09224 0.005,-0.0095 0.0492,-0.100656 0.0988,-0.200946 0.0496,-0.100338 0.0901,-0.229841 0.0901,-0.287758 0,-0.05795 0.0342,-0.121771 0.0757,-0.142092 0.0417,-0.02016 0.0915,-0.154635 0.11073,-0.298871 0.0192,-0.144157 0.0191,-0.353533 -2.6e-4,-0.46527 -0.0255,-0.147015 -0.0745,-0.214981 -0.17722,-0.245955 -0.0781,-0.0235 -0.17182,-0.07256 -0.20836,-0.10907 -0.0365,-0.03636 -0.0664,-0.12193 -0.0664,-0.189992 0,-0.06811 0.0418,-0.151301 0.093,-0.184816 0.0512,-0.0335 0.21013,-0.0824 0.35328,-0.108752 0.14314,-0.02635 0.29861,-0.07176 0.34547,-0.101132 0.0468,-0.02937 0.17061,-0.08732 0.275,-0.128757 0.10433,-0.04144 0.22308,-0.07541 0.26374,-0.07541 0.0407,0 0.12267,0.07668 0.18225,0.170273 0.1076,0.169178 0.11111,0.169797 0.5335,0.09637 0.28716,-0.04985 0.45108,-0.112563 0.50491,-0.193039 0.0438,-0.06557 0.15935,-0.188309 0.25668,-0.272787 0.14254,-0.123834 0.20046,-0.140028 0.29795,-0.08383 0.10283,0.05922 0.12518,0.135266 0.14869,0.505611 0.0175,0.274962 0.0644,0.498738 0.12723,0.606141 0.0547,0.09367 0.15045,0.200215 0.21264,0.236858 0.0621,0.03667 0.13395,0.04128 0.15944,0.0095 0.0255,-0.03096 0.10383,-0.06636 0.17393,-0.07875 0.0702,-0.0127 0.17203,-0.09811 0.22639,-0.19061 0.0544,-0.0924 0.10961,-0.238525 0.12266,-0.324607 0.0131,-0.08605 0.0389,-0.216838 0.0575,-0.290567 0.0185,-0.07382 0.13377,-0.18834 0.25614,-0.254671 0.19905,-0.107959 0.22916,-0.15527 0.28554,-0.448648 0.0346,-0.180434 0.0692,-0.439852 0.0767,-0.576483 0.008,-0.136695 -0.004,-0.269929 -0.0241,-0.29622 -0.0208,-0.02635 -0.0235,-0.439042 -0.006,-0.917252 0.0272,-0.746597 0.0186,-0.904201 -0.0618,-1.115181 -0.0513,-0.135107 -0.12354,-0.321336 -0.16025,-0.413752 -0.0368,-0.0924 -0.0835,-0.280359 -0.10383,-0.417657 -0.0203,-0.137329 -0.0704,-0.284661 -0.11112,-0.32748 -0.0408,-0.04287 -0.0742,-0.133519 -0.0742,-0.20166 0,-0.06811 -0.0536,-0.160096 -0.11914,-0.204439 -0.0655,-0.0443 -0.18005,-0.15881 -0.25452,-0.254401 -0.0744,-0.09558 -0.20395,-0.288647 -0.28775,-0.429041 -0.0837,-0.140346 -0.19818,-0.286265 -0.25418,-0.324161 -0.056,-0.03795 -0.23319,-0.112246 -0.39373,-0.16505 -0.16053,-0.05287 -0.39203,-0.15273 -0.51441,-0.221839 -0.12242,-0.06906 -0.3095,-0.145268 -0.41576,-0.169368 -0.11526,-0.02604 -0.27472,-0.140823 -0.39528,-0.284662 -0.19353,-0.230806 -0.21341,-0.23897 -0.47116,-0.193397 -0.14799,0.02616 -0.35279,0.04869 -0.45512,0.05006 -0.10232,0.0014 -0.3511,-0.0595 -0.55287,-0.135234 -0.28724,-0.107832 -0.38802,-0.120977 -0.46444,-0.06062 -0.0768,0.06065 -0.13457,0.05201 -0.27095,-0.04058 -0.14624,-0.09927 -0.26355,-0.111753 -0.75038,-0.07987 -0.47084,0.03083 -0.60045,0.01838 -0.70423,-0.0676 -0.0699,-0.05796 -0.1272,-0.132758 -0.1272,-0.166209 0,-0.03345 0.12558,-0.08048 0.27904,-0.104482 0.1569,-0.02454 0.34225,-0.01302 0.42345,0.02626 0.10609,0.05134 0.19076,0.04648 0.3189,-0.01829 0.10395,-0.05257 0.31409,-0.07846 0.51995,-0.06412 0.19001,0.01318 0.5966,0.0368 0.90355,0.05234 0.30693,0.01556 0.67765,0.0405 0.82381,0.05547 0.14616,0.01492 0.3423,0.07759 0.43584,0.139171 0.0935,0.06158 0.25359,0.111975 0.35562,0.111975 0.10208,0 0.20032,0.03025 0.21838,0.06721 0.0181,0.03696 0.10484,0.0672 0.19271,0.0672 0.0879,0 0.236,0.07101 0.32904,0.157826 0.093,0.08681 0.32896,0.206052 0.52421,0.265 0.19526,0.0589 0.45835,0.191738 0.58464,0.295061 0.1263,0.103355 0.30122,0.227666 0.3887,0.276295 0.0875,0.04858 0.21306,0.152571 0.27904,0.230936 0.066,0.07843 0.12002,0.179132 0.12002,0.223887 0,0.04477 0.0658,0.135425 0.14617,0.201407 0.0804,0.06604 0.23584,0.243399 0.34547,0.39416 0.11576,0.159223 0.19931,0.342324 0.19931,0.436867 0,0.08954 0.032,0.210504 0.0711,0.268865 0.0391,0.05842 0.1022,0.39343 0.14023,0.744597 0.038,0.351168 0.0878,0.804832 0.11048,1.008144 0.0227,0.203311 0.0433,0.556892 0.0458,0.785748 0.003,0.228857 -0.0195,0.434788 -0.0487,0.457634 -0.0293,0.02286 -0.0531,0.209599 -0.0531,0.415006 0,0.205407 -0.0403,0.516852 -0.0895,0.692094 -0.0584,0.207868 -0.14948,0.3706 -0.26206,0.468144 -0.0949,0.08224 -0.1969,0.237795 -0.22664,0.34569 -0.0298,0.107959 -0.0792,0.196167 -0.10998,0.196167 -0.0308,0 -0.0559,0.03683 -0.0559,0.08192 0,0.04509 -0.0777,0.166002 -0.17273,0.26869 -0.0951,0.102719 -0.19238,0.186768 -0.2164,0.186864 -0.024,7.9e-5 -0.0795,0.04556 -0.12342,0.100973 -0.0493,0.06239 -0.17968,0.100814 -0.34167,0.100814 -0.14407,0 -0.26195,0.02318 -0.26195,0.0516 0,0.02842 -0.14376,0.123835 -0.31948,0.212043 -0.28748,0.144316 -0.34161,0.152095 -0.54008,0.07684 -0.12128,-0.04588 -0.26376,-0.14892 -0.31654,-0.228841 -0.0527,-0.07986 -0.0968,-0.181577 -0.0977,-0.225951 -9.6e-4,-0.0443 -0.0335,-0.104784 -0.0722,-0.134472 -0.0388,-0.02953 -0.0859,-0.106689 -0.10458,-0.171369 -0.0198,-0.06827 -0.0889,-0.117643 -0.16438,-0.117643 -0.0935,0 -0.16439,0.07113 -0.25138,0.252036 -0.0667,0.1386 -0.2121,0.39008 -0.32324,0.558797 -0.11111,0.168733 -0.20206,0.353025 -0.20206,0.40956 0,0.05652 -0.10145,0.296537 -0.22548,0.533348 -0.12404,0.23681 -0.25396,0.453617 -0.28875,0.481781 -0.0348,0.02826 -0.10082,0.146221 -0.14657,0.262372 -0.0458,0.116055 -0.0832,0.23689 -0.0832,0.268356 0,0.03144 -0.11362,0.205805 -0.25245,0.387413 -0.13886,0.181609 -0.34814,0.467064 -0.46506,0.634368 -0.15685,0.224412 -0.2714,0.320796 -0.43682,0.367552 z m -36.395794,-0.03001 c -0.05847,0.01985 -0.155815,0.0095 -0.216335,-0.02175 -0.06051,-0.03191 -0.152239,-0.139394 -0.203817,-0.238938 -0.05888,-0.113674 -0.08171,-0.241796 -0.06134,-0.344388 0.01784,-0.08986 0.07367,-0.21587 0.124094,-0.28001 0.05041,-0.06414 0.145473,-0.20355 0.211247,-0.30981 0.08205,-0.132567 0.119586,-0.284455 0.119586,-0.48394 0,-0.2079 0.03149,-0.327861 0.110522,-0.42096 0.07911,-0.09319 0.113095,-0.222871 0.119586,-0.456284 0.0087,-0.31362 0.0034,-0.326337 -0.139836,-0.332909 -0.0819,-0.0032 -0.172912,-0.03715 -0.202253,-0.0743 -0.02934,-0.03715 -0.03773,-0.13987 -0.01864,-0.228412 0.01908,-0.08843 0.142452,-0.261165 0.274144,-0.38365 0.131692,-0.122565 0.296777,-0.25029 0.366858,-0.283979 0.07008,-0.03366 0.127421,-0.0943 0.127421,-0.134631 0,-0.04033 0.06556,-0.06382 0.145707,-0.05207 0.0974,0.01429 0.15124,0.06589 0.16239,0.155746 0.009,0.07398 0.0532,0.2879 0.0978,0.475463 0.077,0.323844 0.0755,0.353596 -0.0295,0.590137 -0.0609,0.137012 -0.11063,0.286408 -0.11063,0.332052 0,0.04557 -0.049,0.198533 -0.10886,0.3398 -0.0599,0.141299 -0.10174,0.31173 -0.093,0.378792 0.009,0.067 -0.0517,0.201216 -0.134287,0.298093 -0.127114,0.149078 -0.14449,0.209392 -0.113334,0.393112 0.02024,0.11939 0.04899,0.243002 0.06388,0.274803 0.01489,0.03175 0.10383,0.04207 0.197621,0.02286 0.0938,-0.01921 0.20074,-0.01111 0.23765,0.01746 0.0419,0.0327 0.12569,-0.02 0.22316,-0.140505 0.11228,-0.138758 0.20874,-0.192881 0.34393,-0.192881 0.16308,0 0.18565,0.01937 0.1709,0.147332 -0.0118,0.102243 -0.11454,0.21171 -0.33588,0.357915 -0.17539,0.115897 -0.43848,0.26334 -0.58464,0.327702 -0.146161,0.0643 -0.349458,0.142887 -0.45177,0.174544 -0.102311,0.03159 -0.233858,0.07382 -0.292323,0.09367 z m 2.773604,-0.02921 c -0.0346,-0.0016 -0.11679,-0.05096 -0.18257,-0.10907 -0.0658,-0.05811 -0.11958,-0.143521 -0.11958,-0.18988 0,-0.04636 -0.0359,-0.122089 -0.0797,-0.168051 -0.0439,-0.04604 -0.0797,-0.185815 -0.0797,-0.310682 0,-0.13733 -0.042,-0.280058 -0.10631,-0.361424 -0.0585,-0.07398 -0.1063,-0.178116 -0.1063,-0.231523 0,-0.05335 0.10762,-0.224682 0.23917,-0.380587 0.13155,-0.155905 0.23917,-0.32432 0.23917,-0.374219 0,-0.04985 0.13155,-0.169511 0.29233,-0.265785 0.16078,-0.09621 0.29233,-0.214933 0.29233,-0.263737 0,-0.04874 0.0897,-0.19623 0.19931,-0.327638 0.10961,-0.131456 0.27821,-0.257942 0.37465,-0.281169 0.0964,-0.02318 0.21403,-0.09113 0.26131,-0.150983 0.0473,-0.05985 0.20563,-0.124153 0.35189,-0.143046 0.24752,-0.03207 0.26737,-0.04826 0.28696,-0.23508 0.0116,-0.11034 0.0801,-0.337847 0.15227,-0.505532 0.10041,-0.23327 0.19187,-0.340054 0.38938,-0.454633 0.15978,-0.09272 0.36155,-0.149713 0.52952,-0.149713 0.26288,0 0.28195,0.0127 0.6101,0.430469 0.25003,0.317732 0.34847,0.496023 0.37589,0.680838 0.0339,0.228269 0.0213,0.266912 -0.14225,0.437392 -0.15987,0.166637 -0.18685,0.245002 -0.24781,0.719687 -0.0376,0.292981 -0.0605,0.608982 -0.0508,0.702223 0.01,0.09319 -0.015,0.219125 -0.0547,0.279709 -0.0398,0.06065 -0.12562,0.110181 -0.1908,0.110181 -0.0652,0 -0.19977,0.07525 -0.2991,0.167161 -0.0993,0.09192 -0.24326,0.199375 -0.31984,0.238764 -0.0766,0.03937 -0.23097,0.243923 -0.34306,0.454537 -0.11209,0.210599 -0.21165,0.39651 -0.22124,0.413101 -0.01,0.01667 -0.21397,0.03731 -0.45418,0.04604 -0.24022,0.0079 -0.61752,0.03144 -0.83844,0.05065 -0.22093,0.01905 -0.46764,0.06652 -0.54824,0.10526 -0.0806,0.03874 -0.1749,0.0689 -0.20954,0.067 z m 1.10631,-0.711067 c 0.0585,-0.02 0.17805,-0.05668 0.26575,-0.08145 0.0877,-0.02477 0.29221,-0.15527 0.45448,-0.290091 0.16227,-0.13479 0.38703,-0.293759 0.49947,-0.353168 0.11245,-0.05938 0.23603,-0.16062 0.27464,-0.224919 0.0386,-0.0643 0.0709,-0.231286 0.0719,-0.371092 9.3e-4,-0.13987 0.0376,-0.362773 0.0814,-0.495483 0.0438,-0.132725 0.0797,-0.327845 0.0797,-0.433644 0,-0.117008 -0.0572,-0.269786 -0.14616,-0.390207 -0.0804,-0.108753 -0.22061,-0.216632 -0.3116,-0.239605 -0.14964,-0.03779 -0.1738,-0.01953 -0.25306,0.191738 -0.0482,0.128439 -0.19799,0.356359 -0.33289,0.506516 -0.1349,0.15019 -0.36782,0.351231 -0.51761,0.446838 -0.14978,0.09558 -0.33365,0.215917 -0.40858,0.267372 -0.0749,0.05144 -0.18052,0.155429 -0.23462,0.231 -0.0541,0.07557 -0.10707,0.23543 -0.1177,0.355184 -0.0107,0.119707 0.0213,0.324226 0.0711,0.454363 0.0497,0.130186 0.16401,0.287567 0.25395,0.349818 0.09,0.06223 0.21137,0.09684 0.26983,0.07668 z m -28.257693,0.112087 c -0.118645,0.077 -0.120151,0.0751 -0.03239,-0.04096 0.05047,-0.06684 0.106341,-0.103037 0.124169,-0.08049 0.01783,0.02255 -0.02348,0.07716 -0.09178,0.121454 z m 49.336523,-0.0095 c -0.0758,-0.0048 -0.17978,-0.02159 -0.23094,-0.03858 -0.0599,-0.01985 -0.093,-0.09605 -0.093,-0.213996 0,-0.100815 0.0267,-0.217013 0.0593,-0.25826 0.0326,-0.04128 0.0914,-0.145585 0.13063,-0.231873 0.0392,-0.08621 0.12616,-0.292965 0.19316,-0.459316 0.0671,-0.166336 0.13976,-0.312525 0.16168,-0.324845 0.022,-0.0127 0.0399,-0.05795 0.0399,-0.101449 0,-0.0435 0.0472,-0.116373 0.10483,-0.161843 0.0576,-0.04556 0.15433,-0.211583 0.21481,-0.369012 0.0605,-0.157493 0.13548,-0.407211 0.16666,-0.555066 0.0311,-0.147809 0.0601,-0.365552 0.0643,-0.48375 0.004,-0.118279 0.0374,-0.252798 0.0739,-0.299094 0.0365,-0.04636 0.0664,-0.134948 0.0664,-0.196913 0,-0.06208 -0.0343,-0.148761 -0.0763,-0.192833 -0.0419,-0.04398 -0.16421,-0.09034 -0.27163,-0.103037 -0.10747,-0.0127 -0.21581,-0.0489 -0.24084,-0.08049 -0.025,-0.03159 -0.0315,-0.125105 -0.0144,-0.20763 0.0171,-0.08256 0.0531,-0.150031 0.0802,-0.150031 0.027,0 0.10056,-0.06049 0.16326,-0.134472 0.0628,-0.07398 0.1634,-0.136694 0.22367,-0.139552 0.0603,-0.0032 0.1574,-0.02143 0.21586,-0.04128 0.0585,-0.01985 0.21531,-0.05033 0.34856,-0.06763 0.17055,-0.02223 0.26106,-0.0032 0.30573,0.06509 0.0349,0.05319 0.0955,0.214489 0.13485,0.358471 0.0466,0.171035 0.10822,0.268737 0.17773,0.281899 0.0834,0.01588 0.13048,-0.05334 0.21788,-0.319256 0.0919,-0.279772 0.13489,-0.339371 0.24461,-0.339371 0.0732,0 0.19759,-0.07557 0.27645,-0.168019 0.0788,-0.0924 0.18587,-0.168019 0.23784,-0.168019 0.052,0 0.16737,-0.07763 0.25648,-0.172416 0.0891,-0.09478 0.22848,-0.182085 0.30969,-0.193929 0.0812,-0.01111 0.18951,0.02508 0.24066,0.08208 0.0512,0.05699 0.093,0.153206 0.093,0.214091 0,0.06081 0.0225,0.139235 0.05,0.174401 0.0313,0.04001 0.009,0.227412 -0.0593,0.500722 -0.0732,0.292568 -0.16729,0.506247 -0.28494,0.646974 -0.0967,0.115579 -0.21016,0.339101 -0.25231,0.496753 -0.0426,0.159001 -0.12969,0.322558 -0.19581,0.367297 -0.0655,0.04445 -0.17844,0.06636 -0.25086,0.0489 -0.0724,-0.01746 -0.14339,-0.07049 -0.15771,-0.117643 -0.0143,-0.04715 0.0277,-0.164097 0.0935,-0.259768 0.0658,-0.09558 0.14881,-0.281422 0.18453,-0.412799 0.0365,-0.134313 0.0482,-0.318303 0.0269,-0.420229 -0.0265,-0.126534 -0.0781,-0.187435 -0.17022,-0.201374 -0.0814,-0.0127 -0.1833,0.04001 -0.26519,0.135901 -0.0732,0.08573 -0.14688,0.201597 -0.16384,0.257465 -0.0169,0.05588 -0.12812,0.161065 -0.24706,0.233762 -0.16512,0.100973 -0.23628,0.198311 -0.30104,0.411974 -0.0467,0.153841 -0.14009,0.350484 -0.20766,0.436867 -0.0675,0.08637 -0.16477,0.262911 -0.21601,0.392287 -0.0512,0.129392 -0.14856,0.297442 -0.2163,0.373474 -0.0678,0.07605 -0.15835,0.257497 -0.20137,0.403257 -0.0431,0.145744 -0.0928,0.310381 -0.1106,0.365821 -0.0178,0.05541 -0.0784,0.191547 -0.13458,0.302443 -0.0563,0.110975 -0.15378,0.330179 -0.21676,0.487275 -0.063,0.157175 -0.14456,0.285646 -0.18127,0.285646 -0.0367,0 -0.10998,0.06049 -0.16294,0.134472 -0.0536,0.07494 -0.15732,0.130979 -0.23413,0.126692 z m -24.18808,-0.328283 c -0.039,0 -0.0549,-0.02016 -0.0354,-0.04477 0.0195,-0.02461 0.0514,-0.02461 0.0709,0 0.0195,0.02461 0.004,0.04477 -0.0354,0.04477 z m 1.05137,-0.202644 c -0.021,5.55e-4 -0.025,-0.04239 -0.009,-0.09558 0.0161,-0.05318 0.0652,-0.07922 0.10909,-0.05779 0.0649,0.03144 0.0666,0.04937 0.009,0.09558 -0.039,0.03128 -0.0881,0.05731 -0.10909,0.05795 z m 20.11302,10e-4 c -0.0601,0 -0.17711,-0.103831 -0.25981,-0.230667 -0.0827,-0.126851 -0.21932,-0.263816 -0.30362,-0.304348 -0.12391,-0.05954 -0.17123,-0.05318 -0.24704,0.03366 -0.0792,0.09065 -0.11111,0.09367 -0.20516,0.01937 -0.0613,-0.04842 -0.11149,-0.133678 -0.11174,-0.18942 -1.9e-4,-0.05573 -0.0478,-0.192182 -0.10597,-0.303078 -0.0581,-0.110975 -0.10571,-0.252226 -0.10596,-0.31408 -1.9e-4,-0.06192 0.055,-0.197962 0.12279,-0.302443 0.0677,-0.104466 0.17532,-0.319463 0.23917,-0.477702 0.0639,-0.158286 0.11613,-0.344943 0.11613,-0.414894 0,-0.07002 0.0598,-0.217061 0.13287,-0.326893 0.0731,-0.109864 0.13289,-0.231619 0.13289,-0.270643 0,-0.03905 0.0299,-0.0951 0.0664,-0.124787 0.0365,-0.02953 0.0922,-0.114309 0.12354,-0.188166 0.0314,-0.07398 0.12968,-0.181418 0.21837,-0.238858 0.0886,-0.05747 0.26627,-0.207487 0.39464,-0.333434 0.12837,-0.125899 0.30346,-0.313016 0.38907,-0.41572 0.0856,-0.10272 0.2049,-0.206487 0.26506,-0.230635 0.0601,-0.02413 0.1934,-0.113515 0.29609,-0.198501 0.1027,-0.0851 0.27043,-0.161763 0.37274,-0.170511 0.10232,-0.0095 0.26192,-0.01111 0.35468,-0.0032 0.0928,0.0063 0.24225,0.09034 0.33219,0.18607 0.0899,0.09573 0.16353,0.234191 0.16353,0.30773 0,0.07351 -0.14713,0.361423 -0.32696,0.639702 -0.17982,0.27828 -0.40105,0.562386 -0.49162,0.631336 -0.0905,0.0689 -0.22308,0.179132 -0.29446,0.244844 -0.0714,0.06573 -0.25076,0.262292 -0.39862,0.436804 -0.14787,0.174528 -0.30104,0.318176 -0.34038,0.31924 -0.0393,0.0011 -0.1463,0.07002 -0.23771,0.153206 -0.0914,0.08319 -0.25056,0.183117 -0.35368,0.222093 -0.16503,0.06239 -0.18545,0.09415 -0.17057,0.265007 0.009,0.106848 0.0401,0.248797 0.0683,0.315589 0.034,0.08033 0.11224,0.121453 0.23125,0.121453 0.0989,0 0.25231,0.05255 0.34086,0.11685 0.13482,0.0978 0.18811,0.103989 0.32756,0.03731 0.10345,-0.04937 0.2119,-0.05763 0.2862,-0.02191 0.0658,0.03159 0.33449,0.07875 0.59705,0.104783 0.42358,0.04191 0.50188,0.03144 0.6946,-0.09288 0.17733,-0.114468 0.22789,-0.123835 0.27538,-0.05144 0.0434,0.0662 0.0346,0.114785 -0.0346,0.191991 -0.0511,0.05684 -0.23083,0.195596 -0.39948,0.308302 -0.28116,0.18788 -0.36515,0.208757 -1.00985,0.250956 -0.54758,0.03588 -0.73985,0.07398 -0.8689,0.172369 -0.0911,0.06954 -0.21497,0.126375 -0.27517,0.126375 z m -0.16123,-2.150696 c 0.0343,0 0.10609,-0.05017 0.15982,-0.11161 0.0536,-0.06144 0.14072,-0.144633 0.19347,-0.184816 0.0527,-0.04032 0.18336,-0.14368 0.29024,-0.229761 0.10685,-0.08605 0.24489,-0.260022 0.30667,-0.38646 0.0618,-0.126375 0.13433,-0.229873 0.16117,-0.229873 0.0269,0 0.0488,-0.04176 0.0488,-0.09272 0,-0.05096 0.0686,-0.128598 0.15234,-0.172464 0.0837,-0.04382 0.18182,-0.149396 0.21784,-0.234556 0.036,-0.0851 0.057,-0.210901 0.0465,-0.279518 -0.0101,-0.06859 -0.0746,-0.159779 -0.14243,-0.202565 -0.0908,-0.05716 -0.16413,-0.05842 -0.27725,-0.0048 -0.10345,0.04937 -0.18064,0.158127 -0.23559,0.331814 -0.0465,0.146697 -0.14944,0.307491 -0.23827,0.371965 -0.0861,0.06239 -0.19701,0.227158 -0.24652,0.365996 -0.0495,0.138758 -0.11036,0.252417 -0.13509,0.252417 -0.0247,0 -0.0451,0.03969 -0.0451,0.08811 0,0.04842 -0.0717,0.15527 -0.15945,0.237239 -0.10232,0.09558 -0.15945,0.208567 -0.15945,0.315081 0,0.09129 0.028,0.166018 0.0623,0.166018 z m -4.01457,0.402226 c -0.0333,-5.72e-4 -0.0963,-0.03144 -0.14019,-0.06859 -0.068,-0.05763 -0.0614,-0.087 0.0457,-0.200612 0.0691,-0.07319 0.17969,-0.133044 0.24595,-0.133044 0.0663,0 0.15127,-0.04699 0.18889,-0.104307 0.0412,-0.06271 0.13209,-0.09621 0.2283,-0.08399 0.0879,0.01111 0.16878,0.05461 0.17965,0.09653 0.0113,0.04191 -0.13945,0.170479 -0.33405,0.285645 -0.19461,0.115103 -0.38104,0.208916 -0.4143,0.208345 z m 1.11034,-0.603838 c -0.0412,0 -0.0906,-0.03207 -0.10986,-0.07144 -0.0192,-0.03937 0.008,-0.130026 0.0583,-0.201628 0.0512,-0.0716 0.11776,-0.130186 0.14787,-0.130186 0.0301,0 0.16391,-0.06366 0.29738,-0.141457 0.13346,-0.07779 0.3503,-0.206313 0.48183,-0.285646 0.13156,-0.07938 0.30679,-0.212282 0.38942,-0.295458 0.0826,-0.08319 0.19026,-0.151777 0.23917,-0.152571 0.049,-6.98e-4 0.18434,-0.10653 0.30095,-0.235223 0.11663,-0.128756 0.23176,-0.233952 0.25589,-0.233952 0.0241,0 0.1081,-0.09605 0.18661,-0.213298 0.0785,-0.117326 0.18458,-0.299522 0.23573,-0.404893 0.0512,-0.105418 0.0927,-0.319383 0.0922,-0.475589 -7.1e-4,-0.218521 -0.0332,-0.322749 -0.14088,-0.452046 -0.077,-0.0924 -0.16028,-0.171797 -0.1851,-0.176417 -0.0249,-0.0048 -0.0691,-0.0127 -0.0983,-0.01683 -0.0293,-0.0048 -0.0531,-0.119548 -0.0531,-0.255433 0,-0.215028 0.0423,-0.298156 0.32679,-0.641465 0.17972,-0.216933 0.36949,-0.423341 0.42169,-0.458666 0.0522,-0.0354 0.18923,-0.0643 0.30451,-0.0643 0.18995,0 0.23258,0.0354 0.45526,0.377379 0.21549,0.331004 0.2454,0.415656 0.24338,0.688903 -10e-4,0.21017 -0.0451,0.398987 -0.13371,0.580357 -0.0723,0.147808 -0.14607,0.32313 -0.16397,0.389493 -0.018,0.06636 -0.12518,0.180386 -0.23833,0.253401 -0.11312,0.07303 -0.20578,0.176528 -0.20578,0.230047 0,0.0535 -0.0576,0.13606 -0.12807,0.183466 -0.0704,0.04731 -0.27972,0.267928 -0.46507,0.490101 -0.18533,0.222173 -0.42069,0.483845 -0.523,0.5815 -0.10232,0.09764 -0.29826,0.256116 -0.43542,0.352152 -0.13717,0.09605 -0.32144,0.174623 -0.40949,0.174623 -0.0999,0 -0.21006,0.06319 -0.29297,0.168019 -0.0731,0.0924 -0.19302,0.168018 -0.26655,0.168018 -0.0736,0 -0.21884,0.06049 -0.32292,0.134472 -0.10408,0.07398 -0.22301,0.134472 -0.26424,0.134472 z m -24.207982,-0.94094 c -0.02751,0 -0.0648,-0.03016 -0.08286,-0.06716 -0.01807,-0.03699 0.0044,-0.06716 0.05001,-0.06716 0.04557,0 0.08286,0.03032 0.08286,0.06716 0,0.03699 -0.02251,0.06716 -0.05002,0.06716 z m 6.273632,-1.478605 c -0.0287,0 -0.0895,-0.06716 -0.13499,-0.149395 -0.0455,-0.08208 -0.0827,-0.228841 -0.0827,-0.325956 0,-0.09716 0.0678,-0.294553 0.15059,-0.438709 0.0828,-0.144157 0.18684,-0.299855 0.23116,-0.34596 0.0443,-0.04604 0.20771,-0.114309 0.36311,-0.151618 0.24272,-0.05827 0.29699,-0.05128 0.38499,0.04953 0.0564,0.06446 0.12487,0.170226 0.15228,0.235001 0.0343,0.08113 0.0236,0.181815 -0.0343,0.323447 -0.0463,0.113198 -0.12473,0.22484 -0.17435,0.248226 -0.0496,0.02334 -0.12149,0.09748 -0.15969,0.164558 -0.0382,0.06716 -0.10492,0.122088 -0.14827,0.122088 -0.0434,0 -0.1726,0.06049 -0.2872,0.134472 -0.1146,0.07398 -0.23187,0.134472 -0.26061,0.134472 z m 43.02195,-2.285135 c -0.0391,0 -0.085,-0.04652 -0.1022,-0.103355 -0.0183,-0.06033 0.004,-0.120342 0.0529,-0.144156 0.0463,-0.02255 0.10408,-9.6e-5 0.12846,0.04969 0.0244,0.04985 0.0325,0.114786 0.0181,0.144157 -0.0144,0.02953 -0.0581,0.05366 -0.0972,0.05366 z m -13.29384,-0.638242 c -0.17755,0.01905 -0.33879,0.01429 -0.35834,-0.0095 -0.0196,-0.02477 -0.15368,-0.03969 -0.29805,-0.03318 -0.14438,0.0064 -0.27751,-0.01889 -0.29587,-0.05652 -0.0183,-0.03763 -0.13361,-0.06874 -0.25612,-0.06922 -0.12254,-5.39e-4 -0.32962,-0.04795 -0.46024,-0.105577 -0.13927,-0.06128 -0.30831,-0.0878 -0.40873,-0.06398 -0.11927,0.02826 -0.23238,-8.26e-4 -0.37293,-0.09605 -0.11099,-0.07525 -0.27104,-0.136694 -0.35579,-0.136694 -0.0847,0 -0.24728,-0.03525 -0.3612,-0.07843 -0.11388,-0.04318 -0.26716,-0.154318 -0.34051,-0.247114 -0.10558,-0.133361 -0.12673,-0.21179 -0.10157,-0.375189 0.0175,-0.113674 0.0588,-0.275405 0.0917,-0.359581 0.0329,-0.08414 0.12115,-0.170337 0.1962,-0.191484 0.0751,-0.02111 0.25696,-0.09319 0.40429,-0.159985 0.18567,-0.0843 0.29576,-0.101767 0.35876,-0.05716 0.05,0.0354 0.0909,0.123676 0.0909,0.19631 0,0.07256 -0.0281,0.188944 -0.0625,0.258545 -0.0531,0.107483 -0.039,0.152413 0.093,0.297601 0.0855,0.09415 0.25118,0.221443 0.36812,0.283027 0.11688,0.0616 0.27961,0.156698 0.36151,0.211424 0.0819,0.05461 0.18728,0.08081 0.23418,0.05811 0.047,-0.0227 0.1969,0.0048 0.33336,0.06287 0.15099,0.0635 0.48918,0.11161 0.86409,0.123359 0.34497,0.01111 0.64723,0.0516 0.68701,0.09288 0.039,0.04048 0.13081,0.08256 0.20389,0.09319 0.0731,0.01111 0.20942,-0.03175 0.30298,-0.09431 0.10019,-0.067 0.2902,-0.113833 0.46255,-0.113833 0.16085,0 0.35339,0.03509 0.42784,0.07795 0.0744,0.04287 0.13536,0.116056 0.13536,0.162462 0,0.04715 -0.12329,0.118913 -0.27903,0.162621 -0.15346,0.04303 -0.51821,0.09065 -0.81053,0.105895 -0.29231,0.01588 -0.67675,0.04334 -0.8543,0.06239 z m -2.0955,-1.895183 c -0.0438,0.01985 -0.10961,0.0208 -0.14616,0.0016 -0.0365,-0.01858 -0.0664,-0.05747 -0.0664,-0.08637 0,-0.0289 0.063,-0.13225 0.14011,-0.229635 0.0964,-0.121929 0.19648,-0.177195 0.32061,-0.177195 0.0993,0 0.25839,-0.04112 0.3536,-0.09145 0.0952,-0.05033 0.33337,-0.113198 0.52923,-0.139711 0.19585,-0.02651 0.36973,-0.07605 0.38638,-0.110182 0.0167,-0.03413 0.0826,-0.06319 0.14673,-0.06493 0.064,-0.0016 0.20898,-0.04461 0.32207,-0.09558 0.11312,-0.05096 0.23866,-0.07668 0.27904,-0.057 0.0404,0.01953 0.0734,0.06271 0.0734,0.09558 0,0.03302 -0.0461,0.118278 -0.10232,0.189356 -0.0562,0.07113 -0.15035,0.161858 -0.2091,0.201629 -0.0588,0.03969 -0.1907,0.07224 -0.29321,0.07224 -0.10245,0 -0.19963,0.02715 -0.2158,0.06017 -0.0162,0.03302 -0.22687,0.08192 -0.4682,0.108435 -0.24132,0.02651 -0.48605,0.07986 -0.54382,0.118437 -0.0577,0.03858 -0.17736,0.09208 -0.26575,0.119072 -0.0884,0.02699 -0.19658,0.06509 -0.24043,0.08494 z m 2.54805,-0.961467 c -0.0275,0 -0.05,-0.03017 -0.05,-0.06716 0,-0.03699 0.0373,-0.06716 0.0829,-0.06716 0.0456,0 0.068,0.03017 0.05,0.06716 -0.0181,0.03699 -0.0554,0.06716 -0.0829,0.06716 z m 0.63821,-0.07557 c -0.29861,0.0079 -0.31662,5.71e-4 -0.26647,-0.117961 0.0296,-0.0699 0.12015,-0.148522 0.20134,-0.174715 0.0811,-0.0262 0.43457,-0.09145 0.78536,-0.144998 0.35078,-0.05355 0.70895,-0.10364 0.79592,-0.111325 0.10835,-0.0095 0.16345,0.01983 0.17505,0.09332 0.0133,0.08457 -0.0616,0.123692 -0.35437,0.184825 -0.20424,0.04264 -0.47434,0.07851 -0.60026,0.07968 -0.12591,0.0012 -0.2711,0.04261 -0.32262,0.09205 -0.0515,0.04938 -0.23781,0.09399 -0.41395,0.09907 z m 1.97319,-0.193249 c -0.0197,0 -0.0645,-0.03629 -0.0996,-0.08065 -0.035,-0.04436 -0.0638,-0.119961 -0.0638,-0.168023 0,-0.04806 0.0582,-0.08737 0.12942,-0.08737 0.0712,0 0.19674,-0.03439 0.27903,-0.07641 0.0822,-0.04202 0.24529,-0.09821 0.36222,-0.124867 0.11689,-0.02664 0.2479,-0.06031 0.29105,-0.07481 0.049,-0.01645 0.0854,0.0305 0.0967,0.124851 0.0126,0.103593 -0.009,0.151222 -0.067,0.151222 -0.047,0 -0.14319,0.04798 -0.21395,0.106609 -0.0708,0.05863 -0.15108,0.08908 -0.17849,0.06767 -0.0274,-0.02142 -0.15105,0.0062 -0.27477,0.06142 -0.12366,0.0552 -0.24106,0.100354 -0.26078,0.100354 z"
       id="path2" /></g></svg>
