<?xml version="1.0" encoding="UTF-8" standalone="no"?>
<!-- Created with Inkscape (http://www.inkscape.org/) -->

<svg
   width="210mm"
   height="297mm"
   viewBox="0 0 210.00001 297"
   version="1.1"
   id="svg5"
   inkscape:version="1.3.2 (091e20ef0f, 2023-11-25, custom)"
   sodipodi:docname="cover_general_preface.svg"
   xml:space="preserve"
   xmlns:inkscape="http://www.inkscape.org/namespaces/inkscape"
   xmlns:sodipodi="http://sodipodi.sourceforge.net/DTD/sodipodi-0.dtd"
   xmlns="http://www.w3.org/2000/svg"
   xmlns:svg="http://www.w3.org/2000/svg"><sodipodi:namedview
     id="namedview7"
     pagecolor="#ffffff"
     bordercolor="#000000"
     borderopacity="1"
     inkscape:showpageshadow="0"
     inkscape:pageopacity="1"
     inkscape:pagecheckerboard="0"
     inkscape:deskcolor="#ffffff"
     inkscape:document-units="mm"
     showgrid="false"
     inkscape:zoom="0.83601195"
     inkscape:cx="263.75221"
     inkscape:cy="688.98537"
     inkscape:window-width="1920"
     inkscape:window-height="1017"
     inkscape:window-x="0"
     inkscape:window-y="1015"
     inkscape:window-maximized="1"
     inkscape:current-layer="layer3"
     showguides="true"><inkscape:grid
       type="xygrid"
       id="grid132"
       originx="0"
       originy="17.455399"
       spacingy="1"
       spacingx="1"
       units="mm"
       visible="false" /></sodipodi:namedview><defs
     id="defs2"><clipPath
       clipPathUnits="userSpaceOnUse"
       id="clipPath12"><path
         d="M 0,0 H 27.566244 V 31.50001 H 0 Z"
         transform="matrix(0.99999998,0,0,-0.99999998,-8.3502838,0.096022)"
         id="path12-3" /></clipPath><clipPath
       clipPathUnits="userSpaceOnUse"
       id="clipPath13"><path
         d="M 0,0 H 27.566244 V 31.50001 H 0 Z"
         transform="matrix(0.99999998,0,0,-0.99999998,-9.7235758,9.0960218)"
         id="path13-6" /></clipPath><clipPath
       clipPathUnits="userSpaceOnUse"
       id="clipPath14"><path
         d="M 0,0 H 27.566244 V 31.50001 H 0 Z"
         transform="matrix(0.99999998,0,0,-0.99999998,0,31.500009)"
         id="path14-7" /></clipPath><clipPath
       clipPathUnits="userSpaceOnUse"
       id="clipPath15"><path
         d="M 0,0 H 27.566244 V 31.50001 H 0 Z"
         transform="matrix(0.99999998,0,0,-0.99999998,0,31.500009)"
         id="path15-5" /></clipPath><clipPath
       clipPathUnits="userSpaceOnUse"
       id="clipPath16"><path
         d="M 0,0 H 27.566244 V 31.50001 H 0 Z"
         transform="matrix(0.99999998,0,0,-0.99999998,0,31.500009)"
         id="path16-3" /></clipPath><clipPath
       clipPathUnits="userSpaceOnUse"
       id="clipPath17"><path
         d="M 0,0 H 27.566244 V 31.50001 H 0 Z"
         transform="matrix(0.99999998,0,0,-0.99999998,0,31.500009)"
         id="path17-5" /></clipPath><clipPath
       clipPathUnits="userSpaceOnUse"
       id="clipPath18"><path
         d="M 0,0 H 27.566244 V 31.50001 H 0 Z"
         transform="matrix(0.99999998,0,0,-0.99999998,0,31.500009)"
         id="path18-6" /></clipPath><clipPath
       clipPathUnits="userSpaceOnUse"
       id="clipPath19"><path
         d="M 0,0 H 27.566244 V 31.50001 H 0 Z"
         transform="matrix(0.99999998,0,0,-0.99999998,0,31.500009)"
         id="path19-2" /></clipPath><clipPath
       clipPathUnits="userSpaceOnUse"
       id="clipPath20"><path
         d="M 0,0 H 27.566244 V 31.50001 H 0 Z"
         transform="matrix(0.99999998,0,0,-0.99999998,0,31.500009)"
         id="path20-9" /></clipPath><clipPath
       clipPathUnits="userSpaceOnUse"
       id="clipPath21"><path
         d="M 0,0 H 27.566244 V 31.50001 H 0 Z"
         transform="matrix(0.99999998,0,0,-0.99999998,-9.7235758,18.096004)"
         id="path21-1" /></clipPath><clipPath
       clipPathUnits="userSpaceOnUse"
       id="clipPath9"><path
         d="M 0,0 H 27.566244 V 31.50001 H 0 Z"
         transform="matrix(0.99999998,0,0,-0.99999998,-8.3502838,0.096022)"
         id="path9" /></clipPath><clipPath
       clipPathUnits="userSpaceOnUse"
       id="clipPath10"><path
         d="M 0,0 H 27.566244 V 31.50001 H 0 Z"
         transform="matrix(0.99999998,0,0,-0.99999998,-9.7235758,9.0960218)"
         id="path10" /></clipPath><clipPath
       clipPathUnits="userSpaceOnUse"
       id="clipPath11"><path
         d="M 0,0 H 27.566244 V 31.50001 H 0 Z"
         transform="matrix(0.99999998,0,0,-0.99999998,0,31.500009)"
         id="path11" /></clipPath><clipPath
       clipPathUnits="userSpaceOnUse"
       id="clipPath12-2"><path
         d="M 0,0 H 27.566244 V 31.50001 H 0 Z"
         transform="matrix(0.99999998,0,0,-0.99999998,0,31.500009)"
         id="path12" /></clipPath><clipPath
       clipPathUnits="userSpaceOnUse"
       id="clipPath13-8"><path
         d="M 0,0 H 27.566244 V 31.50001 H 0 Z"
         transform="matrix(0.99999998,0,0,-0.99999998,0,31.500009)"
         id="path13" /></clipPath><clipPath
       clipPathUnits="userSpaceOnUse"
       id="clipPath14-9"><path
         d="M 0,0 H 27.566244 V 31.50001 H 0 Z"
         transform="matrix(0.99999998,0,0,-0.99999998,0,31.500009)"
         id="path14" /></clipPath><clipPath
       clipPathUnits="userSpaceOnUse"
       id="clipPath15-7"><path
         d="M 0,0 H 27.566244 V 31.50001 H 0 Z"
         transform="matrix(0.99999998,0,0,-0.99999998,0,31.500009)"
         id="path15" /></clipPath><clipPath
       clipPathUnits="userSpaceOnUse"
       id="clipPath16-3"><path
         d="M 0,0 H 27.566244 V 31.50001 H 0 Z"
         transform="matrix(0.99999998,0,0,-0.99999998,0,31.500009)"
         id="path16" /></clipPath><clipPath
       clipPathUnits="userSpaceOnUse"
       id="clipPath17-6"><path
         d="M 0,0 H 27.566244 V 31.50001 H 0 Z"
         transform="matrix(0.99999998,0,0,-0.99999998,0,31.500009)"
         id="path17" /></clipPath><clipPath
       clipPathUnits="userSpaceOnUse"
       id="clipPath18-1"><path
         d="M 0,0 H 27.566244 V 31.50001 H 0 Z"
         transform="matrix(0.99999998,0,0,-0.99999998,-9.7235758,18.096004)"
         id="path18" /></clipPath></defs><g
     inkscape:groupmode="layer"
     id="layer3"
     inkscape:label="Cover"
     style="display:inline"
     transform="translate(0,-6.2799988)"><rect
       style="font-variation-settings:normal;opacity:1;vector-effect:none;fill:#0088aa;fill-opacity:1;fill-rule:evenodd;stroke:none;stroke-width:2.43108;stroke-linecap:butt;stroke-linejoin:miter;stroke-miterlimit:4;stroke-dasharray:none;stroke-dashoffset:0;stroke-opacity:1;-inkscape-stroke:none;stop-color:#000000;stop-opacity:1"
       id="rect1"
       width="212"
       height="299"
       x="-1"
       y="5.2799902" /><text
       xml:space="preserve"
       style="font-size:4.9389px;line-height:1.25;font-family:Arial;-inkscape-font-specification:Arial;letter-spacing:0.0529167px;display:inline;fill:#ffffff;stroke-width:0.264583"
       x="22.87627"
       y="117.56102"
       id="text2"><tspan
         sodipodi:role="line"
         id="tspan2"
         style="font-style:normal;font-variant:normal;font-weight:500;font-stretch:normal;font-family:'Source Sans 3';-inkscape-font-specification:'Source Sans 3 Medium';letter-spacing:0.0529167px;fill:#ffffff;stroke-width:0.264583"
         x="22.87627"
         y="117.56102">Gregor Joseph</tspan></text><text
       xml:space="preserve"
       style="font-style:normal;font-variant:normal;font-weight:600;font-stretch:normal;font-size:4.9389px;line-height:1.25;font-family:'Source Sans 3';-inkscape-font-specification:'Source Sans 3 Semi-Bold';letter-spacing:0.0529167px;display:inline;fill:#ffffff;stroke-width:0.264583"
       x="22.87627"
       y="123.82612"
       id="text2-3"><tspan
         sodipodi:role="line"
         id="tspan2-1"
         style="font-style:normal;font-variant:normal;font-weight:bold;font-stretch:normal;font-family:'Source Sans 3';-inkscape-font-specification:'Source Sans 3 Bold';letter-spacing:0.0529167px;fill:#ffffff;stroke-width:0.264583"
         x="22.87627"
         y="123.82612">Werner</tspan></text><g
       id="g5"
       transform="matrix(1.75,0,0,1.75,-632.6027,205.40238)"><text
         xml:space="preserve"
         style="font-style:normal;font-variant:normal;font-weight:normal;font-stretch:normal;font-size:2.82222px;line-height:1.25;font-family:'Source Sans Pro';-inkscape-font-specification:'Source Sans Pro';fill:#ffffff;fill-opacity:1;stroke-width:0.264583"
         x="454.85413"
         y="33.039047"
         id="text10198"><tspan
           sodipodi:role="line"
           id="tspan10196"
           style="font-style:normal;font-variant:normal;font-weight:normal;font-stretch:normal;font-size:2.82222px;font-family:'Source Sans Pro';-inkscape-font-specification:'Source Sans Pro';fill:#ffffff;fill-opacity:1;stroke-width:0.264583"
           x="454.85413"
           y="33.039047">dition</tspan></text><text
         xml:space="preserve"
         style="font-style:normal;font-variant:normal;font-weight:normal;font-stretch:normal;font-size:2.82222px;line-height:1.25;font-family:'Source Sans Pro';-inkscape-font-specification:'Source Sans Pro';fill:#ffffff;stroke-width:0.264583"
         x="455.33859"
         y="29.864048"
         id="text10206"><tspan
           sodipodi:role="line"
           id="tspan10204"
           style="font-style:normal;font-variant:normal;font-weight:normal;font-stretch:normal;font-size:2.82222px;font-family:'Source Sans Pro';-inkscape-font-specification:'Source Sans Pro';fill:#ffffff;stroke-width:0.264583"
           x="455.33859"
           y="29.864048">kala</tspan></text><g
         id="g10222"
         transform="translate(253.04442,-43.584522)"><path
           id="path10208"
           style="fill:none;fill-rule:evenodd;stroke:#ffffff;stroke-width:0.529167;stroke-miterlimit:4;stroke-dasharray:none;stroke-opacity:1;stop-color:#000000"
           d="m 201.52667,74.276192 h -1.33142 c -0.58916,0 -1.06675,0.473824 -1.06675,1.058333 0,0.584501 0.47761,1.058334 1.06677,1.058334 h 1.3314"
           sodipodi:nodetypes="cscsc" /><path
           id="path10210"
           style="fill:none;fill-rule:evenodd;stroke:#ffffff;stroke-width:0.529167;stroke-miterlimit:4;stroke-dasharray:none;stroke-opacity:1;stop-color:#000000"
           d="m 200.72442,72.159525 h -0.52917 c -0.58916,0 -1.06675,0.473824 -1.06675,1.058333 0,0.584501 0.47761,1.058334 1.06677,1.058334 h 0.52915"
           sodipodi:nodetypes="cscsc" /><path
           id="path10212"
           style="fill:none;fill-rule:evenodd;stroke:#ffffff;stroke-width:0.529167;stroke-miterlimit:4;stroke-dasharray:none;stroke-opacity:1;stop-color:#000000"
           d="m 200.19527,67.92619 h 0.52917 c 0.58916,0 1.06675,0.473824 1.06675,1.058333 0,0.584501 -0.47761,1.058334 -1.06677,1.058334 h -0.52915"
           sodipodi:nodetypes="cscsc" /><path
           id="path10214"
           style="fill:none;fill-rule:evenodd;stroke:#ffffff;stroke-width:0.529167;stroke-miterlimit:4;stroke-dasharray:none;stroke-opacity:1;stop-color:#000000"
           d="m 199.39307,65.809523 h 1.33137 c 0.58916,0 1.06675,0.473824 1.06675,1.058333 0,0.584501 -0.47761,1.058334 -1.06677,1.058334 h -1.33135"
           sodipodi:nodetypes="cscsc" /><path
           id="path10216"
           style="fill:none;fill-rule:evenodd;stroke:#ffffff;stroke-width:0.529167;stroke-miterlimit:4;stroke-dasharray:none;stroke-opacity:1;stop-color:#000000"
           d="m 200.72444,68.984523 h -0.52915 c -0.58916,0 -1.06677,0.473833 -1.06677,1.058334 0,0.584509 0.47759,1.058333 1.06675,1.058333 h 0.52917 c 0.58916,0 1.06675,0.473824 1.06675,1.058333 0,0.584501 -0.47761,1.058334 -1.06677,1.058334 h -0.52915"
           sodipodi:nodetypes="cssccssc" /><rect
           style="font-variation-settings:normal;vector-effect:none;fill:#ffffff;fill-opacity:1;fill-rule:evenodd;stroke:none;stroke-width:0.264583;stroke-linecap:butt;stroke-linejoin:miter;stroke-miterlimit:4;stroke-dasharray:none;stroke-dashoffset:0;stroke-opacity:1;stop-color:#000000"
           id="rect10218"
           width="1.3313692"
           height="0.52916664"
           x="199.39307"
           y="66.603271" /><rect
           style="font-variation-settings:normal;vector-effect:none;fill:#ffffff;fill-opacity:1;fill-rule:evenodd;stroke:none;stroke-width:0.264583;stroke-linecap:butt;stroke-linejoin:miter;stroke-miterlimit:4;stroke-dasharray:none;stroke-dashoffset:0;stroke-opacity:1;stop-color:#000000"
           id="rect10220"
           width="1.3313692"
           height="0.52916664"
           x="200.19527"
           y="75.069939" /></g><text
         xml:space="preserve"
         style="font-style:normal;font-variant:normal;font-weight:normal;font-stretch:normal;font-size:2.82222px;line-height:1.25;font-family:'Source Sans Pro';-inkscape-font-specification:'Source Sans Pro';fill:#ffffff;stroke-width:0.264583"
         x="455.33859"
         y="26.689053"
         id="text10306"><tspan
           sodipodi:role="line"
           id="tspan10304"
           style="font-style:normal;font-variant:normal;font-weight:normal;font-stretch:normal;font-size:2.82222px;font-family:'Source Sans Pro';-inkscape-font-specification:'Source Sans Pro';fill:#ffffff;stroke-width:0.264583"
           x="455.33859"
           y="26.689053">sser</tspan></text></g><text
       xml:space="preserve"
       style="font-style:normal;font-variant:normal;font-weight:600;font-stretch:normal;font-size:4.9389px;line-height:1.25;font-family:'Source Sans 3';-inkscape-font-specification:'Source Sans 3 Semi-Bold';fill:#ffffff;stroke-width:0.264583"
       x="77.218666"
       y="58.929844"
       id="text1-6"><tspan
         sodipodi:role="line"
         id="tspan1-7"
         x="77.218666"
         y="58.929844"
         style="font-style:normal;font-variant:normal;font-weight:500;font-stretch:normal;font-family:'Source Sans 3';-inkscape-font-specification:'Source Sans 3 Medium';fill:#ffffff;stroke-width:0.264583">C O L L E C T E D   W O R K S </tspan></text><text
       xml:space="preserve"
       style="font-size:4.9389px;line-height:1.25;font-family:Arial;-inkscape-font-specification:Arial;letter-spacing:0.0396875px;display:inline;fill:#ffffff;stroke-width:0.264583"
       x="22.87653"
       y="177.68388"
       id="text6"><tspan
         sodipodi:role="line"
         style="font-style:normal;font-variant:normal;font-weight:500;font-stretch:normal;font-family:'Source Sans 3';-inkscape-font-specification:'Source Sans 3 Medium';letter-spacing:0.0396875px;fill:#ffffff;stroke-width:0.264583"
         x="22.87653"
         y="177.68388"
         id="tspan19"><tspan
           style="font-style:normal;font-variant:normal;font-weight:bold;font-stretch:normal;font-family:'Source Sans 3';-inkscape-font-specification:'Source Sans 3 Bold'"
           id="tspan23">General preface</tspan></tspan></text><text
       xml:space="preserve"
       style="font-size:4.9389px;line-height:1.25;font-family:Arial;-inkscape-font-specification:Arial;letter-spacing:0.0396875px;display:inline;fill:#ffffff;stroke-width:0.264583"
       x="22.87653"
       y="158.84563"
       id="text72"><tspan
         sodipodi:role="line"
         style="font-style:normal;font-variant:normal;font-weight:500;font-stretch:normal;font-family:'Source Sans 3';-inkscape-font-specification:'Source Sans 3 Medium';letter-spacing:0.0396875px;fill:#ffffff;stroke-width:0.264583"
         x="22.87653"
         y="158.84563"
         id="tspan72">Collected works</tspan></text><path
       style="fill:#ffffff;stroke-width:0.815334"
       d="m 65.264869,51.344312 c -0.32319,-0.201151 -0.36778,-0.47825 -0.03816,-0.836565 0.177465,-0.192908 0.524586,-0.621553 0.771371,-0.952538 0.246793,-0.330993 0.528703,-0.683355 0.626478,-0.783038 0.09778,-0.09968 0.295697,-0.336562 0.439815,-0.526396 0.144119,-0.189842 0.281568,-0.360695 0.305449,-0.379676 0.02389,-0.019 0.10159,-0.149027 0.172712,-0.288979 0.10071,-0.198199 0.118403,-0.327144 0.07998,-0.583175 -0.0437,-0.29145 -0.03726,-0.31869 0.05724,-0.240312 0.14906,0.123703 0.367341,0.03571 0.418674,-0.168847 0.05658,-0.225554 0.249631,-0.41291 0.486681,-0.472405 0.207225,-0.05202 0.422506,-0.230022 0.357182,-0.295354 -0.02234,-0.02234 -0.118738,0.0106 -0.214254,0.07322 -0.09552,0.06262 -0.310707,0.126645 -0.478193,0.142341 -0.167486,0.01574 -0.362114,0.06082 -0.432502,0.100229 -0.07036,0.03946 -0.273846,0.134905 -0.452111,0.212166 -0.591867,0.256544 -1.574254,0.154514 -1.574254,-0.163507 0,-0.049 -0.06213,-0.160703 -0.138061,-0.248261 -0.106229,-0.12248 -0.13806,-0.258265 -0.13806,-0.588875 0,-0.297735 -0.0318,-0.456081 -0.103547,-0.515625 -0.131783,-0.109369 -0.132794,-0.349142 -0.0024,-0.521806 0.05577,-0.07371 0.10234,-0.197465 0.103547,-0.275036 8.15e-4,-0.07754 0.177229,-0.403745 0.391164,-0.724832 0.351866,-0.528116 0.663005,-0.831714 1.115173,-1.088144 0.08744,-0.04957 0.186198,-0.161746 0.219463,-0.249248 0.08328,-0.219023 0.751763,-0.582433 1.137693,-0.618487 0.198811,-0.01859 0.442905,-0.111285 0.660314,-0.250797 l 0.344911,-0.221331 0.810743,0.04117 c 1.324298,0.06727 1.280441,0.05936 1.377017,0.24981 0.173788,0.342774 0.07338,0.761081 -0.244404,1.018221 -0.05862,0.04745 -0.251213,0.08629 -0.427904,0.08629 -0.233601,0 -0.355363,0.03767 -0.446216,0.13806 -0.150853,0.166704 -0.447243,0.178061 -0.736939,0.02829 -0.321877,-0.166451 -1.219209,-0.02471 -1.434123,0.226565 -0.05887,0.06881 -0.228954,0.187143 -0.37803,0.263018 -0.479179,0.243899 -1.231879,1.10609 -1.219535,1.396952 0.0041,0.104868 0.0082,0.31012 0.0083,0.456122 3.02e-4,0.315176 0.08371,0.49088 0.300443,0.632895 0.146124,0.09574 0.191554,0.09028 0.543477,-0.06539 0.211212,-0.09341 0.404829,-0.203507 0.430268,-0.244657 0.02731,-0.04411 0.138769,-0.05748 0.271726,-0.03253 0.195223,0.03661 0.270927,0.0033 0.564129,-0.249256 0.436098,-0.375461 0.442629,-0.387626 0.394972,-0.735333 -0.03767,-0.274898 -0.02258,-0.310569 0.234547,-0.553799 0.627547,-0.593653 1.006791,-0.795032 1.291497,-0.685777 0.120254,0.04615 0.208669,0.573799 0.15864,0.946765 -0.05047,0.376326 -0.295461,0.854584 -0.491508,0.959501 -0.236096,0.126353 -0.328702,0.365392 -0.240059,0.619662 0.05699,0.163532 0.04917,0.239814 -0.03718,0.363142 -0.06017,0.08587 -0.109352,0.22067 -0.109352,0.299545 0,0.07884 -0.02813,0.172924 -0.06262,0.208995 -0.03441,0.03604 -0.108651,0.339513 -0.164975,0.674321 -0.07102,0.422245 -0.147029,0.656238 -0.248065,0.763797 -0.08015,0.08527 -0.145667,0.208652 -0.145667,0.274156 0,0.06555 -0.06213,0.24089 -0.138061,0.389737 -0.07591,0.14884 -0.138069,0.36006 -0.138069,0.46938 0,0.138346 -0.07175,0.264021 -0.236006,0.413513 -0.178477,0.162414 -0.255126,0.306875 -0.314458,0.592698 -0.07998,0.385229 -0.166222,0.489372 -1.219372,1.472371 -0.08968,0.0837 -0.535862,0.253275 -0.609519,0.252973 -0.824001,-0.0033 -0.760413,0.229492 -1.459978,-0.205929 z m 9.968409,-0.281551 c -0.279994,-0.02462 -0.359888,-0.06857 -0.569511,-0.313463 -0.134106,-0.156674 -0.243825,-0.341731 -0.243825,-0.411238 0,-0.253161 1.059053,-1.726656 1.825573,-2.539976 0.642532,-0.681758 1.20565,-1.224656 1.418909,-1.367943 0.289574,-0.194571 0.69031,-0.58333 0.69031,-0.669674 0,-0.04484 -0.125684,-0.119186 -0.279301,-0.165211 -0.31224,-0.09355 -0.357874,-0.170658 -0.483753,-0.817405 l -0.08379,-0.430529 0.378233,-0.432371 c 0.208024,-0.2378 0.412624,-0.49746 0.454663,-0.57702 0.04207,-0.07958 0.252484,-0.265945 0.467675,-0.414189 l 0.391238,-0.269533 h 0.722516 c 0.672561,0 0.731493,0.01109 0.852415,0.16027 0.110298,0.136071 0.124542,0.240303 0.09433,0.690318 -0.02699,0.402596 -0.01109,0.563241 0.06629,0.668101 l 0.10186,0.138069 0.04974,-0.138069 c 0.06808,-0.1891 0.310055,-0.448702 0.418176,-0.448702 0.09203,0 0.271498,-0.170479 0.530677,-0.504097 0.452086,-0.581928 0.725606,-0.714257 1.044467,-0.505327 0.09403,0.06164 0.244445,0.11201 0.334254,0.11201 0.181656,0 0.698773,0.428694 0.82855,0.686878 0.13572,0.269998 0.229892,0.237719 0.455152,-0.155981 0.296162,-0.51764 0.630571,-0.738481 1.088348,-0.71875 0.256635,0.01109 0.391091,-0.01802 0.487806,-0.105528 0.20363,-0.184241 0.506991,-0.151489 0.763063,0.0824 0.122357,0.111766 0.222472,0.233805 0.222472,0.271197 0,0.172687 0.209593,0.271522 0.499037,0.235337 0.385555,-0.04819 0.503917,-0.157481 0.170568,-0.157481 -0.204755,0 -0.25542,-0.02593 -0.25542,-0.130927 0,-0.121085 0.04973,-0.12914 0.66157,-0.107216 0.369884,0.01329 0.704677,0.05952 0.759345,0.10486 0.109662,0.09102 0.133437,0.517289 0.03237,0.579776 -0.09513,0.05879 -0.436677,1.192857 -0.384626,1.277081 0.05634,0.09123 0.359546,0.09284 0.415559,0.0024 0.02348,-0.03799 0.129834,-0.06906 0.236374,-0.06906 0.261926,0 0.557484,-0.242497 0.557484,-0.457394 0,-0.188872 0.50505,-1.001858 0.782468,-1.259544 0.143971,-0.133739 0.220857,-0.155362 0.419742,-0.118052 0.486314,0.09124 0.62735,0.704285 0.247453,1.075637 -0.42646,0.41688 -0.131211,1.008788 0.316472,0.634444 0.113185,-0.09465 0.15334,-0.232183 0.188212,-0.64475 0.05879,-0.695618 0.134024,-0.872586 0.42209,-0.992938 0.130531,-0.05455 0.256821,-0.130698 0.280641,-0.169247 0.0593,-0.09596 0.67851,-0.08851 0.89646,0.01076 0.29777,0.135671 0.29575,0.360516 -0.007,0.790588 -0.14709,0.208864 -0.29495,0.419041 -0.32859,0.467064 -0.0387,0.05528 -0.0183,0.152859 0.0558,0.265839 0.10282,0.156928 0.14286,0.17109 0.33109,0.117107 0.11777,-0.03375 0.28105,-0.124282 0.36284,-0.201127 0.0818,-0.0768 0.18424,-0.139707 0.22764,-0.139707 0.12328,0 0.4113,-0.553587 0.46673,-0.897055 0.0565,-0.350194 0.2042,-0.656547 0.42052,-0.872276 0.0807,-0.08047 0.15834,-0.175664 0.17257,-0.211555 0.0536,-0.134946 0.55713,-0.418764 0.68411,-0.385563 0.15721,0.04109 0.23544,0.247723 0.21125,0.557941 -0.01,0.126401 0.0346,0.307756 0.0996,0.407137 0.16944,0.258583 0.22593,1.279299 0.0867,1.566623 -0.0572,0.117929 -0.15464,0.331221 -0.21666,0.473978 -0.1517,0.349183 -0.63779,0.865574 -0.92954,0.987475 -0.35077,0.146564 -0.65478,0.125789 -0.82278,-0.05626 -0.14059,-0.152313 -0.14099,-0.161306 -0.0209,-0.464455 0.084,-0.212183 0.19849,-0.352909 0.36493,-0.448703 0.4687,-0.269761 0.54554,-0.341625 0.49792,-0.465653 -0.0432,-0.112622 -0.0545,-0.112622 -0.20941,0 -0.0901,0.06547 -0.1647,0.157816 -0.1659,0.205276 -8.1e-4,0.04745 -0.0477,0.08629 -0.10328,0.08629 -0.0556,0 -0.1344,0.06221 -0.17507,0.138183 -0.0407,0.07599 -0.17379,0.184265 -0.29581,0.240605 -0.12203,0.05634 -0.40382,0.232166 -0.62622,0.39074 -0.37807,0.26959 -0.41876,0.283109 -0.62619,0.208106 -0.122,-0.04411 -0.28571,-0.08023 -0.3638,-0.08023 -0.0781,0 -0.18063,-0.04655 -0.227902,-0.103547 -0.131481,-0.158428 -0.460664,-0.1242 -0.927679,0.09646 -0.383378,0.181135 -0.703576,0.25193 -1.014087,0.224217 -0.06188,-0.0057 -0.151033,-0.10323 -0.198216,-0.217132 -0.08355,-0.201705 -0.291727,-0.28036 -0.37697,-0.14243 -0.06547,0.105977 -0.460484,0.280491 -0.634843,0.280491 -0.08922,0 -0.278143,0.06213 -0.419823,0.138068 -0.553139,0.296464 -1.260653,0.09041 -1.260539,-0.36712 5.7e-5,-0.212052 0.195166,-0.817559 0.295909,-0.918294 0.06906,-0.06906 0.06164,-0.647473 -0.0083,-0.647473 -0.211245,0 -0.893578,0.17462 -0.983387,0.251669 -0.05993,0.05145 -0.177734,0.09349 -0.261754,0.09349 -0.324585,0 -0.377312,0.124714 -0.740584,1.751557 -0.105366,0.47185 -0.149312,0.560542 -0.333398,0.672797 -0.258575,0.157686 -0.681163,0.168571 -0.828396,0.02136 -0.160726,-0.160727 -0.143735,-0.790303 0.02927,-1.083489 0.173951,-0.294832 0.255534,-0.841391 0.14539,-0.974103 -0.150616,-0.181477 -0.354222,-0.184527 -0.421984,-0.0065 -0.124118,0.326468 -0.417858,0.722712 -0.535756,0.722712 -0.06637,0 -0.20486,0.07811 -0.307796,0.173536 -0.102928,0.09544 -0.257931,0.204738 -0.344454,0.242879 -0.08652,0.03816 -0.309159,0.190006 -0.494753,0.337483 -0.371148,0.294915 -0.553701,0.35061 -1.149221,0.35061 -0.359334,0 -0.41697,-0.02087 -0.574223,-0.207739 -0.168138,-0.199822 -0.171269,-0.220222 -0.08214,-0.534997 0.136348,-0.481496 0.191481,-1.034145 0.108301,-1.085552 -0.03889,-0.02405 -0.07069,0.01402 -0.07069,0.08461 0,0.161485 -0.12914,0.29401 -0.2865,0.29401 -0.06645,0 -0.149874,0.05186 -0.185374,0.11532 -0.03547,0.06343 -0.168334,0.164396 -0.2952,0.224356 -0.148831,0.07036 -0.253242,0.182496 -0.294319,0.316121 -0.03498,0.113902 -0.105635,0.304984 -0.156935,0.424626 -0.05128,0.119634 -0.09327,0.262855 -0.09327,0.318265 0,0.05544 -0.07762,0.215175 -0.172582,0.355046 -0.09491,0.13987 -0.172574,0.336692 -0.172574,0.437369 0,0.184722 -0.313104,0.708223 -0.423582,0.708223 -0.03278,0 -0.0596,0.04501 -0.0596,0.100083 0,0.05504 -0.08881,0.233666 -0.197359,0.396937 -0.108546,0.163262 -0.214686,0.409403 -0.235852,0.546983 -0.04215,0.273764 -0.299227,0.591761 -1.154513,1.428024 -0.765394,0.748362 -1.200399,0.934421 -2.016956,0.862704 z m 1.235336,-0.945151 c 0.06922,-0.09053 0.172419,-0.233829 0.229362,-0.318453 0.116568,-0.173193 0.331148,-0.464756 0.698081,-0.948502 0.137147,-0.180825 0.272851,-0.406427 0.301551,-0.50134 0.0287,-0.09492 0.09201,-0.219178 0.140694,-0.27613 0.14561,-0.170331 0.447406,-0.744016 0.447406,-0.850466 0,-0.05446 0.04656,-0.137742 0.103547,-0.185007 0.05699,-0.04729 0.103548,-0.146377 0.103548,-0.220246 0,-0.132663 -0.0024,-0.132639 -0.189843,0.0016 -0.402742,0.288457 -1.034683,1.02547 -1.089987,1.271236 -0.02348,0.104363 -0.09723,0.228619 -0.163874,0.276129 -0.212052,0.151155 -0.765304,0.93076 -0.765304,1.078409 0,0.07819 -0.05846,0.173414 -0.129899,0.211653 -0.09295,0.04973 -0.130992,0.148619 -0.13374,0.347585 -0.0033,0.247421 0.01419,0.278061 0.159406,0.278061 0.09081,0 0.219064,-0.07305 0.289052,-0.164583 z m 6.28235,-5.018941 c 0.3688,-0.178534 0.380003,-0.320353 0.0477,-0.604171 -0.315844,-0.269794 -0.456456,-0.210609 -0.583672,0.245652 -0.05063,0.181591 -0.10345,0.368996 -0.117376,0.416448 -0.03987,0.135827 0.318779,0.10402 0.653327,-0.05797 z M 79.18591,44.47056 c 0.112369,-0.08307 0.204298,-0.204787 0.204298,-0.270479 0,-0.417777 -0.244413,-0.448335 -0.745044,-0.09314 -0.04117,0.02919 0.220499,0.514663 0.277409,0.514663 0.03245,0 0.150976,-0.068 0.263337,-0.151049 z m 13.718064,5.296498 c -0.2984,-0.20703 -0.36339,-0.393741 -0.29524,-0.848208 0.0809,-0.539662 0.26659,-0.788738 0.90444,-1.213307 0.45301,-0.301535 0.68342,-0.341885 1.23656,-0.216544 0.26577,0.06025 0.55445,0.124037 0.6415,0.141803 0.23797,0.04859 0.25722,0.20981 0.0565,0.472999 -0.22683,0.297401 -0.22613,0.369428 0.004,0.427227 0.14563,0.03653 0.2161,0.0095 0.3351,-0.128904 0.0829,-0.09635 0.21853,-0.196716 0.30144,-0.223027 0.1389,-0.04411 0.7418,-0.614215 1.53927,-1.455574 0.17807,-0.187886 0.45276,-0.461186 0.6104,-0.607326 0.15766,-0.146149 0.32857,-0.366068 0.37981,-0.488719 0.0513,-0.122651 0.14361,-0.264861 0.20526,-0.316023 0.13865,-0.115069 0.31008,-0.438593 0.31008,-0.585174 0,-0.06009 -0.10726,-0.216536 -0.23835,-0.347625 -0.2129,-0.212892 -0.23103,-0.259374 -0.16977,-0.435103 0.0832,-0.238656 0.595,-0.636784 1.18379,-0.920871 0.066,-0.0318 0.190176,-0.0583 0.276126,-0.05887 0.22715,-0.0016 0.29843,-0.06963 0.3962,-0.378616 0.048,-0.151872 0.11469,-0.305636 0.14807,-0.341707 0.0523,-0.05658 0.0911,-0.521283 0.0434,-0.521128 -0.009,3.2e-5 -0.16284,0.05536 -0.34078,0.122928 -0.35338,0.134212 -0.847796,0.549983 -0.918346,0.772267 -0.0245,0.07713 -0.0903,0.140221 -0.1462,0.140221 -0.0559,0 -0.19376,0.06808 -0.30631,0.151277 -0.25775,0.190568 -0.54752,0.114604 -0.64752,-0.169752 -0.062,-0.176096 -0.0286,-0.226247 0.50319,-0.756589 0.44626,-0.445058 0.56042,-0.598194 0.52746,-0.707579 -0.14502,-0.481398 -0.12617,-0.65879 0.10501,-0.988307 0.12535,-0.178656 0.41696,-0.502906 0.648036,-0.720559 0.47142,-0.444023 0.77292,-0.523909 0.96146,-0.254743 0.12055,0.172117 0.0795,0.891062 -0.0674,1.182038 -0.0518,0.102528 -0.0942,0.234547 -0.0942,0.293382 0,0.156682 0.2953,0.133625 0.39817,-0.03106 0.0474,-0.07591 0.14341,-0.13806 0.21331,-0.13806 0.0699,0 0.26379,-0.09263 0.43087,-0.205839 0.45235,-0.306517 0.8215,-0.258534 0.8215,0.106792 0,0.157645 -0.24196,0.513237 -0.34924,0.513237 -0.0347,0 -0.16867,0.115214 -0.29772,0.256031 -0.17672,0.192826 -0.24448,0.339138 -0.27451,0.592747 -0.0246,0.207641 -0.12025,0.458047 -0.24952,0.653221 -0.1153,0.174066 -0.20964,0.347552 -0.20964,0.385514 0,0.038 -0.0474,0.12133 -0.10521,0.185277 -0.13182,0.145651 -0.0638,0.385954 0.0762,0.269663 0.0511,-0.04248 0.29568,-0.102316 0.54342,-0.133038 0.33008,-0.04093 0.50737,-0.103775 0.66359,-0.235224 0.23397,-0.19687 0.31388,-0.212369 0.57775,-0.112043 0.14306,0.05438 0.17707,0.113266 0.17707,0.306566 0,0.287723 0.10216,0.374442 0.20804,0.176601 0.15186,-0.283769 0.46725,-0.40858 0.92585,-0.366419 0.47112,0.04329 0.57037,-0.01777 0.96044,-0.590995 0.23641,-0.34743 0.83518,-0.766617 1.09503,-0.766617 0.19897,0 0.33125,0.161354 0.33125,0.404055 0,0.07534 0.0435,0.22495 0.0966,0.332444 0.2387,0.482694 0.26245,0.689438 0.14524,1.264093 -0.0746,0.365694 -0.0903,0.589902 -0.0469,0.667498 0.057,0.101794 0.0786,0.09086 0.16808,-0.08483 0.0565,-0.110918 0.12631,-0.279333 0.15517,-0.374254 0.0784,-0.257825 0.44265,-0.690311 0.5814,-0.690311 0.31842,0 0.44105,0.455666 0.24738,0.919191 l -0.10267,0.245734 0.25541,0.210527 c 0.14048,0.115794 0.2752,0.187633 0.29938,0.159634 0.12482,-0.144485 0.27184,-0.682532 0.27184,-0.994837 0,-0.324919 -0.0229,-0.375543 -0.27612,-0.609283 -0.23153,-0.21374 -0.27612,-0.298445 -0.27603,-0.52439 2.2e-4,-0.55141 0.39093,-0.998025 0.78628,-0.898799 0.14799,0.0371 0.22816,0.134978 0.36225,0.442057 0.0947,0.216904 0.21672,0.476816 0.27113,0.577591 0.12429,0.230201 0.12546,0.403843 0.004,0.578023 -0.0523,0.07485 -0.11734,0.369142 -0.14458,0.653897 -0.0272,0.284755 -0.0932,0.586543 -0.14658,0.670628 -0.12968,0.204348 -0.12374,0.226786 0.0601,0.226786 0.10782,0 0.21408,-0.0878 0.3385,-0.279676 0.27559,-0.425017 0.85703,-1.011283 1.07258,-1.081475 0.18554,-0.06042 0.61014,-0.591125 0.79759,-0.996917 0.0466,-0.100963 0.21976,-0.295118 0.38471,-0.43145 0.34665,-0.286492 0.62777,-0.321152 0.84478,-0.104143 0.12896,0.128962 0.14026,0.202701 0.10997,0.717372 -0.0186,0.315493 -0.0678,0.637077 -0.10921,0.714623 -0.111,0.207405 -0.0937,0.426192 0.0337,0.426192 0.06,0 0.24135,-0.108293 0.40287,-0.240654 0.21753,-0.178248 0.39673,-0.442286 0.69106,-1.018213 0.21855,-0.427659 0.44108,-0.82661 0.49453,-0.886553 0.0535,-0.05993 0.0972,-0.173879 0.0972,-0.253194 0,-0.374491 0.72021,-1.44372 1.09272,-1.622261 0.1014,-0.04859 0.13027,-0.174914 0.18437,-0.190984 0.40463,-0.12018 0.75193,-0.283818 1.17986,-0.06376 -0.0506,0.288563 -0.17674,0.154277 -0.17785,0.433007 -8.1e-4,0.222823 -0.28952,1.000879 -0.4673,1.259658 -0.0283,0.04126 -0.19716,0.289737 -0.3752,0.55225 -0.17803,0.262521 -0.38703,0.554965 -0.46442,0.649878 -0.23738,0.291115 -0.15934,0.483224 0.19631,0.483224 0.0669,0 0.17808,0.06229 0.24697,0.138403 0.11488,0.126947 0.11787,0.177579 0.036,0.611345 -0.10993,0.582589 -0.0487,1.188373 0.1372,1.356569 0.10553,0.09552 0.17013,0.104688 0.33422,0.04745 0.1565,-0.05455 0.23683,-0.04753 0.34831,0.03057 0.18,0.126075 0.18028,0.184062 0.002,0.550937 -0.19233,0.397312 -0.5471,0.565866 -1.2458,0.591908 -0.68682,0.0256 -0.77574,-0.04093 -0.71408,-0.5345 0.029,-0.23215 0.0183,-0.376456 -0.0303,-0.406485 -0.0528,-0.03269 -0.0446,-0.120066 0.0276,-0.2929 0.14952,-0.35785 0.13735,-0.712716 -0.0245,-0.712716 -0.07,0 -0.18088,0.05911 -0.24629,0.131416 -0.13401,0.148089 -0.31048,0.812847 -0.3142,1.183636 -0.002,0.134791 -0.0371,0.279725 -0.0795,0.322089 -0.098,0.09805 -0.24192,0.345906 -0.34148,0.588296 -0.0541,0.131872 -0.15908,0.213406 -0.34711,0.269737 -0.23637,0.07085 -0.28713,0.06474 -0.41326,-0.04941 -0.0981,-0.08875 -0.13329,-0.185489 -0.11079,-0.30425 0.0452,-0.239048 0.32279,-1.826772 0.32303,-1.84815 1.1e-4,-0.0095 -0.0272,-0.01729 -0.0607,-0.01729 -0.0335,0 -0.0767,0.06025 -0.096,0.133992 -0.0192,0.07371 -0.14335,0.179251 -0.27575,0.234572 -0.13239,0.05528 -0.26039,0.132418 -0.28444,0.171334 -0.0241,0.03889 -0.13615,0.09107 -0.2491,0.115867 -0.20249,0.04452 -0.48102,0.347414 -0.48585,0.528426 -0.002,0.05112 -0.0757,0.182333 -0.16502,0.291637 -0.14044,0.171725 -0.20814,0.197881 -0.498,0.192378 -0.4661,-0.0088 -0.60819,-0.184535 -0.54996,-0.680029 0.0236,-0.200263 0.0134,-0.376375 -0.023,-0.398854 -0.0358,-0.02218 -0.15247,0.0459 -0.25919,0.151171 -0.20857,0.205742 -0.64235,0.852579 -0.64235,0.957846 0,0.03522 -0.0593,0.174751 -0.1319,0.310104 -0.0726,0.135354 -0.17814,0.401813 -0.23466,0.592136 -0.16342,0.550294 -0.36475,0.887344 -0.8779,1.46968 -0.58756,0.66678 -0.88062,0.893557 -0.97499,0.754477 -0.18301,-0.269688 0.0294,-0.828134 1.03383,-2.717368 0.26825,-0.504594 0.28025,-0.657705 0.0515,-0.657705 -0.0922,0 -0.21461,0.04696 -0.27201,0.104362 -0.0931,0.09313 -0.12971,0.07827 -0.33981,-0.138068 -0.1295,-0.13334 -0.34104,-0.27776 -0.47008,-0.320932 -0.29959,-0.100229 -0.54527,-0.374532 -0.54527,-0.608777 0,-0.201045 -0.1427,-0.553889 -0.22436,-0.554737 -0.0285,-3.01e-4 -0.0518,0.06082 -0.0518,0.135745 0,0.08145 -0.0828,0.179129 -0.2057,0.242668 -0.11315,0.05854 -0.42642,0.31851 -0.69618,0.577786 -0.37126,0.356823 -0.57862,0.499188 -0.8531,0.585711 -0.19944,0.06286 -0.38012,0.114302 -0.40151,0.114302 -0.0214,0 -0.10149,-0.106116 -0.17802,-0.235811 -0.13106,-0.222137 -0.15588,-0.23356 -0.42799,-0.197066 -0.31916,0.04281 -0.41084,-0.03009 -0.41084,-0.326468 0,-0.256398 0.087,-0.349215 0.3491,-0.372428 0.12956,-0.0115 0.453,-0.122952 0.71878,-0.247739 0.26577,-0.124779 0.5755,-0.224559 0.68828,-0.22173 0.3792,0.0095 0.55667,-0.295632 0.48308,-0.83067 -0.0424,-0.308327 -0.0583,-0.329346 -0.24867,-0.329346 -0.11184,0 -0.32514,0.06213 -0.47399,0.13806 -0.14884,0.07591 -0.30359,0.138061 -0.34388,0.138061 -0.0403,0 -0.18909,0.07566 -0.33065,0.168065 -0.41658,0.272011 -0.84327,0.417956 -0.97727,0.33427 -0.19399,-0.121142 -0.34243,0.04908 -0.33775,0.387308 0.003,0.221486 -0.0384,0.339212 -0.16841,0.47865 -0.0949,0.101705 -0.20917,0.299863 -0.25403,0.440337 -0.0937,0.293227 -0.47121,0.655064 -0.74747,0.716344 -0.10371,0.02299 -0.45792,0.135549 -0.78713,0.250096 l -0.59855,0.208277 -0.2816,-0.158273 c -0.15488,-0.08705 -0.28178,-0.191375 -0.28202,-0.23184 -2.4e-4,-0.04044 -0.0518,-0.166768 -0.1146,-0.280671 -0.0628,-0.113902 -0.132496,-0.341575 -0.154896,-0.505939 -0.0393,-0.288285 -0.0451,-0.294384 -0.16418,-0.172581 -0.0679,0.06947 -0.28725,0.343712 -0.48743,0.609486 -0.20019,0.265775 -0.4708,0.55521 -0.60137,0.643201 -0.13057,0.08799 -0.39272,0.301029 -0.58256,0.473415 -0.18984,0.172386 -0.57037,0.469282 -0.84564,0.65976 -0.27526,0.190486 -0.50047,0.373521 -0.50047,0.406745 0,0.03318 -0.0599,0.06042 -0.13306,0.06042 -0.0731,0 -0.19085,0.07346 -0.26149,0.163278 -0.0706,0.08981 -0.19897,0.185668 -0.28519,0.213031 -0.0862,0.0274 -0.28346,0.187233 -0.43835,0.355257 -0.15488,0.168032 -0.35258,0.343981 -0.43932,0.390993 -1.306,0.707906 -1.80062,0.818041 -2.25575,0.502278 z m 8.790646,-4.267759 c 0.0609,-0.04639 0.13448,-0.161901 0.16349,-0.256675 0.029,-0.09477 0.092,-0.218909 0.13994,-0.27586 0.0479,-0.05699 0.10889,-0.181208 0.13537,-0.276129 0.0265,-0.09491 0.0622,-0.223548 0.0795,-0.28584 0.0448,-0.16217 -0.34544,-0.293789 -0.52977,-0.17868 -0.0735,0.04599 -0.13377,0.1344 -0.13377,0.196552 0,0.06213 -0.0483,0.153079 -0.10731,0.202065 -0.19521,0.162015 -0.23519,0.311294 -0.15828,0.591051 0.0988,0.35935 0.21029,0.436293 0.41087,0.283516 z m 9.69172,-0.946724 c 0.0235,-0.03799 -0.006,-0.06906 -0.065,-0.06906 -0.0592,0 -0.10762,0.03106 -0.10762,0.06906 0,0.03799 0.0292,0.06906 0.065,0.06906 0.0357,0 0.0841,-0.03106 0.10762,-0.06906 z m 0.64239,-0.551468 c 0.16171,-0.134807 0.29581,-0.622067 0.17121,-0.622067 -0.10493,0 -0.28011,0.221559 -0.3977,0.503004 -0.12354,0.295656 -0.0388,0.340206 0.22649,0.119063 z m 27.94787,4.099441 c -0.0861,-0.288701 0.0126,-1.141198 0.22181,-1.914721 0.12158,-0.449559 0.20222,-0.876688 0.17922,-0.949187 -0.0642,-0.20222 -0.3125,-0.159007 -0.61051,0.106229 -0.14704,0.130861 -0.35672,0.257564 -0.46596,0.281551 -0.10925,0.02397 -0.19864,0.07428 -0.19864,0.111783 0,0.03751 -0.0793,0.172076 -0.17614,0.299088 -0.19124,0.250732 -0.60314,0.450171 -0.92976,0.450171 -0.11313,0 -0.2057,0.02609 -0.2057,0.05797 0,0.03188 -0.0824,0.0955 -0.18311,0.141387 -0.16463,0.07501 -0.20473,0.06335 -0.39694,-0.115843 -0.16906,-0.157571 -0.26887,-0.195827 -0.47688,-0.182789 -0.14469,0.0091 -0.31771,0.06596 -0.38449,0.12636 -0.14192,0.128431 -0.86044,0.387129 -1.07523,0.387129 -0.0814,0 -0.18524,-0.03726 -0.2308,-0.08284 -0.11775,-0.117751 -0.1058,-0.984124 0.0169,-1.22128 0.0548,-0.106018 0.0988,-0.345229 0.0978,-0.531574 -8.1e-4,-0.186344 0.0318,-0.426256 0.0729,-0.533138 0.0993,-0.258167 0.0945,-0.287666 -0.0301,-0.184266 -0.0855,0.07094 -0.12794,0.06612 -0.2298,-0.02609 -0.1931,-0.174751 -0.30157,-0.134799 -0.55809,0.20557 -0.18575,0.246483 -0.24023,0.388123 -0.25226,0.655887 -0.008,0.187837 -0.0466,0.37935 -0.0847,0.425588 -0.0382,0.04623 -0.14982,0.314539 -0.2481,0.596229 -0.20123,0.576759 -0.30998,0.723176 -0.67581,0.909888 -0.255,0.130152 -0.25536,0.130127 -0.36242,-0.02275 -0.14064,-0.200809 -0.13519,-0.359953 0.0228,-0.665117 0.28292,-0.546444 0.36407,-0.813531 0.31943,-1.051454 -0.0346,-0.18451 -0.008,-0.290454 0.12098,-0.480427 0.25506,-0.375845 0.27191,-0.528287 0.0797,-0.720543 -0.24438,-0.24438 -0.21274,-0.471475 0.11522,-0.827278 l 0.28201,-0.305946 0.4324,0.04036 c 0.31405,0.02935 0.53039,0.0082 0.79047,-0.0786 0.38721,-0.128611 0.41603,-0.120262 0.7528,0.218158 0.087,0.08739 0.23116,0.158884 0.32042,0.158884 0.19085,0 0.29144,0.269884 0.17894,0.480102 -0.0389,0.07265 -0.0707,0.291253 -0.0707,0.485759 0,0.194514 -0.0357,0.570024 -0.0794,0.83447 -0.0974,0.589861 -0.0162,0.860862 0.23529,0.785354 0.49904,-0.149826 0.50134,-0.153666 0.48375,-0.806537 -0.0119,-0.441266 0.008,-0.614419 0.0761,-0.654566 0.0508,-0.03 0.17777,-0.269924 0.28226,-0.533114 0.40363,-1.01668 0.98515,-1.558095 1.67319,-1.557801 0.21688,9.8e-5 0.30778,0.04811 0.52153,0.27524 0.25663,0.272754 0.28469,0.362155 0.26016,0.829154 -0.0296,0.563485 -0.4959,1.173534 -0.89704,1.173534 -0.15573,0 -0.22121,0.05194 -0.32633,0.258869 -0.1718,0.338159 -0.13278,0.480557 0.16583,0.60532 0.37507,0.156715 0.5648,0.132858 0.64621,-0.08129 0.0384,-0.10093 0.15409,-0.285514 0.25716,-0.410178 0.10307,-0.124665 0.29611,-0.38783 0.429,-0.584806 0.27489,-0.407472 0.36143,-0.504235 0.69413,-0.776149 0.20311,-0.165994 0.27884,-0.188293 0.5192,-0.152892 0.32367,0.0477 0.51246,-0.0049 0.51246,-0.143376 0,-0.05292 0.046,-0.09616 0.10223,-0.09616 0.0563,0 0.12121,-0.07558 0.14441,-0.168033 0.0453,-0.180172 0.32442,-0.315191 0.65176,-0.315191 0.24509,0 0.55126,0.244828 0.55126,0.440802 0,0.08506 0.0932,0.243939 0.2071,0.353064 0.27304,0.261591 0.2624,0.439081 -0.0409,0.681023 -0.19367,0.154531 -0.31825,0.197572 -0.5695,0.196757 -0.17689,-5.79e-4 -0.35268,-0.0082 -0.39065,-0.01614 -0.038,-0.0083 -0.15168,-0.01141 -0.2527,-0.0065 -0.23176,0.01027 -0.43856,0.417532 -0.49878,0.98215 -0.0228,0.212966 -0.0881,0.499311 -0.14538,0.636328 -0.0572,0.137008 -0.10409,0.320181 -0.10409,0.407047 0,0.225219 -0.38395,0.827229 -0.83778,1.3136 -0.32852,0.352078 -0.39515,0.396595 -0.42812,0.286052 z m -1.56622,-3.615703 c 0.20365,-0.145007 0.30449,-0.523298 0.19274,-0.722997 -0.0497,-0.08887 -0.0865,-0.08965 -0.27942,-0.0057 -0.12217,0.053 -0.27487,0.112533 -0.33932,0.132337 -0.13476,0.04142 -0.28576,0.523412 -0.21871,0.698154 0.0566,0.147445 0.36281,0.09924 0.64471,-0.101493 z m -17.48618,3.404254 c -0.0774,-0.07754 -0.0513,-0.329933 0.0493,-0.473611 0.12925,-0.184795 0.31896,-0.947866 0.31896,-1.282927 0,-0.180703 -0.0356,-0.286345 -0.10526,-0.313113 -0.15519,-0.05952 -0.58671,0.254278 -0.99488,0.723568 -0.19751,0.227087 -0.44955,0.45035 -0.56008,0.496131 -0.46432,0.192329 -0.75844,-0.126344 -0.58094,-0.629438 0.0556,-0.157718 0.10118,-0.525156 0.10118,-0.816532 0,-0.325995 0.0325,-0.562295 0.0846,-0.61433 0.0667,-0.06669 0.0667,-0.113119 0,-0.21996 -0.11056,-0.177026 -0.10354,-0.406159 0.019,-0.620502 0.13649,-0.238754 0.12735,-0.509323 -0.0218,-0.644269 -0.11757,-0.106409 -0.13939,-0.09891 -0.35284,0.121322 -0.31824,0.328343 -0.46217,0.351996 -0.55318,0.09092 -0.18461,-0.529567 0.0364,-1.199796 0.57217,-1.735625 0.34426,-0.344259 0.70357,-0.476881 1.07789,-0.397859 0.26831,0.05667 0.32947,0.183744 0.34085,0.708313 0.004,0.174514 0.058,0.419759 0.12047,0.544994 0.10454,0.209557 0.10482,0.253022 0.003,0.545597 -0.0691,0.199504 -0.1086,0.536432 -0.10604,0.904669 0.002,0.322726 -0.0316,0.677257 -0.0751,0.787849 -0.13588,0.345278 0.013,0.348482 0.5386,0.01158 0.47931,-0.307234 0.4919,-0.322587 0.4919,-0.599874 0,-0.274661 -0.1242,-0.74806 -0.3201,-1.220114 -0.0518,-0.124681 -0.0941,-0.276577 -0.0941,-0.337548 0,-0.06099 -0.0483,-0.146173 -0.10733,-0.189345 -0.19071,-0.139446 -0.23947,-0.558088 -0.0949,-0.814844 0.0701,-0.124518 0.14824,-0.282 0.17362,-0.349958 0.0254,-0.068 0.13766,-0.170886 0.24948,-0.228709 0.19857,-0.102692 0.2087,-0.09943 0.43419,0.13965 0.26477,0.280744 0.40784,0.650302 0.36493,0.942664 -0.0163,0.111041 -0.006,0.201885 0.0228,0.201885 0.0289,0 0.0721,0.06213 0.0962,0.138069 0.0241,0.07591 0.0866,0.13806 0.1388,0.13806 0.12889,0 0.3099,0.271058 0.3099,0.464064 0,0.21343 0.0747,0.197865 0.3222,-0.0671 0.11524,-0.123393 0.32333,-0.330121 0.46242,-0.459392 0.23907,-0.222195 0.24659,-0.242015 0.13763,-0.362416 -0.0633,-0.07004 -0.17258,-0.127371 -0.24263,-0.127371 -0.07,0 -0.19336,-0.06604 -0.27402,-0.146662 -0.1247,-0.124697 -0.14048,-0.198934 -0.10532,-0.495756 0.0332,-0.280254 0.0928,-0.402236 0.30198,-0.618536 0.39149,-0.404708 0.71817,-0.550612 1.11056,-0.496009 0.42901,0.05968 0.6993,0.343411 0.71269,0.748102 0.005,0.156218 0.0228,0.214653 0.0391,0.129866 0.0164,-0.08479 0.12086,-0.207983 0.23221,-0.273756 0.11135,-0.0658 0.20244,-0.143157 0.20244,-0.171962 0,-0.02878 0.0959,-0.10195 0.21306,-0.162545 0.4297,-0.222211 1.16758,0.137661 1.16758,0.569437 0,0.07199 -0.0276,0.160368 -0.0614,0.196438 -0.0338,0.03604 -0.1118,0.242521 -0.17343,0.458772 -0.12074,0.423778 -0.48682,0.919509 -0.83517,1.130949 -0.2673,0.162252 -1.11131,1.026742 -1.31392,1.345815 -0.0862,0.13572 -0.29903,0.384234 -0.47299,0.552258 -0.17395,0.168016 -0.31679,0.330332 -0.31741,0.360687 -0.002,0.08578 -0.45453,0.531573 -0.53989,0.531573 -0.1384,0 -0.90292,0.956737 -0.9776,1.223392 -0.0902,0.322049 -0.56952,0.709495 -0.87775,0.709495 -0.11335,0 -0.2268,-0.02071 -0.25212,-0.04607 z m 1.7476,-2.377529 c 0.15354,-0.08007 0.34865,-0.236993 0.43358,-0.348808 0.0849,-0.111807 0.25536,-0.321902 0.37875,-0.466876 0.12339,-0.144975 0.22435,-0.297858 0.22435,-0.339742 0,-0.08717 0.74958,-0.99447 1.03537,-1.253233 0.23047,-0.208676 0.30456,-0.509526 0.24038,-0.976158 -0.0461,-0.335118 -0.0519,-0.342726 -0.14145,-0.187062 -0.0514,0.08925 -0.11625,0.208856 -0.14417,0.265807 -0.0468,0.09551 -0.28305,0.33246 -1.17877,1.182381 -0.18518,0.175712 -0.39007,0.400932 -0.4553,0.500476 -0.0652,0.09955 -0.16447,0.180996 -0.22054,0.180996 -0.0561,0 -0.10196,0.02886 -0.10196,0.06408 0,0.03522 -0.0469,0.110967 -0.10414,0.168244 -0.26087,0.260874 -0.48813,1.154292 -0.33306,1.309361 0.0621,0.06213 0.0512,0.06506 0.36696,-0.09949 z m -51.538517,2.283106 c -0.08015,-0.03033 -0.161021,-0.09653 -0.179716,-0.14716 -0.03987,-0.108024 0.166646,-0.99889 0.281208,-1.212956 0.04338,-0.08104 0.08663,-0.293544 0.09608,-0.472143 0.01655,-0.31317 0.01019,-0.32509 -0.180131,-0.334898 -0.226174,-0.01166 -0.386305,-0.193251 -0.396456,-0.449592 -0.01566,-0.395445 0.0247,-0.652927 0.116796,-0.745011 0.05349,-0.05349 0.09744,-0.118378 0.09763,-0.144143 5.3e-4,-0.07542 0.442017,-0.534614 0.636556,-0.662083 0.122194,-0.08007 0.293683,-0.11175 0.543134,-0.100368 0.225693,0.01027 0.374589,-0.01337 0.390863,-0.06221 0.03661,-0.109931 0.686095,-0.568263 0.805216,-0.568263 0.163849,0 0.316129,0.07925 0.316129,0.164608 0,0.04443 0.04908,0.150877 0.109075,0.23652 l 0.109076,0.155729 0.25334,-0.2118 c 0.139341,-0.116486 0.29458,-0.245252 0.344984,-0.286149 0.06881,-0.05585 0.117082,-0.038 0.193748,0.07142 0.146678,0.209402 0.28566,0.180319 0.447276,-0.0936 0.213796,-0.362367 0.554084,-0.54461 0.936402,-0.50152 0.501381,0.0565 0.608973,0.215199 0.608973,0.898139 0,0.71632 -0.03971,0.847874 -0.360622,1.193591 -0.593857,0.639834 -1.046359,0.676678 -1.057553,0.08612 -0.0024,-0.117816 -0.02845,-0.08861 -0.09954,0.111024 -0.103531,0.290577 -0.0437,0.522979 0.134587,0.522979 0.05291,0 0.137832,0.04166 0.188725,0.09254 0.149116,0.149108 0.772464,0.203099 1.042461,0.09028 0.499433,-0.208669 0.639589,0.213903 0.20372,0.614231 -0.142374,0.130764 -0.286925,0.237907 -0.321217,0.238086 -0.03433,1.87e-4 -0.259586,0.09353 -0.500656,0.207429 -0.57013,0.26937 -0.882746,0.269933 -1.252279,0.0024 -0.155541,-0.112671 -0.357222,-0.223532 -0.448189,-0.246369 -0.09098,-0.02283 -0.240189,-0.161893 -0.331596,-0.309036 -0.09141,-0.147135 -0.228008,-0.277018 -0.303549,-0.288628 -0.203997,-0.03139 -0.206076,-0.22562 -0.0033,-0.317964 0.137147,-0.06245 0.175272,-0.130397 0.175272,-0.312249 0,-0.144721 0.0521,-0.279529 0.13806,-0.357336 0.145309,-0.131497 0.182961,-0.343777 0.07305,-0.411719 -0.03579,-0.0221 -0.116397,0.06808 -0.179186,0.200376 -0.06278,0.132305 -0.219903,0.352689 -0.349158,0.489739 -0.129247,0.137041 -0.234996,0.293561 -0.234996,0.347805 0,0.05422 -0.03106,0.09863 -0.06906,0.09863 -0.03799,0 -0.06906,0.122422 -0.06906,0.272052 0,0.14963 -0.03106,0.291254 -0.06906,0.314719 -0.03799,0.02348 -0.06906,0.103392 -0.06906,0.177629 0,0.129458 -0.430741,0.737925 -0.778309,1.099453 -0.09126,0.09492 -0.203075,0.242472 -0.248489,0.327902 -0.04541,0.08542 -0.145643,0.155321 -0.222741,0.155321 -0.07713,0 -0.192493,0.0274 -0.256439,0.06091 -0.06392,0.03351 -0.181836,0.03604 -0.261983,0.0057 z m 4.394803,-3.483709 c -0.0057,-0.102463 -0.159846,-0.08364 -0.19568,0.02381 -0.01932,0.05805 0.01223,0.08394 0.08418,0.06906 0.06335,-0.01313 0.113503,-0.05495 0.111497,-0.09288 z m 53.358194,2.76178 c -0.0922,-0.11113 -0.0395,-0.831111 0.0656,-0.896077 0.031,-0.01916 0.078,-0.150094 0.10442,-0.290951 0.0264,-0.140858 0.0921,-0.318967 0.14589,-0.395796 0.0538,-0.0768 0.098,-0.2182 0.0983,-0.314164 2.3e-4,-0.09597 0.0468,-0.263459 0.10354,-0.372208 0.15205,-0.291531 0.13658,-0.596132 -0.0302,-0.596132 -0.0734,0 -0.15313,0.06213 -0.17723,0.138061 -0.0241,0.07591 -0.072,0.13806 -0.10643,0.13806 -0.0344,0 -0.11097,0.09352 -0.17007,0.207812 -0.14135,0.273349 -1.04733,1.162544 -1.31123,1.28694 -0.1139,0.05373 -0.34688,0.176315 -0.51773,0.2725 -0.33446,0.188294 -0.47591,0.189851 -1.16486,0.0128 -0.25955,-0.06669 -0.43228,-0.163915 -0.57499,-0.323647 -0.18826,-0.21069 -0.20042,-0.255729 -0.15753,-0.583501 0.0651,-0.497232 0.30558,-1.43224 0.41156,-1.599946 0.1746,-0.276317 0.78545,-0.860903 0.91007,-0.870923 0.0699,-0.0057 0.17364,-0.01655 0.23059,-0.0243 0.0569,-0.0082 0.14175,-0.01867 0.18843,-0.0243 0.0467,-0.0057 0.14891,-0.135729 0.22718,-0.289125 0.23179,-0.454362 0.74475,-0.538977 0.91315,-0.150642 0.0448,0.103368 0.15249,0.30381 0.23926,0.445434 0.0868,0.141623 0.15776,0.305742 0.15776,0.364706 0,0.224674 -0.7747,1.534801 -1.10302,1.865362 -0.1449,0.145887 -0.18939,0.377246 -0.0726,0.377246 0.1048,0 0.6963,-0.426378 0.90978,-0.655805 0.10598,-0.113902 0.19417,-0.284755 0.19598,-0.379668 0.006,-0.298445 0.74336,-1.279332 1.06525,-1.416439 0.16597,-0.07069 0.25746,-0.0671 0.51774,0.0203 0.17387,0.05838 0.40395,0.178949 0.51128,0.267935 0.24457,0.202773 0.27782,0.20186 0.39163,-0.01076 0.0508,-0.09492 0.11324,-0.172582 0.13875,-0.172582 0.0255,0 0.19437,-0.139789 0.37525,-0.310642 0.22788,-0.215257 0.38796,-0.310642 0.52133,-0.310642 0.23371,0 0.27627,0.09494 0.27627,0.616229 0,0.407047 0.0785,0.547529 0.36241,0.648198 0.0703,0.02495 0.12081,0.113193 0.12081,0.211025 0,0.227193 -0.50383,0.526461 -0.88631,0.526461 -0.22076,0 -0.3093,-0.04085 -0.44921,-0.207095 -0.0958,-0.113902 -0.23801,-0.207095 -0.31591,-0.207095 -0.16724,0 -0.44543,0.404862 -0.52301,0.76118 -0.0287,0.13188 -0.0948,0.301053 -0.14694,0.37595 -0.0533,0.07672 -0.0947,0.308539 -0.0947,0.530921 0,0.217115 -0.0324,0.41476 -0.0719,0.439212 -0.0395,0.02446 -0.12049,0.165782 -0.17982,0.314066 -0.19773,0.494199 -0.90052,0.856704 -1.12844,0.582067 z m -1.91469,-2.459357 c 0.41536,-0.328318 0.57443,-0.618642 0.449,-0.819475 -0.15265,-0.244437 -0.34611,-0.23127 -0.57117,0.03889 -0.25669,0.308115 -0.47837,0.934218 -0.35791,1.010818 0.11163,0.07102 0.0796,0.08635 0.48008,-0.230226 z m 17.00836,2.229034 c -0.21374,-0.236186 -0.10555,-0.609853 0.32785,-1.132344 0.16366,-0.197294 0.26489,-0.257914 0.4323,-0.258868 0.12024,-6.85e-4 0.23161,0.03759 0.24752,0.08505 0.0581,0.173585 -0.0946,0.619206 -0.32913,0.960154 -0.13229,0.192329 -0.24054,0.377263 -0.24054,0.410969 0,0.11135 -0.3216,0.06368 -0.438,-0.06498 z M 88.065175,41.124007 c -0.183842,-0.183842 0.09125,-0.939403 0.468458,-1.286654 0.308449,-0.283948 0.507268,-0.348963 0.693678,-0.226818 0.205847,0.134881 0.248685,0.335282 0.122129,0.571362 -0.05724,0.106849 -0.179145,0.340654 -0.27083,0.519563 -0.134399,0.262268 -0.216406,0.339105 -0.423239,0.396546 -0.295592,0.0821 -0.524032,0.09216 -0.590196,0.02601 z"
       id="path1"
       sodipodi:nodetypes="cssssssscssssscsssssccssssscssssssssccsssscssssssssssssssssssscssssssscssscsssscssssssssssssssssssssssssssssscsssssssssscsssssssscsssssscscsssssssssssssscssssssssssssssssssssssccsssssssscsssscsssssssssssssscsssssssssssssssscsssssssssssssssssssssssscsssssssssscsssssscsssssssscssssssssscsssssssccssssssssscsssssscssssssssssscsssssssssssssssssssssssssssssssscscsssscsssssssssssssscccsssscssssssssssssssscssssssssssssssscssssssssssscsscscsssscsssssssssssssssssssssssccsssscccsssscccsscsssssssssssscsccssssssssssssssssssssssscsssssssssscsssccsssssssssssssssscssssssssssssscsssssscccsssssscssssssssssssssssssccsssssssssscsssssssssscccssssssssssssssssssssssssssssssssssssssssssssssssssss" /></g></svg>
