<?xml version="1.0" encoding="UTF-8" standalone="no"?>
<!-- Created with Inkscape (http://www.inkscape.org/) -->

<svg
   width="210mm"
   height="297mm"
   viewBox="0 0 210.00001 297"
   version="1.1"
   id="svg5"
   inkscape:version="1.4.1 (93de688d07, 2025-03-30)"
   sodipodi:docname="cover_general_preface.svg"
   xml:space="preserve"
   xmlns:inkscape="http://www.inkscape.org/namespaces/inkscape"
   xmlns:sodipodi="http://sodipodi.sourceforge.net/DTD/sodipodi-0.dtd"
   xmlns="http://www.w3.org/2000/svg"
   xmlns:svg="http://www.w3.org/2000/svg"><sodipodi:namedview
     id="namedview7"
     pagecolor="#ffffff"
     bordercolor="#000000"
     borderopacity="1"
     inkscape:showpageshadow="0"
     inkscape:pageopacity="1"
     inkscape:pagecheckerboard="0"
     inkscape:deskcolor="#ffffff"
     inkscape:document-units="mm"
     showgrid="false"
     inkscape:zoom="0.89993327"
     inkscape:cx="336.69163"
     inkscape:cy="862.84176"
     inkscape:window-width="1920"
     inkscape:window-height="1017"
     inkscape:window-x="0"
     inkscape:window-y="1026"
     inkscape:window-maximized="1"
     inkscape:current-layer="layer3"
     showguides="true"><inkscape:grid
       type="xygrid"
       id="grid132"
       originx="0"
       originy="17.455399"
       spacingy="1"
       spacingx="1"
       units="mm"
       visible="false" /></sodipodi:namedview><defs
     id="defs2"><clipPath
       clipPathUnits="userSpaceOnUse"
       id="clipPath12"><path
         d="M 0,0 H 27.566244 V 31.50001 H 0 Z"
         transform="matrix(0.99999998,0,0,-0.99999998,-8.3502838,0.096022)"
         id="path12-3" /></clipPath><clipPath
       clipPathUnits="userSpaceOnUse"
       id="clipPath13"><path
         d="M 0,0 H 27.566244 V 31.50001 H 0 Z"
         transform="matrix(0.99999998,0,0,-0.99999998,-9.7235758,9.0960218)"
         id="path13-6" /></clipPath><clipPath
       clipPathUnits="userSpaceOnUse"
       id="clipPath14"><path
         d="M 0,0 H 27.566244 V 31.50001 H 0 Z"
         transform="matrix(0.99999998,0,0,-0.99999998,0,31.500009)"
         id="path14-7" /></clipPath><clipPath
       clipPathUnits="userSpaceOnUse"
       id="clipPath15"><path
         d="M 0,0 H 27.566244 V 31.50001 H 0 Z"
         transform="matrix(0.99999998,0,0,-0.99999998,0,31.500009)"
         id="path15-5" /></clipPath><clipPath
       clipPathUnits="userSpaceOnUse"
       id="clipPath16"><path
         d="M 0,0 H 27.566244 V 31.50001 H 0 Z"
         transform="matrix(0.99999998,0,0,-0.99999998,0,31.500009)"
         id="path16-3" /></clipPath><clipPath
       clipPathUnits="userSpaceOnUse"
       id="clipPath17"><path
         d="M 0,0 H 27.566244 V 31.50001 H 0 Z"
         transform="matrix(0.99999998,0,0,-0.99999998,0,31.500009)"
         id="path17-5" /></clipPath><clipPath
       clipPathUnits="userSpaceOnUse"
       id="clipPath18"><path
         d="M 0,0 H 27.566244 V 31.50001 H 0 Z"
         transform="matrix(0.99999998,0,0,-0.99999998,0,31.500009)"
         id="path18-6" /></clipPath><clipPath
       clipPathUnits="userSpaceOnUse"
       id="clipPath19"><path
         d="M 0,0 H 27.566244 V 31.50001 H 0 Z"
         transform="matrix(0.99999998,0,0,-0.99999998,0,31.500009)"
         id="path19-2" /></clipPath><clipPath
       clipPathUnits="userSpaceOnUse"
       id="clipPath20"><path
         d="M 0,0 H 27.566244 V 31.50001 H 0 Z"
         transform="matrix(0.99999998,0,0,-0.99999998,0,31.500009)"
         id="path20-9" /></clipPath><clipPath
       clipPathUnits="userSpaceOnUse"
       id="clipPath21"><path
         d="M 0,0 H 27.566244 V 31.50001 H 0 Z"
         transform="matrix(0.99999998,0,0,-0.99999998,-9.7235758,18.096004)"
         id="path21-1" /></clipPath><clipPath
       clipPathUnits="userSpaceOnUse"
       id="clipPath9"><path
         d="M 0,0 H 27.566244 V 31.50001 H 0 Z"
         transform="matrix(0.99999998,0,0,-0.99999998,-8.3502838,0.096022)"
         id="path9" /></clipPath><clipPath
       clipPathUnits="userSpaceOnUse"
       id="clipPath10"><path
         d="M 0,0 H 27.566244 V 31.50001 H 0 Z"
         transform="matrix(0.99999998,0,0,-0.99999998,-9.7235758,9.0960218)"
         id="path10" /></clipPath><clipPath
       clipPathUnits="userSpaceOnUse"
       id="clipPath11"><path
         d="M 0,0 H 27.566244 V 31.50001 H 0 Z"
         transform="matrix(0.99999998,0,0,-0.99999998,0,31.500009)"
         id="path11" /></clipPath><clipPath
       clipPathUnits="userSpaceOnUse"
       id="clipPath12-2"><path
         d="M 0,0 H 27.566244 V 31.50001 H 0 Z"
         transform="matrix(0.99999998,0,0,-0.99999998,0,31.500009)"
         id="path12" /></clipPath><clipPath
       clipPathUnits="userSpaceOnUse"
       id="clipPath13-8"><path
         d="M 0,0 H 27.566244 V 31.50001 H 0 Z"
         transform="matrix(0.99999998,0,0,-0.99999998,0,31.500009)"
         id="path13" /></clipPath><clipPath
       clipPathUnits="userSpaceOnUse"
       id="clipPath14-9"><path
         d="M 0,0 H 27.566244 V 31.50001 H 0 Z"
         transform="matrix(0.99999998,0,0,-0.99999998,0,31.500009)"
         id="path14" /></clipPath><clipPath
       clipPathUnits="userSpaceOnUse"
       id="clipPath15-7"><path
         d="M 0,0 H 27.566244 V 31.50001 H 0 Z"
         transform="matrix(0.99999998,0,0,-0.99999998,0,31.500009)"
         id="path15" /></clipPath><clipPath
       clipPathUnits="userSpaceOnUse"
       id="clipPath16-3"><path
         d="M 0,0 H 27.566244 V 31.50001 H 0 Z"
         transform="matrix(0.99999998,0,0,-0.99999998,0,31.500009)"
         id="path16" /></clipPath><clipPath
       clipPathUnits="userSpaceOnUse"
       id="clipPath17-6"><path
         d="M 0,0 H 27.566244 V 31.50001 H 0 Z"
         transform="matrix(0.99999998,0,0,-0.99999998,0,31.500009)"
         id="path17" /></clipPath><clipPath
       clipPathUnits="userSpaceOnUse"
       id="clipPath18-1"><path
         d="M 0,0 H 27.566244 V 31.50001 H 0 Z"
         transform="matrix(0.99999998,0,0,-0.99999998,-9.7235758,18.096004)"
         id="path18" /></clipPath></defs><g
     inkscape:groupmode="layer"
     id="layer3"
     inkscape:label="Cover"
     style="display:inline"
     transform="translate(0,-6.2799988)"><rect
       style="font-variation-settings:normal;opacity:1;vector-effect:none;fill:#0088aa;fill-opacity:1;fill-rule:evenodd;stroke:none;stroke-width:2.43108;stroke-linecap:butt;stroke-linejoin:miter;stroke-miterlimit:4;stroke-dasharray:none;stroke-dashoffset:0;stroke-opacity:1;-inkscape-stroke:none;stop-color:#000000;stop-opacity:1"
       id="rect1"
       width="212"
       height="299"
       x="-1"
       y="5.2799902" /><path
       style="fill:#ffffff;stroke-width:1.72319"
       d="m 56.574966,62.693106 c -0.780781,-0.272735 -0.833691,-0.369378 -0.689694,-1.259689 0.05981,-0.369799 0.10396,-0.693491 0.09812,-0.719315 -0.01258,-0.05538 0.202226,-0.437652 0.425395,-0.757188 0.08686,-0.12438 0.214174,-0.339596 0.282895,-0.478253 0.130222,-0.26274 2.005281,-2.160883 2.134606,-2.160883 0.04066,0 0.223336,-0.145145 0.405926,-0.322559 0.569686,-0.553515 0.613989,-0.590467 0.857898,-0.715521 0.130791,-0.06705 0.255809,-0.168856 0.277818,-0.226202 0.022,-0.05735 0.115661,-0.104271 0.208133,-0.104271 0.09247,0 0.186541,-0.02981 0.209062,-0.06626 0.09877,-0.159827 1.869814,-0.970499 2.034021,-0.93105 0.03212,0.0077 0.139442,-0.0199 0.238478,-0.06137 0.387538,-0.162239 0.706958,-0.238467 0.81905,-0.195454 0.06453,0.02477 0.174055,0.01955 0.243383,-0.01155 0.06932,-0.03116 0.174672,-0.06536 0.234096,-0.07603 0.05942,-0.01068 0.253905,-0.05549 0.432178,-0.0996 0.178272,-0.04411 0.583439,-0.07332 0.900367,-0.0649 0.316931,0.0085 0.803129,-0.0085 1.080443,-0.03741 0.362647,-0.03793 0.582084,-0.02484 0.781592,0.0467 l 0.277388,0.09945 0.810142,-0.795859 c 0.445578,-0.437721 0.904193,-0.878801 1.019144,-0.98018 0.114954,-0.101376 0.326289,-0.316628 0.46964,-0.478332 0.143353,-0.161705 0.345935,-0.349899 0.450185,-0.418205 0.104254,-0.06831 0.189544,-0.166477 0.189544,-0.218142 0,-0.08074 0.446929,-0.568983 1.481222,-1.618191 0.136684,-0.138665 0.248287,-0.286202 0.248003,-0.327877 -2.85e-4,-0.04168 0.160653,-0.252364 0.357623,-0.468193 0.391869,-0.429373 0.566617,-0.756985 0.460421,-0.863183 -0.08302,-0.08302 -0.586021,0.04787 -0.727448,0.189289 -0.05578,0.05578 -0.142888,0.10141 -0.193576,0.10141 -0.0507,0 -0.244572,0.08103 -0.430841,0.180074 -0.186271,0.09903 -0.447932,0.180072 -0.581469,0.180072 -0.33135,0 -0.997959,-0.155674 -1.063861,-0.248447 -0.119572,-0.168322 -0.182538,-0.553851 -0.126793,-0.776368 0.155726,-0.621631 0.234712,-0.97734 0.268277,-1.208097 0.0432,-0.297011 0.246645,-0.792324 0.325437,-0.792324 0.03028,0 0.05552,-0.07292 0.05611,-0.162066 5.84e-4,-0.08914 0.04793,-0.243101 0.105201,-0.342142 0.187103,-0.323557 0.242932,-0.461341 0.394012,-0.972396 0.162825,-0.550796 0.335005,-0.786886 1.230656,-1.687482 0.753647,-0.75781 1.014849,-0.978402 1.376838,-1.162777 0.172502,-0.08787 0.410879,-0.230839 0.529728,-0.317727 0.118849,-0.08688 0.329535,-0.213309 0.468192,-0.280936 0.138666,-0.06764 0.349343,-0.18397 0.468191,-0.258541 0.118849,-0.07458 0.256958,-0.13796 0.30691,-0.140855 0.04996,-0.0029 0.228226,-0.06955 0.396164,-0.148108 0.404611,-0.18929 1.365812,-0.513382 1.405348,-0.473849 0.01723,0.01723 0.117056,-0.0017 0.221935,-0.04218 0.104874,-0.04039 0.476914,-0.07472 0.826761,-0.07625 0.550354,-0.0024 0.68754,0.02323 1.017865,0.190353 0.20998,0.106235 0.453698,0.269715 0.541597,0.363279 0.208365,0.221795 0.21223,0.631979 0.0086,0.907469 -0.08319,0.112525 -0.151263,0.221522 -0.151263,0.242214 0,0.06556 -0.517312,0.573264 -0.676027,0.663461 -0.381471,0.216789 -1.220046,0.601982 -1.248527,0.573503 -0.06279,-0.06279 0.09005,-0.264451 0.393616,-0.519323 0.786118,-0.660045 0.758931,-0.626031 0.665037,-0.832108 -0.06686,-0.14673 -0.151089,-0.19606 -0.384182,-0.224992 -0.551312,-0.06843 -1.952797,0.01086 -2.228543,0.126052 -0.144249,0.06028 -0.310027,0.109595 -0.368385,0.109595 -0.05837,0 -0.126138,0.03242 -0.150625,0.07203 -0.02449,0.03961 -0.110629,0.07203 -0.191445,0.07203 -0.08082,0 -0.24907,0.04548 -0.373905,0.101065 -0.124828,0.0556 -0.459602,0.187172 -0.743924,0.292405 -0.284324,0.105235 -0.555703,0.238023 -0.603064,0.29509 -0.04736,0.05708 -0.138872,0.104563 -0.203343,0.105563 -0.06449,9.64e-4 -0.252748,0.129723 -0.418376,0.286074 -0.340739,0.321648 -1.17546,1.464744 -1.17546,1.609715 0,0.05237 -0.02087,0.116092 -0.04636,0.141578 -0.07242,0.07242 -0.385108,0.86628 -0.385482,0.978667 -5e-4,0.151056 -0.299614,0.964093 -0.40021,1.087838 -0.0483,0.05942 -0.105495,0.221491 -0.12707,0.360146 -0.02158,0.138648 -0.07786,0.420532 -0.125069,0.626389 -0.101169,0.44114 -0.05143,0.710938 0.140285,0.761074 0.13939,0.03644 1.419291,-0.444302 1.692693,-0.635801 0.0812,-0.05687 0.201303,-0.103392 0.266914,-0.103392 0.187067,0 0.305455,-0.367512 0.219118,-0.680201 l -0.07277,-0.263534 0.445393,-0.32242 c 0.727432,-0.526589 0.758153,-0.54756 0.799364,-0.545679 0.02174,9.64e-4 0.141509,-0.02746 0.266147,-0.06318 0.255644,-0.07332 0.452138,0.0012 0.566424,0.21471 0.05479,0.102376 0.03622,0.223828 -0.07327,0.479244 -0.08066,0.188168 -0.157759,0.437483 -0.17132,0.554037 -0.01361,0.116557 -0.05459,0.232387 -0.09116,0.257408 -0.03657,0.02502 -0.140441,0.205103 -0.230816,0.400186 -0.177112,0.382298 -0.721888,1.090638 -0.970883,1.26238 -0.266672,0.183936 -0.333371,0.276475 -0.333371,0.462528 0,0.194835 -0.757805,1.083514 -0.866605,1.016272 -0.03267,-0.02019 -0.0795,0.02663 -0.104081,0.104029 -0.05768,0.181697 -0.795798,0.920373 -1.052167,1.052947 -0.220113,0.113818 -0.514082,0.45311 -0.463501,0.53495 0.01799,0.02912 -0.103994,0.186887 -0.271091,0.350598 -0.167098,0.163721 -0.54691,0.547115 -0.844033,0.852009 -0.297122,0.304892 -0.718494,0.737332 -0.936383,0.960975 -0.21789,0.223644 -0.500505,0.525699 -0.628032,0.671233 -0.127535,0.145542 -0.264144,0.264607 -0.303592,0.264607 -0.03945,0 -0.10739,0.06665 -0.150987,0.148126 -0.0436,0.08147 -0.16777,0.148574 -0.236629,0.211523 l -0.929844,0.850144 c -0.119813,0.109543 -0.40905,0.387395 -0.672942,0.635397 -0.527802,0.496005 -1.006463,0.891963 -1.078265,0.891963 -0.04268,0 -0.134582,0.129171 -0.204234,0.287046 -0.07458,0.169045 -0.255303,0.379441 -0.439627,0.511811 -0.172147,0.123623 -0.327508,0.280311 -0.345261,0.348198 -0.01775,0.0679 -0.150297,0.179432 -0.294529,0.247877 -0.144231,0.06844 -0.262252,0.156362 -0.262252,0.195357 0,0.03899 -0.05404,0.09164 -0.120089,0.116987 -0.06605,0.02535 -0.310521,0.224873 -0.543271,0.443395 -0.629809,0.59131 -1.989502,1.522827 -2.222799,1.522827 -0.17546,0 -0.571258,0.194787 -0.571258,0.281138 0,0.05923 -0.539147,0.343598 -0.961721,0.507254 -0.170235,0.06593 -0.19031,0.09774 -0.117229,0.185802 0.07133,0.08594 0.06665,0.106253 -0.02444,0.106253 -0.06193,0 -0.13272,-0.03253 -0.157293,-0.07229 -0.04663,-0.07544 -0.375947,-0.02363 -0.508826,0.08007 -0.04225,0.03297 -0.198421,0.02637 -0.347054,-0.01465 -0.172181,-0.04754 -0.301127,-0.04968 -0.355362,-0.0059 -0.144095,0.116299 -0.789277,0.151659 -1.057523,0.05795 z m 2.016825,-0.920021 c 1.05132,-0.501063 1.820672,-0.925383 2.376973,-1.310972 0.376352,-0.260864 0.895422,-0.618675 1.153488,-0.795138 0.258064,-0.176467 0.586976,-0.452032 0.730915,-0.61237 0.143939,-0.160343 0.378149,-0.347052 0.520466,-0.414918 0.142319,-0.06786 0.275246,-0.174271 0.295395,-0.236453 0.02014,-0.06219 0.156036,-0.194091 0.301984,-0.293132 0.341531,-0.231777 0.795567,-0.652892 2.118696,-1.965075 0.590474,-0.585589 1.073589,-1.094186 1.073589,-1.130214 0,-0.115041 -0.09752,-0.125846 -0.576236,-0.06377 -0.650004,0.08428 -1.728517,0.212368 -1.944795,0.230981 -0.209078,0.01799 -0.732857,0.168666 -1.044428,0.300455 -0.118849,0.05027 -0.329534,0.113472 -0.468191,0.140458 -0.35639,0.06936 -0.804359,0.283906 -0.965554,0.46243 -0.07548,0.08358 -0.205122,0.152055 -0.288118,0.152158 -0.203827,2.59e-4 -1.843595,1.093445 -1.843595,1.22907 0,0.03699 -0.04041,0.06727 -0.08978,0.06727 -0.09472,0 -1.92704,1.847326 -1.92704,1.942831 0,0.03061 -0.162068,0.258374 -0.360149,0.50617 -0.198081,0.247797 -0.361179,0.519337 -0.362439,0.603423 -0.0013,0.08409 -0.04989,0.215806 -0.108044,0.292705 -0.127826,0.169011 -0.13708,0.540963 -0.01985,0.798265 0.08413,0.184627 0.09874,0.188125 0.702287,0.167943 0.339007,-0.01138 0.664996,-0.04378 0.724421,-0.07212 z m 13.037332,-3.691298 c 0,-0.232217 -0.183731,-0.288518 -0.35203,-0.107872 -0.289608,0.310857 -0.28147,-0.200227 0.0097,-0.609137 0.09147,-0.128447 0.164789,-0.364603 0.183589,-0.591231 0.026,-0.313548 0.06643,-0.403324 0.239077,-0.530971 0.141629,-0.104701 0.207782,-0.216844 0.207782,-0.352177 0,-0.154399 0.08009,-0.258354 0.360149,-0.467432 0.198079,-0.147885 0.360146,-0.312042 0.360146,-0.364801 0,-0.257024 2.21324,-2.206224 2.505083,-2.206224 0.0377,0 0.145851,-0.05953 0.240331,-0.132307 0.19148,-0.147471 1.167584,-0.484882 1.612369,-0.557336 0.569982,-0.09285 1.578609,-0.08409 1.827539,0.01586 0.133583,0.05364 0.286608,0.09753 0.340036,0.09753 0.05344,0 0.247239,0.105339 0.430693,0.234096 0.337406,0.236802 0.679072,0.769214 0.679072,1.05819 0,0.172752 -0.333299,0.364392 -0.633749,0.364392 -0.17414,0 -0.230442,-0.04817 -0.339779,-0.290622 -0.270721,-0.600355 -0.568448,-0.76902 -1.475473,-0.83587 -0.501954,-0.03699 -0.570836,-0.02409 -0.972398,0.182279 -0.237699,0.122157 -0.473985,0.222504 -0.525083,0.223005 -0.215077,0.002 -0.683533,0.31741 -1.149346,0.773574 -0.273995,0.26832 -0.695969,0.646116 -0.937718,0.839549 -0.459991,0.368055 -0.589193,0.574561 -0.614171,0.981643 -0.01171,0.190396 0.02113,0.262876 0.148039,0.327107 0.08968,0.04539 0.25802,0.225912 0.374108,0.401171 0.337732,0.509882 0.532339,0.651406 1.063824,0.773645 0.68856,0.158362 2.25213,0.149315 3.04493,-0.01763 0.867066,-0.18258 1.801581,-0.455906 2.12831,-0.622481 0.15352,-0.07827 0.337535,-0.142302 0.408929,-0.142302 0.07139,0 0.186089,-0.0315 0.254881,-0.07 0.06879,-0.0385 0.404698,-0.197206 0.746463,-0.352677 0.341765,-0.155466 0.643501,-0.318447 0.670523,-0.362171 0.02702,-0.04374 0.109337,-0.0795 0.18294,-0.0795 0.0736,0 0.144611,-0.0274 0.157811,-0.0609 0.01327,-0.0335 0.194178,-0.182395 0.402163,-0.330888 0.207986,-0.148488 0.378155,-0.292375 0.378155,-0.319732 0,-0.02737 0.10017,-0.108924 0.222611,-0.181242 0.122434,-0.07232 0.454488,-0.359728 0.737896,-0.638672 0.392671,-0.416121 1.059776,-1.274477 1.185983,-1.342061 0.08335,-0.04459 0.236583,-0.250425 0.34053,-0.457376 l 0.188994,-0.376277 -0.193612,-0.154381 c -0.178161,-0.142061 -0.263384,-0.152555 -1.067912,-0.131481 -0.480863,0.01258 -1.058668,0.0402 -1.28401,0.06135 -0.273536,0.02567 -0.492617,0.0038 -0.659157,-0.06578 -0.265865,-0.111094 -0.551795,-0.496047 -0.551795,-0.742913 0,-0.165633 0.24956,-0.373738 0.448205,-0.373738 0.149109,0 0.15016,-0.0044 0.05778,-0.247412 -0.05706,-0.150074 -0.04885,-0.184764 0.04372,-0.184764 0.07172,0 0.0986,0.04007 0.07251,0.108045 -0.0636,0.165755 0.106114,0.1326 0.68706,-0.134202 0.29011,-0.133238 0.657127,-0.284049 0.81559,-0.33515 0.74725,-0.240969 0.879707,-0.279098 1.095657,-0.315395 0.127224,-0.02139 0.25068,-0.0076 0.274362,0.03079 0.02368,0.03832 0.105977,0.06967 0.182866,0.06967 0.160309,0 0.172415,0.07968 0.05955,0.391785 -0.05761,0.15931 -0.182128,0.272548 -0.441269,0.401278 -0.434872,0.216023 -0.659181,0.399511 -0.601832,0.492305 0.02328,0.03769 0.277468,0.0918 0.564843,0.120245 0.854065,0.08454 1.006641,0.126793 1.328466,0.367812 0.296326,0.221925 0.379544,0.658491 0.205308,1.07705 -0.122795,0.294974 -0.657813,0.895064 -0.798014,0.895064 -0.04448,0 -0.124708,0.08914 -0.178268,0.19808 -0.161292,0.328046 -1.184344,1.384688 -1.489849,1.538764 -0.449486,0.226693 -1.174221,0.73084 -1.174221,0.816821 0,0.136064 -0.792832,0.467809 -1.013783,0.42419 -0.12962,-0.02559 -0.249131,0.01706 -0.397017,0.141423 -0.116367,0.09791 -0.357046,0.220198 -0.534849,0.271746 -0.177803,0.05154 -0.414903,0.168614 -0.526886,0.260133 -0.111991,0.09152 -0.261978,0.16641 -0.33332,0.16641 -0.07134,0 -0.166823,0.04472 -0.212178,0.09936 -0.08007,0.09648 -0.466611,0.218461 -0.626556,0.197713 -0.04353,-0.0057 -0.20807,0.03522 -0.365666,0.09083 -0.157586,0.0556 -0.371731,0.08481 -0.475857,0.06491 -0.125724,-0.02403 -0.254163,0.01482 -0.38235,0.115644 -0.114489,0.09007 -0.298966,0.152262 -0.453424,0.152882 -0.143215,5.76e-4 -0.406256,0.05402 -0.58453,0.11878 -0.363123,0.131894 -2.605181,0.203524 -2.819438,0.09009 -0.06508,-0.03447 -0.291977,-0.06777 -0.504207,-0.07401 -0.212229,-0.0062 -0.547939,-0.07177 -0.746019,-0.145628 -0.198081,-0.07384 -0.411037,-0.134271 -0.473234,-0.134289 -0.195336,-6.3e-5 -0.715253,-0.498482 -0.715253,-0.685678 0,-0.269335 -0.119538,-0.275153 -0.398606,-0.0194 -0.283482,0.259789 -0.284518,0.417133 -0.0037,0.545132 0.09136,0.04163 0.183981,0.144007 0.205819,0.227513 0.03153,0.120573 -0.0092,0.1722 -0.197299,0.250852 -0.13036,0.05447 -0.259081,0.134754 -0.286063,0.178405 -0.08466,0.136978 -0.184616,0.08664 -0.184616,-0.09298 z m 65.979007,-4.777185 c -0.91494,-0.04404 -1.71891,-0.330666 -1.62368,-0.578827 0.0203,-0.0529 -0.076,-0.195373 -0.21414,-0.316604 -0.13804,-0.121226 -0.25104,-0.262213 -0.25104,-0.313296 0,-0.05108 -0.0486,-0.111525 -0.10805,-0.134339 -0.0594,-0.0228 -0.10805,-0.104599 -0.10805,-0.181778 0,-0.07718 -0.0405,-0.156672 -0.0902,-0.176648 -0.0507,-0.02043 -0.031,-0.03882 0.0448,-0.04201 0.1158,-0.0048 0.12131,-0.02213 0.0386,-0.121796 -0.0529,-0.06386 -0.0882,-0.234025 -0.0782,-0.378153 0.0217,-0.315532 0.22485,-0.813355 0.31029,-0.760557 0.0336,0.02078 0.0429,-0.0097 0.0207,-0.06748 -0.0251,-0.0655 0.0155,-0.123312 0.10994,-0.152985 0.0828,-0.02624 0.13165,-0.07801 0.10873,-0.115041 -0.0393,-0.06351 0.17553,-0.419869 0.37995,-0.630387 0.0512,-0.05271 0.0769,-0.122105 0.057,-0.154191 -0.0198,-0.03209 0.0429,-0.110044 0.13923,-0.173235 0.15871,-0.103994 0.18598,-0.104254 0.2875,-0.0028 0.092,0.09199 0.11218,0.09381 0.11218,0.01016 0,-0.116815 0.22865,-0.343179 0.37183,-0.368114 0.0529,-0.0093 0.27776,-0.104012 0.49947,-0.210641 0.22172,-0.106632 0.49127,-0.193862 0.59899,-0.193862 0.10769,0 0.26666,-0.03834 0.3532,-0.0852 0.0865,-0.04686 0.24402,-0.07894 0.34998,-0.07131 0.23775,0.01723 0.45647,-0.260976 0.53025,-0.674275 0.0507,-0.283326 0.5921,-1.546749 0.69468,-1.620754 0.0293,-0.02119 0.10288,-0.156742 0.16319,-0.3012 0.0603,-0.144473 0.14268,-0.282997 0.18286,-0.307852 0.0402,-0.02484 0.0731,-0.185518 0.0731,-0.357028 v -0.311835 l -0.30613,-0.002 c -0.16835,-0.0012 -0.4502,-0.01756 -0.62632,-0.0365 -0.37772,-0.04061 -0.65221,0.102943 -0.65221,0.341132 0,0.08692 -0.0476,0.220942 -0.1058,0.297843 -0.0581,0.0769 -0.10683,0.208375 -0.10805,0.292169 -9.6e-4,0.0838 -0.067,0.234767 -0.14629,0.335495 -0.0793,0.100721 -0.14406,0.292004 -0.14406,0.425059 0,0.188281 -0.0758,0.324547 -0.34215,0.614589 -0.37655,0.410159 -0.60312,0.525345 -1.03336,0.525345 -0.30597,0 -0.43418,-0.139768 -0.28884,-0.314889 0.10201,-0.122916 0.29399,-0.749988 0.29501,-0.963633 6.4e-4,-0.12967 -0.0395,-0.162067 -0.20089,-0.162067 -0.11098,0 -0.23286,0.03116 -0.27094,0.06926 -0.038,0.03808 -0.44163,0.09099 -0.89677,0.117574 -0.45513,0.02657 -0.88558,0.06956 -0.95658,0.09551 -0.071,0.02595 -0.42003,0.02168 -0.77564,-0.0094 -0.83252,-0.07305 -1.35742,-0.317292 -1.3486,-0.627537 0.004,-0.110421 -0.0138,-0.233364 -0.0391,-0.273224 -0.0503,-0.08156 0.14613,-0.647053 0.28246,-0.812641 0.0489,-0.05942 0.11132,-0.228439 0.13855,-0.375588 0.0594,-0.320555 0.0487,-0.311115 0.98865,-0.875567 0.66891,-0.401747 0.77127,-0.442236 0.98072,-0.387962 0.19797,0.0513 0.22659,0.085 0.18645,0.219599 -0.026,0.08745 -0.10081,0.236478 -0.16594,0.331171 -0.14837,0.21558 -0.18759,0.284173 -0.3007,0.526859 -0.05,0.107148 -0.20125,0.247229 -0.33623,0.311282 -0.13493,0.06405 -0.27406,0.191773 -0.30904,0.283822 -0.035,0.09206 -0.10235,0.1803 -0.14991,0.196112 -0.0543,0.01811 -0.0673,0.08831 -0.0352,0.189848 0.0448,0.141113 0.0839,0.155191 0.31567,0.113472 0.14545,-0.02619 0.29996,-0.07552 0.34321,-0.109647 0.0433,-0.0341 0.10167,-0.03893 0.12993,-0.01068 0.0282,0.02823 0.0739,0.01918 0.1015,-0.0201 0.0275,-0.03927 0.13923,-0.110612 0.24834,-0.158516 0.37652,-0.165428 0.57853,-0.694542 0.42446,-1.111771 -0.0338,-0.09171 -0.0829,-0.304511 -0.10891,-0.47288 -0.0363,-0.234843 -0.0243,-0.306126 0.0518,-0.306126 0.0546,0 0.18553,-0.06791 0.29106,-0.150935 0.17771,-0.139785 0.21094,-0.143335 0.45013,-0.04793 0.142,0.05665 0.29936,0.181295 0.34961,0.27698 0.27881,0.530964 0.27836,0.523621 0.061,0.994268 -0.15715,0.340385 -0.24831,0.453465 -0.39086,0.484682 -0.10218,0.02239 -0.24455,0.118797 -0.31622,0.214217 -0.0717,0.09543 -0.19214,0.173502 -0.26772,0.173502 -0.0756,0 -0.2088,0.0826 -0.29604,0.183555 -0.0872,0.100962 -0.23153,0.188885 -0.32068,0.195402 -0.0891,0.0066 -0.16197,0.02926 -0.16197,0.05055 2e-5,0.02128 -0.17008,0.03869 -0.37816,0.03869 -0.32997,0 -0.38096,0.01938 -0.3999,0.152107 -0.0155,0.113075 0.0426,0.182599 0.22884,0.270991 0.20773,0.09858 0.38987,0.111043 1.06613,0.0729 0.44858,-0.0253 0.99386,-0.05352 1.21176,-0.06274 0.21789,-0.0092 0.461,-0.04324 0.54022,-0.07558 0.23109,-0.09436 0.47689,-0.395422 0.659,-0.807179 0.18207,-0.411696 0.21204,-0.594919 0.0974,-0.594919 -0.0396,0 -0.0721,0.03242 -0.0721,0.07203 0,0.03961 -0.0567,0.07223 -0.12596,0.07248 -0.0693,2.45e-4 -0.2189,0.04887 -0.33238,0.108044 -0.20526,0.107046 -0.47796,0.144956 -0.47796,0.06644 0,-0.110491 0.17896,-0.226537 0.94982,-0.61596 0.14595,-0.07377 0.28571,-0.166789 0.31038,-0.206703 0.0247,-0.03991 0.10373,-0.07257 0.17582,-0.07257 0.072,0 0.17128,-0.04861 0.22067,-0.108045 0.0493,-0.05942 0.16491,-0.108045 0.25679,-0.108045 0.092,0 0.27433,-0.06146 0.40535,-0.136597 0.29096,-0.16684 0.52242,-0.104564 0.53524,0.144007 0.005,0.09497 0.012,0.226125 0.0179,0.291453 0.012,0.161136 0.53169,0.421442 0.84083,0.421442 0.21599,0 0.26784,-0.0352 0.37127,-0.252102 0.0662,-0.138666 0.14664,-0.252104 0.1789,-0.252104 0.0322,0 0.0588,-0.05698 0.0588,-0.12662 0,-0.154036 0.33797,-0.816203 0.47061,-0.922076 0.0526,-0.04196 0.19826,-0.291225 0.32373,-0.553909 0.28393,-0.594403 1.07473,-1.377288 1.50945,-1.494344 0.15578,-0.04194 0.3041,-0.110078 0.32963,-0.151418 0.0535,-0.08656 0.59457,-0.01654 0.73251,0.09484 0.0487,0.03934 0.0863,0.14101 0.0837,0.225953 -0.004,0.08494 0.0181,0.274193 0.0461,0.420559 0.12321,0.641135 -0.16732,1.292305 -0.6212,1.391999 -0.1282,0.02816 -0.25005,0.116729 -0.29437,0.214021 -0.0415,0.09128 -0.16112,0.184255 -0.26551,0.206596 -0.12166,0.02604 -0.23084,0.125638 -0.304,0.277473 -0.0627,0.130273 -0.18496,0.272563 -0.27149,0.316211 -0.2433,0.122709 -0.58677,0.450892 -0.58677,0.560642 0,0.117023 0.17488,0.277561 0.23588,0.216547 0.0777,-0.07762 0.55418,0.124295 0.66426,0.281447 0.2071,0.295665 0.13648,0.558308 -0.27052,1.00591 -0.20765,0.228357 -0.43233,0.414734 -0.49933,0.414168 -0.067,-5.65e-4 -0.14182,0.03138 -0.16629,0.071 -0.0245,0.03961 -0.13993,0.07203 -0.25635,0.07203 -0.11648,0 -0.21183,0.03242 -0.21183,0.07203 0,0.03961 -0.18071,0.07203 -0.40155,0.07203 h -0.40156 l -0.18649,0.432178 c -0.10252,0.237695 -0.21357,0.432175 -0.24671,0.432175 -0.033,0 -0.0617,0.07292 -0.0634,0.162068 -0.002,0.08914 -0.0479,0.287467 -0.10254,0.440736 -0.14181,0.397601 -0.0751,0.5214 0.16957,0.315511 0.10597,-0.08911 0.32937,-0.223651 0.49652,-0.298996 0.16715,-0.07534 0.30393,-0.160963 0.30393,-0.190272 0,-0.04339 0.15389,-0.10539 0.43219,-0.17409 0.0198,-0.0048 0.14388,-0.06635 0.2756,-0.136614 0.21774,-0.116074 0.255,-0.117625 0.4087,-0.01689 0.2208,0.144663 0.28992,0.377549 0.17551,0.591317 -0.11596,0.216699 -0.0727,0.257058 0.34771,0.324194 1.03072,0.1646 1.48509,0.385751 2.1671,1.054788 0.50442,0.494823 0.62943,0.671163 0.73381,1.035102 0.0483,0.16827 0.0308,0.225275 -0.0959,0.314094 -0.0853,0.05968 -0.2616,0.108509 -0.39198,0.108509 -0.13044,0 -0.29333,0.02864 -0.36212,0.06362 -0.34087,0.1734 -0.5133,0.223691 -0.82731,0.241313 -0.18814,0.01051 -0.34211,0.04351 -0.34215,0.07322 -3e-5,0.02971 -0.0452,0.05402 -0.10046,0.05402 -0.0551,0 -0.1189,0.04861 -0.14182,0.108044 -0.0227,0.05942 -0.0922,0.108045 -0.15422,0.108045 -0.0909,0 -0.0977,0.02829 -0.035,0.145541 0.0429,0.08006 0.0596,0.175239 0.037,0.211527 -0.0565,0.09149 -0.46885,0.291192 -0.6012,0.291192 -0.06,0 -0.0879,0.02117 -0.0619,0.04706 0.0682,0.06824 -0.3651,0.369705 -0.60814,0.42309 -0.11391,0.02504 -0.20722,0.07535 -0.20722,0.111818 0,0.03646 -0.0648,0.06631 -0.14405,0.06631 -0.0793,0 -0.14407,0.02827 -0.14407,0.06283 0,0.03454 -0.13682,0.08472 -0.30424,0.111473 -0.16733,0.02676 -0.36252,0.101393 -0.43374,0.16584 -0.1375,0.124416 -0.16921,0.130774 -0.95471,0.191232 -0.27732,0.02135 -0.62282,0.05872 -0.7678,0.0831 -0.2092,0.03513 -0.27937,0.01723 -0.33996,-0.087 -0.042,-0.0722 -0.0773,-0.09076 -0.0786,-0.04125 -9.6e-4,0.04953 -0.0605,0.09003 -0.13182,0.09003 -0.0714,0 -0.16043,0.02812 -0.19808,0.0625 -0.0948,0.08664 -0.42841,0.124587 -0.89677,0.10203 z m 1.33253,-0.43676 c 0.27731,-0.01723 0.61766,-0.03801 0.7563,-0.04627 0.13872,-0.0083 0.30074,-0.03467 0.36016,-0.05869 0.0594,-0.02404 0.32165,-0.0583 0.58271,-0.07615 0.26107,-0.01785 0.55278,-0.08183 0.64827,-0.142215 0.0955,-0.06036 0.25464,-0.12905 0.35367,-0.152607 0.0991,-0.02357 0.13958,-0.02425 0.0901,-0.0015 -0.0494,0.02274 -0.0901,0.0722 -0.0901,0.109923 0,0.04024 0.0603,0.03626 0.14612,-0.0097 0.0803,-0.04299 0.12701,-0.108958 0.10374,-0.146592 -0.0233,-0.03764 0.0326,-0.07098 0.12407,-0.0741 0.0915,-0.0031 0.12562,-0.02211 0.0758,-0.04217 -0.0498,-0.02006 -0.0731,-0.06471 -0.0517,-0.0992 0.0214,-0.0345 0.0917,-0.04243 0.1563,-0.01763 0.0784,0.03007 0.10029,0.01706 0.0657,-0.03886 -0.0319,-0.05158 0.026,-0.118486 0.15026,-0.173467 0.11114,-0.04923 0.24254,-0.127964 0.29191,-0.174956 0.11804,-0.112319 0.23695,-0.42985 0.18174,-0.485058 -0.1008,-0.100773 -0.50812,-0.03587 -0.63165,0.100635 -0.0717,0.07923 -0.1837,0.144059 -0.24887,0.144059 -0.0651,0 -0.15388,0.03544 -0.19725,0.07876 -0.0433,0.04332 -0.26801,0.09191 -0.49932,0.107975 -0.2313,0.01603 -0.52819,0.06475 -0.65975,0.108165 -0.82217,0.271345 -1.04857,-0.675285 -0.3387,-1.416183 0.29693,-0.309886 0.36254,-0.458567 0.42707,-0.967567 0.012,-0.09905 0.0591,-0.27132 0.10357,-0.382844 0.19436,-0.48826 0.007,-0.54822 -0.37909,-0.121158 -0.14319,0.158586 -0.26049,0.314378 -0.26049,0.346223 0,0.08756 -1.26621,1.382276 -1.35183,1.382276 -0.041,0 -0.13751,0.106855 -0.21462,0.237456 -0.0771,0.130602 -0.24461,0.316977 -0.37233,0.41417 -0.35551,0.270527 -0.7263,0.632254 -0.7263,0.708559 0,0.03766 -0.13424,0.179982 -0.29837,0.316291 l -0.29836,0.247835 0.15423,0.154296 c 0.13924,0.139286 0.2489,0.165288 0.77816,0.184628 0.0856,0.0031 0.18202,0.03188 0.21425,0.06388 0.0322,0.032 0.12424,0.03452 0.20449,0.0055 0.0803,-0.02893 0.37278,-0.06669 0.6501,-0.08389 z m -2.19963,-0.990299 c 0.002,-0.04072 0.0594,-0.128792 0.12873,-0.195705 0.26576,-0.256548 0.43278,-0.459544 0.5781,-0.702663 0.0829,-0.138666 0.26905,-0.36555 0.41369,-0.504208 0.14458,-0.138648 0.31387,-0.349341 0.37602,-0.46819 0.0622,-0.118849 0.20955,-0.336213 0.3275,-0.483033 0.14647,-0.182291 0.21717,-0.353605 0.22298,-0.54022 0.009,-0.247966 -0.009,-0.272441 -0.17163,-0.264258 -0.31823,0.01602 -0.64749,0.07424 -0.69657,0.123312 -0.0262,0.02626 -0.12493,0.04773 -0.21927,0.04773 -0.17991,0 -0.85026,0.394632 -1.01977,0.600326 -0.0543,0.06598 -0.14355,0.119969 -0.19809,0.119969 -0.0546,0 -0.0992,0.06246 -0.0992,0.138838 0,0.07635 -0.0731,0.197905 -0.1625,0.27011 -0.29334,0.237087 -0.49645,0.658576 -0.59254,1.229626 -0.0472,0.280589 0.10116,0.667447 0.35253,0.91875 l 0.18173,0.181725 0.28769,-0.199043 c 0.15819,-0.109475 0.28893,-0.232355 0.29044,-0.273071 z m -0.93365,0.326133 c 0,-0.03961 -0.0343,-0.07203 -0.0763,-0.07203 -0.0419,0 -0.0562,0.03242 -0.0317,0.07203 0.0245,0.03961 0.0588,0.07203 0.0764,0.07203 0.0174,0 0.0317,-0.03242 0.0317,-0.07203 z m 5.75607,-0.990406 c 0.12183,-0.06932 0.22167,-0.158776 0.22193,-0.19876 6.9e-4,-0.111251 -0.27306,-0.261301 -0.3246,-0.17792 -0.024,0.0388 -0.13252,0.07055 -0.24104,0.07055 -0.22772,0 -0.3703,0.11647 -0.3703,0.302522 0,0.173804 0.41133,0.175879 0.71401,0.0037 z m -5.93318,-0.454976 c 0.0776,-0.125431 -0.0103,-0.152003 -0.10959,-0.03296 -0.0568,0.06846 -0.0622,0.109784 -0.0138,0.109784 0.0422,0 0.0979,-0.03457 0.12407,-0.07682 z m 9.52491,-0.57545 c 0.024,-0.126534 -0.21076,-0.428171 -0.33318,-0.428171 -0.0996,0 -0.18573,0.320202 -0.12718,0.472856 0.0562,0.146299 0.43108,0.109905 0.46035,-0.04468 z m -2.20998,-0.216986 c 0.11511,-0.08194 0.20919,-0.126172 0.20919,-0.09833 0,0.02785 0.0666,-0.034 0.14785,-0.137425 0.0813,-0.103426 0.27583,-0.226378 0.43217,-0.273218 0.22823,-0.06838 0.28425,-0.119194 0.28425,-0.257801 0,-0.140509 -0.0771,-0.207347 -0.41415,-0.359195 -0.22781,-0.102599 -0.479,-0.192746 -0.55824,-0.200311 -0.0793,-0.0076 -0.29281,-0.03817 -0.47462,-0.06801 -0.38989,-0.06401 -0.49157,0.0076 -0.63692,0.447936 -0.0951,0.28826 -0.0706,0.519091 0.055,0.519091 0.0354,0 0.18614,-0.09676 0.33497,-0.215036 0.14889,-0.118263 0.29782,-0.198205 0.33111,-0.177634 0.0332,0.02058 0.12234,-0.0013 0.19796,-0.04844 0.14269,-0.08914 0.37263,-0.04525 0.37263,0.07113 0,0.0367 -0.0824,0.143059 -0.18288,0.236357 -0.1482,0.13739 -0.39336,0.562966 -0.39336,0.682629 0,0.05968 0.0957,0.02018 0.29499,-0.121744 z m -0.92513,-4.617219 c 0.18241,-0.225537 0.20387,-0.294264 0.14611,-0.468191 -0.13578,-0.40958 -0.46494,-0.251978 -0.72019,0.344834 -0.0658,0.153744 -0.0586,0.210592 0.0389,0.308062 0.16508,0.165048 0.28602,0.123277 0.53511,-0.184705 z m 0.61677,-2.501691 c 0.66531,-0.696023 0.8777,-1.013877 0.8777,-1.313567 0,-0.153002 -0.0243,-0.277018 -0.0541,-0.275594 -0.12252,0.0059 -0.4321,0.337424 -0.51877,0.555638 -0.0512,0.128757 -0.12148,0.234096 -0.15629,0.234096 -0.0348,0 -0.0632,0.04863 -0.0632,0.108044 0,0.05942 -0.0348,0.108045 -0.0772,0.108045 -0.0424,0 -0.11579,0.04052 -0.16284,0.09003 -0.12269,0.128809 -0.337,0.846345 -0.25281,0.846345 0.0386,0 0.22195,-0.158879 0.40755,-0.353044 z m -25.08473,4.321403 c -0.0577,-0.02383 -0.16525,-0.106856 -0.34728,-0.156794 -0.40425,-0.110887 -0.77431,-0.27519 -0.77431,-0.343788 0,-0.0303 -0.0688,-0.128947 -0.15303,-0.219244 -0.12734,-0.136736 -0.14543,-0.219069 -0.10803,-0.492514 0.0249,-0.180586 0.0729,-0.36402 0.107,-0.407634 0.0341,-0.04361 0.085,-0.17516 0.11304,-0.292327 0.0281,-0.11716 0.15406,-0.330347 0.28004,-0.473734 0.12597,-0.143388 0.27759,-0.333165 0.33703,-0.42173 0.0594,-0.08857 0.21108,-0.210228 0.33705,-0.270363 0.12597,-0.06014 0.33875,-0.215908 0.47287,-0.34616 0.23635,-0.229552 0.39609,-0.301335 1.04865,-0.471266 0.17042,-0.04439 0.32789,-0.127516 0.34983,-0.18472 0.0453,-0.118005 0.35304,-0.141406 0.42066,-0.03198 0.0245,0.03961 0.11993,0.07203 0.21197,0.07203 0.10477,0 0.26794,0.111233 0.43616,0.297437 0.2316,0.256357 0.26387,0.333576 0.23363,0.559056 -0.0544,0.405497 -0.43208,0.904687 -0.83722,1.106582 -0.19215,0.09574 -0.39422,0.211419 -0.44904,0.257044 -0.4291,0.357039 -0.82206,0.592381 -1.03277,0.618516 -0.33754,0.04188 -0.54353,0.111835 -0.54353,0.184611 0,0.109423 0.60619,0.415975 0.93638,0.473539 0.17827,0.03107 0.55965,0.05239 0.84751,0.04736 0.43298,-0.0076 0.56362,-0.03928 0.75631,-0.183638 0.12804,-0.09597 0.3069,-0.196974 0.39732,-0.224455 0.0905,-0.02748 0.25041,-0.129687 0.35557,-0.227143 0.35942,-0.333097 0.5357,-0.08586 0.23612,0.331122 -0.15836,0.220525 -1.53249,0.793621 -1.90277,0.793621 -0.13717,0 -0.26942,0.03242 -0.29389,0.07203 -0.0245,0.03961 -1.32355,-0.01938 -1.43527,-0.06546 z m 0.5805,-1.663408 c 0.25091,-0.158465 0.48335,-0.288116 0.51652,-0.288116 0.16026,0 0.6635,-0.716859 0.6635,-0.945143 0,-0.1514 -0.23101,-0.351389 -0.40588,-0.351389 -0.25852,0 -1.1172,0.916348 -1.27816,1.36399 -0.11563,0.321388 -0.11339,0.508777 0.005,0.508777 0.0231,0 0.24728,-0.129653 0.49819,-0.288119 z m -42.307771,4.346101 c -0.148401,-0.05988 -0.102875,-0.242789 0.125018,-0.502336 0.11828,-0.134702 0.235237,-0.325365 0.259911,-0.423678 0.02468,-0.09831 0.07377,-0.178753 0.109079,-0.178753 0.03533,0 0.06423,-0.05763 0.06423,-0.128033 0,-0.07041 0.04634,-0.194202 0.102995,-0.275074 0.05664,-0.08087 0.126035,-0.355494 0.15421,-0.610271 0.04949,-0.447538 0.04662,-0.459567 -0.08499,-0.355184 -0.229795,0.182279 -0.45146,0.288118 -0.603422,0.288118 -0.341736,0 -0.05237,-0.711807 0.490479,-1.206493 0.184758,-0.168374 0.361864,-0.306126 0.393568,-0.306126 0.0317,0 0.145041,-0.08103 0.251846,-0.180072 0.106805,-0.09905 0.264812,-0.180074 0.351112,-0.180074 0.0863,0 0.204873,-0.0184 0.263493,-0.04089 0.05935,-0.02278 0.173083,0.03048 0.256672,0.12021 0.130136,0.139682 0.174663,0.149918 0.334877,0.0769 0.283974,-0.129394 0.451543,-0.103115 0.870316,0.136495 0.409544,0.234317 0.545101,0.24053 1.396544,0.06401 0.178274,-0.03696 0.421373,-0.08319 0.540221,-0.102755 0.306901,-0.05051 0.598082,-0.144834 0.979103,-0.317169 0.18196,-0.0823 0.47368,-0.165962 0.648266,-0.185909 0.174586,-0.01995 0.481263,-0.07441 0.681506,-0.12102 0.632655,-0.147265 0.994973,0.05123 1.074788,0.58882 0.03974,0.267631 0.0225,0.348442 -0.10284,0.482205 -0.08282,0.08839 -0.170494,0.260249 -0.194832,0.381933 -0.04008,0.200411 -0.408456,0.573832 -0.566077,0.573832 -0.03275,0 -0.117694,0.05261 -0.188743,0.116901 -0.162774,0.147299 -0.904318,0.323599 -1.126542,0.267824 -0.285475,-0.07165 -0.151228,-0.263759 0.352587,-0.504573 0.404125,-0.193161 0.500151,-0.276188 0.630258,-0.544954 0.179777,-0.371369 0.19645,-0.650477 0.04631,-0.77509 -0.08673,-0.07198 -0.115592,-0.06709 -0.151176,0.02566 -0.02795,0.07284 -0.172961,0.131722 -0.397838,0.161567 -0.535793,0.07108 -0.87091,0.468069 -1.439447,1.70523 -0.08588,0.186904 -0.07631,0.214913 0.141854,0.414168 0.327421,0.299052 0.65945,0.288629 1.201401,-0.03772 0.229642,-0.138287 0.484771,-0.312899 0.566956,-0.388035 0.164238,-0.150142 0.712181,-0.440983 0.830834,-0.440983 0.108992,0 0.09166,0.262851 -0.03323,0.504386 -0.08773,0.169631 -0.865306,0.720114 -1.01721,0.720114 -0.02045,0 -0.179096,0.09764 -0.352546,0.216974 -0.20355,0.140045 -0.492605,0.250491 -0.815259,0.311501 -0.478624,0.09051 -0.514028,0.08735 -0.832078,-0.0743 -0.182702,-0.09285 -0.332184,-0.200612 -0.332184,-0.23947 0,-0.03886 -0.05796,-0.07065 -0.128775,-0.07065 -0.07082,0 -0.237207,-0.09052 -0.369737,-0.201165 -0.276577,-0.230898 -0.266269,-0.373841 0.05468,-0.758195 0.233196,-0.279261 0.336226,-0.442843 0.478768,-0.760137 0.153003,-0.340576 0.139046,-0.387376 -0.09989,-0.334896 -0.114955,0.02525 -0.463402,0.07579 -0.774317,0.112283 -0.799558,0.09388 -0.89052,0.112129 -1.213566,0.24334 -0.294216,0.119504 -0.567315,0.450227 -0.652698,0.790415 -0.02514,0.100187 -0.09116,0.21986 -0.146696,0.265952 -0.05554,0.0461 -0.100979,0.117624 -0.100979,0.158981 0,0.161706 -0.838847,0.947904 -1.457253,1.365784 -0.303903,0.205357 -0.32028,0.210602 -0.469534,0.150383 z m 9.810981,-0.749529 c -0.02616,-0.04232 -0.09602,-0.05835 -0.155243,-0.03561 -0.05923,0.02273 -0.267649,-0.03179 -0.463157,-0.12114 -0.629221,-0.287578 -0.634097,-0.795675 -0.01568,-1.639068 0.307866,-0.4199 0.293476,-0.404407 0.788947,-0.849368 0.233445,-0.209646 0.475785,-0.428436 0.538534,-0.486199 0.06274,-0.05776 0.150418,-0.105029 0.194805,-0.105029 0.04439,0 0.157931,-0.07721 0.252303,-0.171579 0.262932,-0.262932 1.476102,-0.460562 1.599688,-0.260595 0.02449,0.03961 0.105615,0.07203 0.180308,0.07203 0.07469,0 0.217707,0.07292 0.317827,0.162067 0.171682,0.152848 0.177825,0.182542 0.107992,0.522213 -0.108182,0.526216 -0.410535,1.099217 -0.656382,1.243937 -0.116437,0.06855 -0.262313,0.231036 -0.324158,0.361094 -0.104529,0.219829 -0.347539,0.499965 -0.625232,0.72076 -0.06424,0.05108 -0.116816,0.171941 -0.116816,0.268566 0,0.157345 -0.01735,0.167788 -0.166186,0.09996 -0.132892,-0.06056 -0.250107,-0.0386 -0.585198,0.109595 -0.439608,0.194417 -0.792071,0.238203 -0.872314,0.108372 z m 0.695514,-0.872707 c 0.153952,-0.08652 0.279919,-0.183307 0.279919,-0.215065 0,-0.03176 0.129653,-0.143543 0.288116,-0.248412 0.158466,-0.104873 0.288119,-0.224787 0.288119,-0.26649 0,-0.0417 0.06267,-0.142732 0.139269,-0.224524 0.244005,-0.260521 0.364404,-0.55532 0.286361,-0.701146 -0.09402,-0.175667 -0.220592,-0.166323 -0.62611,0.04627 -0.429327,0.225055 -0.704777,0.472608 -0.771952,0.69377 -0.02883,0.09491 -0.110043,0.269801 -0.180487,0.38865 -0.07045,0.118849 -0.150348,0.321431 -0.177584,0.450184 -0.06117,0.289278 0.06106,0.30906 0.474345,0.07677 z m 8.041093,0.248909 c -0.333592,-0.03489 -0.337518,-0.09748 -0.04533,-0.722453 0.303388,-0.648907 0.423474,-1.003586 0.423474,-1.250756 v -0.206832 l -0.55823,0.04129 c -0.307025,0.02271 -0.589019,0.07124 -0.626656,0.107837 -0.03764,0.0366 -0.137838,0.06655 -0.222686,0.06655 -0.08485,0 -0.22097,0.07292 -0.302508,0.162066 -0.770983,0.842826 -1.480848,1.422176 -1.743429,1.422884 -0.06157,1.65e-4 -0.271407,0.0812 -0.466297,0.180072 -0.394486,0.200138 -0.765091,0.226426 -1.33557,0.09474 -0.23163,-0.05348 -0.356098,-0.116988 -0.335326,-0.171113 0.01816,-0.04734 -0.01172,-0.172396 -0.06648,-0.277888 -0.06751,-0.130136 -0.07867,-0.243023 -0.03467,-0.351102 0.06653,-0.163462 0.570672,-0.72921 0.694608,-0.779493 0.03805,-0.01551 0.159758,-0.148212 0.270446,-0.295047 0.282049,-0.374153 1.051491,-0.978186 1.773586,-1.392311 0.531693,-0.304928 0.676223,-0.354989 1.098449,-0.380467 0.537209,-0.03242 0.560736,-0.0083 0.350593,0.360954 -0.12214,0.214555 -0.125483,0.261982 -0.03367,0.477563 l 0.101944,0.239352 0.771966,-0.04613 c 0.654474,-0.03912 1.379468,-0.120297 1.816393,-0.203381 0.109234,-0.02076 0.885307,-0.403186 1.136173,-0.559854 0.106614,-0.06659 0.181618,-0.063 0.346302,0.01654 0.171114,0.08266 0.210218,0.147075 0.210218,0.34634 0,0.195857 0.03749,0.260308 0.187594,0.322374 0.103168,0.04267 0.241912,0.122881 0.308299,0.178237 0.104925,0.0875 0.169821,0.07682 0.496685,-0.08184 0.206785,-0.100358 0.554252,-0.257419 0.77214,-0.349002 0.217888,-0.09159 0.477199,-0.224598 0.57624,-0.295587 0.213035,-0.152692 0.597805,-0.08711 0.635465,0.108303 0.0208,0.108252 -0.14721,0.398737 -0.40303,0.69655 -0.409901,0.477216 -0.631787,0.874148 -0.539961,0.965965 0.06493,0.06495 0.292855,0.05239 0.434551,-0.02397 0.0688,-0.03707 0.22233,-0.113214 0.34117,-0.169218 0.11885,-0.05601 0.31333,-0.152055 0.43217,-0.213442 0.67071,-0.346468 0.82297,-0.414303 0.92993,-0.414303 0.0649,0 0.28011,-0.111543 0.47829,-0.247855 0.19817,-0.136322 0.43088,-0.270248 0.51712,-0.297621 0.0862,-0.02737 0.20115,-0.0941 0.25534,-0.148299 0.0542,-0.0542 0.15296,-0.09955 0.21945,-0.10079 0.0665,-0.0013 0.25056,-0.08212 0.40902,-0.179705 0.15847,-0.0976 0.33036,-0.177622 0.38198,-0.177825 0.0516,-2.03e-4 0.21311,-0.0814 0.35886,-0.180443 0.19108,-0.129843 0.3608,-0.180072 0.60843,-0.180072 0.18888,0 0.34342,0.03242 0.34342,0.07203 0,0.03961 0.0611,0.07203 0.13578,0.07203 0.30824,0 0.52528,0.712964 0.36503,1.199105 -0.16752,0.508222 -1.02072,1.465438 -1.30691,1.466255 -0.0518,1.48e-4 -0.19506,0.06172 -0.31825,0.136857 -0.4175,0.254583 -1.37401,0.374809 -1.9369,0.243453 -0.39033,-0.09108 -0.61826,-0.214526 -0.8051,-0.436009 l -0.15683,-0.185919 -0.37365,0.120675 c -0.2055,0.06637 -0.42324,0.120676 -0.48386,0.120676 -0.0606,0 -0.34053,0.109665 -0.622001,0.243711 -0.281468,0.134048 -0.583812,0.265601 -0.671871,0.292353 -0.205095,0.06231 -0.77283,-0.183687 -0.878158,-0.380495 -0.10937,-0.204361 -0.09736,-0.546471 0.02984,-0.85096 0.134013,-0.320722 0.135667,-0.30676 -0.03135,-0.263082 -0.07666,0.02004 -0.360283,-0.02121 -0.630257,-0.09171 -0.673916,-0.175945 -1.027676,-0.153659 -1.213864,0.07646 -0.08072,0.09977 -0.179705,0.181395 -0.219966,0.181395 -0.154312,0 -0.524457,0.491225 -0.776245,1.030168 -0.268727,0.575203 -0.542585,0.924049 -0.708508,0.902518 -0.05132,-0.0067 -0.214862,-0.02483 -0.363423,-0.04035 z M 91.09822,47.635508 c 0.15028,-0.06506 0.293231,-0.173983 0.317657,-0.242059 0.02444,-0.06809 0.09595,-0.178945 0.158931,-0.24637 0.365326,-0.391085 0.369704,-0.433725 0.07298,-0.710903 -0.208209,-0.194497 -0.231799,-0.200338 -0.390112,-0.0966 -0.09267,0.06073 -0.186661,0.157724 -0.20885,0.215546 -0.0222,0.05783 -0.154571,0.17253 -0.294166,0.254897 -0.139596,0.08236 -0.253821,0.181961 -0.253821,0.221319 0,0.03936 -0.06482,0.153968 -0.14406,0.254702 -0.161739,0.205607 -0.190694,0.496215 -0.05402,0.542053 0.115161,0.03862 0.446887,-0.04168 0.795457,-0.192578 z m 12.84333,-0.679422 c 0.42087,-0.30795 0.54677,-0.477102 0.52041,-0.699198 -0.0324,-0.272596 -0.22677,-0.385002 -0.43733,-0.252867 -0.0893,0.05602 -0.30817,0.17788 -0.48645,0.270799 -0.34594,0.180317 -0.71622,0.632911 -0.6056,0.740245 0.0583,0.05658 0.2715,0.103806 0.61281,0.135771 0.0634,0.0059 0.24165,-0.0817 0.39616,-0.19475 z m 3.99043,1.00263 c 0,-0.126655 0.11344,-0.475834 0.25211,-0.775937 0.13866,-0.300105 0.2521,-0.576354 0.2521,-0.613887 0,-0.03753 0.0972,-0.278329 0.21609,-0.535103 0.11885,-0.256774 0.21609,-0.508355 0.21609,-0.55907 0,-0.101669 0.41978,-0.711829 0.51608,-0.750144 0.10258,-0.04083 0.54975,-0.754038 0.75531,-1.204716 0.18758,-0.411249 0.26213,-0.9507 0.12642,-0.914863 -0.22941,0.06058 -0.51146,0.208485 -0.91107,0.477754 -0.10862,0.0732 -0.24639,0.114352 -0.30612,0.09142 -0.14165,-0.05435 -0.14087,-0.262282 9.6e-4,-0.262282 0.0603,0 0.14447,-0.07653 0.18709,-0.17008 0.0426,-0.09353 0.17968,-0.224522 0.30457,-0.291073 0.52327,-0.278806 1.23315,-0.757313 1.51366,-1.020306 0.10389,-0.09741 0.53031,-0.247255 0.70361,-0.247255 0.11563,0 0.12644,0.04229 0.0874,0.342141 -0.0245,0.188177 -0.10491,0.469778 -0.17869,0.625779 -0.0738,0.156002 -0.13418,0.360195 -0.13418,0.453761 0,0.198226 -0.15884,0.529997 -0.31632,0.660697 -0.0711,0.05903 -0.096,0.159947 -0.0706,0.286904 0.0258,0.129275 3.3e-4,0.22806 -0.075,0.290656 -0.0628,0.05215 -0.11426,0.134444 -0.11426,0.182882 0,0.107338 -0.24819,0.342391 -0.30331,0.287264 -0.0218,-0.02174 -0.0596,0.04041 -0.0841,0.138115 -0.0472,0.188162 -0.57542,0.765451 -0.70036,0.765451 -0.0406,0 -0.0637,0.10508 -0.0513,0.233505 0.0301,0.311179 0.18225,0.328209 0.57346,0.06417 0.17412,-0.117505 0.46174,-0.26991 0.63915,-0.33866 0.17742,-0.06875 0.38741,-0.180691 0.46664,-0.248756 0.0793,-0.06807 0.43578,-0.278282 0.79232,-0.467154 0.35654,-0.188872 0.7293,-0.406362 0.82834,-0.483313 0.2026,-0.157397 0.4246,-0.531717 0.42917,-0.723582 0.002,-0.06986 0.0345,-0.183312 0.0729,-0.252102 0.16284,-0.291762 0.4637,-1.712036 0.38841,-1.833861 -0.0205,-0.03319 -0.14819,-0.03955 -0.28379,-0.01413 -0.22672,0.04253 -0.24649,0.03194 -0.24649,-0.132135 0,-0.23594 0.20946,-0.488886 0.55088,-0.665305 0.15267,-0.07885 0.29368,-0.164238 0.31348,-0.189731 0.086,-0.110733 0.5947,-0.35118 0.74297,-0.35118 0.21828,0 0.38796,0.319209 0.36375,0.68428 -0.0103,0.158466 -0.0845,0.553033 -0.16439,0.876816 -0.08,0.323784 -0.16112,0.664124 -0.18057,0.75631 -0.0195,0.09219 -0.0567,0.240541 -0.0829,0.329677 -0.0291,0.09967 -0.0172,0.162067 0.0329,0.162067 0.0443,0 0.0804,-0.02542 0.0804,-0.0565 0,-0.03107 0.0891,-0.109613 0.19808,-0.174534 0.1089,-0.06491 0.26334,-0.17725 0.3431,-0.249626 0.0798,-0.07238 0.37147,-0.321778 0.64825,-0.554227 0.2768,-0.232449 0.55129,-0.499858 0.60998,-0.594242 0.0588,-0.09438 0.12666,-0.171613 0.15095,-0.171613 0.1301,0 0.38133,-0.322345 0.50497,-0.647721 0.13872,-0.365125 0.13872,-0.37288 0.002,-0.564159 -0.38351,-0.538584 -0.0986,-1.034816 0.76341,-1.329514 0.31155,-0.106511 1.02796,-0.09549 1.24212,0.01913 0.18819,0.100721 0.2541,0.375788 0.14113,0.588772 -0.10805,0.203662 -0.60998,0.708877 -0.87992,0.885757 -0.10736,0.07036 -0.19524,0.166237 -0.19524,0.213068 0,0.09173 -0.51115,0.618585 -0.60014,0.618585 -0.0297,0 -0.26101,0.202582 -0.51422,0.450183 -0.5605,0.548101 -0.83752,0.772074 -0.95649,0.773352 -0.0494,5.31e-4 -0.09,0.02827 -0.09,0.06165 0,0.03338 -0.10959,0.119676 -0.2434,0.191766 -0.1494,0.08048 -0.29105,0.239064 -0.36682,0.410812 -0.0736,0.166977 -0.23442,0.34981 -0.39881,0.453579 -0.15148,0.09562 -0.29748,0.209574 -0.32447,0.25324 -0.0271,0.04367 -0.12786,0.109337 -0.22407,0.145937 -0.0963,0.0366 -0.19951,0.123726 -0.22944,0.193638 -0.12424,0.290135 -0.34548,0.598123 -0.45504,0.633526 -0.12011,0.03882 -0.24743,0.558289 -0.16819,0.686429 0.0719,0.116298 0.21774,0.07463 0.39348,-0.112422 0.0931,-0.09903 0.1981,-0.180072 0.23344,-0.180072 0.0354,0 0.1675,-0.07753 0.29358,-0.172268 0.12614,-0.09474 0.45217,-0.275565 0.72457,-0.401818 0.48775,-0.226053 0.57964,-0.283572 0.82271,-0.515057 0.0673,-0.06421 0.24728,-0.160998 0.39968,-0.215071 0.15233,-0.05407 0.38811,-0.22123 0.52383,-0.371452 0.13578,-0.150229 0.37019,-0.337469 0.52106,-0.416105 0.15095,-0.07863 0.33937,-0.215494 0.41887,-0.304126 0.25167,-0.280521 0.49598,-0.459967 0.58553,-0.430115 0.0476,0.01586 0.0867,-0.02027 0.0867,-0.08032 0,-0.06005 0.0729,-0.131704 0.16198,-0.159206 0.18424,-0.05685 0.96456,-0.861483 1.01222,-1.043763 0.0384,-0.14704 -0.13217,-0.572615 -0.22957,-0.572615 -0.0903,0 -0.1861,-0.28075 -0.15973,-0.46819 0.0243,-0.172913 0.26848,-0.449922 0.44639,-0.506388 0.0705,-0.02237 0.17025,-0.135891 0.22181,-0.252257 0.0515,-0.116368 0.1751,-0.245785 0.27463,-0.287583 0.0996,-0.0418 0.2695,-0.124794 0.37769,-0.184429 0.15801,-0.08711 0.22884,-0.0915 0.36014,-0.02235 0.24335,0.128171 0.27811,0.212391 0.2347,0.568724 -0.0217,0.178271 -0.0517,0.514417 -0.0667,0.74699 -0.0395,0.611691 -0.375,1.188705 -0.69528,1.195408 -0.12786,0.0028 -0.39592,0.231551 -1.36494,1.165248 -0.36411,0.350838 -0.70295,0.637885 -0.75296,0.637885 -0.05,0 -0.13027,0.04741 -0.17835,0.105321 -0.15526,0.187153 -1.18452,0.704772 -1.39287,0.700521 -0.12614,-0.0026 -0.21936,0.04151 -0.24794,0.117229 -0.0817,0.216594 -0.41953,0.502495 -0.87724,0.742423 -0.26498,0.138889 -0.48882,0.313871 -0.54805,0.428391 -0.10632,0.205461 -0.2389,0.28308 -0.48382,0.28308 -0.0844,0 -0.28703,0.142474 -0.4611,0.324134 -0.17077,0.178272 -0.33541,0.324244 -0.36579,0.324379 -0.11408,5.11e-4 -1.1717,1.02459 -1.1717,1.134462 0,0.199477 -0.74863,0.867392 -1.03175,0.920505 -0.14049,0.02637 -0.28771,0.02797 -0.32716,0.0037 -0.0394,-0.02438 -0.0942,-0.0079 -0.12173,0.03657 -0.036,0.05826 -0.0656,0.05557 -0.10592,-0.0097 -0.0336,-0.0544 0.007,-0.157655 0.10017,-0.258854 0.29669,-0.31997 0.48164,-0.771383 0.52718,-1.28668 0.0181,-0.205305 0.11042,-0.494847 0.21464,-0.673443 0.22581,-0.386967 0.15441,-0.499321 -0.21831,-0.343584 -0.14386,0.0601 -0.36691,0.187126 -0.49568,0.282266 -0.12877,0.09514 -0.38791,0.245464 -0.57586,0.334052 -0.18796,0.08859 -0.36035,0.19117 -0.38308,0.227959 -0.0227,0.03679 -0.15258,0.113369 -0.28851,0.170165 -0.13595,0.0568 -0.24719,0.139027 -0.24719,0.18273 0,0.0437 -0.0928,0.111801 -0.20616,0.151314 -0.11339,0.03953 -0.24084,0.147971 -0.28321,0.240994 -0.0424,0.09302 -0.20775,0.242574 -0.36747,0.332345 -0.2726,0.153209 -0.51172,0.495355 -0.51172,0.732196 0,0.180949 -0.33686,0.426424 -0.64119,0.467243 -0.29227,0.0392 -0.29519,0.03732 -0.29519,-0.190699 z m 13.85725,-0.108803 c -0.0629,-0.164117 0.1065,-1.107645 0.25106,-1.39769 0.0721,-0.144646 0.28197,-0.550313 0.46642,-0.90148 0.36367,-0.692353 0.42271,-0.982176 0.20012,-0.982176 -0.0745,0 -0.17648,0.0497 -0.2269,0.110439 -0.13905,0.167478 -0.2501,0.08579 -0.2501,-0.183873 0,-0.21263 0.0517,-0.278629 0.43218,-0.552127 0.2377,-0.170837 0.46663,-0.338699 0.50874,-0.373011 0.2519,-0.205243 0.4155,-0.241584 0.70163,-0.155846 0.28073,0.08411 0.29369,0.08025 0.46487,-0.138477 0.23678,-0.302558 0.95618,-0.661097 1.28239,-0.639128 0.33021,0.02224 0.52809,0.227857 0.40655,0.422466 -0.11597,0.185762 -0.10959,0.371608 0.019,0.54141 0.0581,0.0769 0.10683,0.179675 0.10804,0.22839 0.004,0.140838 -0.52464,0.371878 -0.93572,0.409234 -0.43195,0.03926 -0.67008,0.217119 -0.7942,0.593228 -0.0437,0.132824 -0.10736,0.241511 -0.14096,0.241511 -0.0808,0 -0.50372,0.628733 -0.50372,0.748757 0,0.0513 -0.061,0.148505 -0.13562,0.216004 -0.0746,0.0675 -0.19255,0.27511 -0.26211,0.461347 -0.15595,0.417342 -0.53542,1.022895 -0.64105,1.022895 -0.0429,0 -0.1699,0.09724 -0.28208,0.216086 -0.22183,0.235027 -0.59704,0.297931 -0.66839,0.112042 z m 4.2996,-1.293996 c -0.0815,-0.09829 -0.0691,-0.156088 0.083,-0.386145 0.0984,-0.148799 0.20193,-0.34262 0.22989,-0.430702 0.0279,-0.08809 0.29189,-0.40515 0.5865,-0.704591 0.42761,-0.434607 0.53567,-0.588289 0.53567,-0.761814 v -0.217378 l -0.27011,0.256073 c -0.39765,0.376985 -0.88236,0.436805 -0.88236,0.10889 0,-0.154761 0.52328,-0.716044 0.66756,-0.716044 0.0503,0 0.20942,-0.08025 0.35378,-0.178341 0.3014,-0.204807 0.87039,-0.352415 1.0899,-0.282745 0.0824,0.02613 0.20453,0.115282 0.27162,0.19812 l 0.12199,0.150624 0.38627,-0.209664 c 0.21244,-0.115317 0.42664,-0.249656 0.47599,-0.298533 0.0493,-0.04889 0.26869,-0.176423 0.48742,-0.283433 0.32514,-0.159068 0.46537,-0.188061 0.76871,-0.158913 0.42586,0.04092 0.56292,0.172268 0.56292,0.539472 0,0.267163 -0.0179,0.295305 -0.55788,0.871525 -0.25962,0.277104 -0.39039,0.482883 -0.41805,0.657825 -0.0221,0.14001 -0.0693,0.3032 -0.1046,0.362624 -0.0355,0.05944 -0.13406,0.236517 -0.21907,0.393543 l -0.15474,0.285497 0.15716,0.127275 c 0.14285,0.115679 0.17623,0.117436 0.36625,0.01916 0.11494,-0.05947 0.23372,-0.110956 0.26385,-0.114437 0.0301,-0.0035 0.17767,-0.05551 0.32787,-0.115592 0.28593,-0.114403 0.3826,-0.09232 0.3192,0.07296 -0.0658,0.171683 -1.56181,0.726826 -1.88882,0.700947 -0.15853,-0.01258 -0.38536,-0.02595 -0.50421,-0.0298 -0.23952,-0.0077 -0.25334,-0.05199 -0.11476,-0.367148 0.0522,-0.118849 0.15853,-0.361948 0.23617,-0.540222 0.2939,-0.674935 0.53249,-1.106718 0.72084,-1.304439 0.12183,-0.12781 0.25202,-0.61444 0.18297,-0.683488 -0.0374,-0.03734 -0.80186,0.421605 -1.14498,0.687361 -0.10684,0.08271 -0.24236,0.129034 -0.30611,0.104564 -0.0629,-0.02416 -0.11441,-0.01258 -0.11441,0.02574 0,0.0383 -0.1134,0.189948 -0.25211,0.336968 -0.13872,0.147023 -0.25289,0.305516 -0.25381,0.352214 -9.5e-4,0.0467 -0.13062,0.180262 -0.28812,0.296808 -0.1575,0.116539 -0.28642,0.249842 -0.28642,0.29622 0,0.112628 -0.35225,0.550391 -0.63291,0.786538 -0.28541,0.240162 -0.66897,0.31306 -0.80225,0.152469 z M 100.5155,42.286515 c -0.0868,-0.11032 -0.13237,-0.241634 -0.10632,-0.306126 0.0251,-0.06213 0.0517,-0.145352 0.0592,-0.184968 0.008,-0.03961 0.10969,-0.248439 0.22714,-0.464048 0.11747,-0.215612 0.20503,-0.419508 0.19459,-0.453103 -0.0452,-0.145489 0.14828,-0.340823 0.38079,-0.384446 0.13862,-0.026 0.2698,-0.07603 0.2915,-0.111146 0.0714,-0.115419 0.36618,-0.06674 0.50152,0.0828 0.11182,0.123553 0.12033,0.18315 0.054,0.378154 -0.0433,0.127309 -0.0984,0.344932 -0.12241,0.48359 -0.0296,0.170906 -0.16382,0.376151 -0.41673,0.637263 -0.54093,0.558483 -0.81259,0.640757 -1.06331,0.322021 z"
       id="path4"
       sodipodi:nodetypes="cssssssssssssssssssscsssssssssssssssssssssssssssssssssssssssssssssssssssssssssscssssssssssssssssssssssssssssssssssssssssccssssssssssssssssssssssssssssssssssssssssssssssssssssssssssssssssscsssssssssssssssssssssssssssssssssssssssssssssssscsssssssscsscsssssssssssssssscssscssssssssssssccscsssssssssssssssssssssssssssscssssssssssssssssccsssssssssccsssssssssssssscsssssssssssssssssssscsscscssssssssssssccssssssssssssssssssssssssccssssssscsssssscssssscsssssscsscsccssssssssssssccsccsssssssssssssssssssssssscssssssssssscssscsscsssssssssssssssssssssssssscsssssccscssssssssssssssssssssssssssssssssssssssssssssssssssssssscsssssssssssssssssssssssssssssssssscsssssssssssssssscsssssssssssssssssssssssssssssssscssssssssssssssssssssssssssscssssscsssssssssssssssssssssssssssssssssssssscsscsssssssscsssssssssssssssssssssssssssssssssssssssssssssssssssssssssssssssssssssccscsssssssssssssssssssssscsssscsssssscssssssscccsssssssssssssssssssccssssssssssssss" /><text
       xml:space="preserve"
       style="font-size:4.9389px;line-height:1.25;font-family:Arial;-inkscape-font-specification:Arial;letter-spacing:0.0529167px;display:inline;fill:#ffffff;stroke-width:0.264583"
       x="22.87627"
       y="117.56102"
       id="text2"><tspan
         sodipodi:role="line"
         id="tspan2"
         style="font-style:normal;font-variant:normal;font-weight:500;font-stretch:normal;font-family:'Source Sans 3';-inkscape-font-specification:'Source Sans 3 Medium';letter-spacing:0.0529167px;fill:#ffffff;stroke-width:0.264583"
         x="22.87627"
         y="117.56102">Gregor Joseph</tspan></text><text
       xml:space="preserve"
       style="font-style:normal;font-variant:normal;font-weight:600;font-stretch:normal;font-size:4.9389px;line-height:1.25;font-family:'Source Sans 3';-inkscape-font-specification:'Source Sans 3 Semi-Bold';letter-spacing:0.0529167px;display:inline;fill:#ffffff;stroke-width:0.264583"
       x="22.87627"
       y="123.82612"
       id="text2-3"><tspan
         sodipodi:role="line"
         id="tspan2-1"
         style="font-style:normal;font-variant:normal;font-weight:bold;font-stretch:normal;font-family:'Source Sans 3';-inkscape-font-specification:'Source Sans 3 Bold';letter-spacing:0.0529167px;fill:#ffffff;stroke-width:0.264583"
         x="22.87627"
         y="123.82612">Werner</tspan></text><g
       id="g5"
       transform="matrix(1.75,0,0,1.75,-632.6027,205.40238)"><text
         xml:space="preserve"
         style="font-style:normal;font-variant:normal;font-weight:normal;font-stretch:normal;font-size:2.82222px;line-height:1.25;font-family:'Source Sans Pro';-inkscape-font-specification:'Source Sans Pro';fill:#ffffff;fill-opacity:1;stroke-width:0.264583"
         x="454.85413"
         y="33.039047"
         id="text10198"><tspan
           sodipodi:role="line"
           id="tspan10196"
           style="font-style:normal;font-variant:normal;font-weight:normal;font-stretch:normal;font-size:2.82222px;font-family:'Source Sans Pro';-inkscape-font-specification:'Source Sans Pro';fill:#ffffff;fill-opacity:1;stroke-width:0.264583"
           x="454.85413"
           y="33.039047">dition</tspan></text><text
         xml:space="preserve"
         style="font-style:normal;font-variant:normal;font-weight:normal;font-stretch:normal;font-size:2.82222px;line-height:1.25;font-family:'Source Sans Pro';-inkscape-font-specification:'Source Sans Pro';fill:#ffffff;stroke-width:0.264583"
         x="455.33859"
         y="29.864048"
         id="text10206"><tspan
           sodipodi:role="line"
           id="tspan10204"
           style="font-style:normal;font-variant:normal;font-weight:normal;font-stretch:normal;font-size:2.82222px;font-family:'Source Sans Pro';-inkscape-font-specification:'Source Sans Pro';fill:#ffffff;stroke-width:0.264583"
           x="455.33859"
           y="29.864048">kala</tspan></text><g
         id="g10222"
         transform="translate(253.04442,-43.584522)"><path
           id="path10208"
           style="fill:none;fill-rule:evenodd;stroke:#ffffff;stroke-width:0.529167;stroke-miterlimit:4;stroke-dasharray:none;stroke-opacity:1;stop-color:#000000"
           d="m 201.52667,74.276192 h -1.33142 c -0.58916,0 -1.06675,0.473824 -1.06675,1.058333 0,0.584501 0.47761,1.058334 1.06677,1.058334 h 1.3314"
           sodipodi:nodetypes="cscsc" /><path
           id="path10210"
           style="fill:none;fill-rule:evenodd;stroke:#ffffff;stroke-width:0.529167;stroke-miterlimit:4;stroke-dasharray:none;stroke-opacity:1;stop-color:#000000"
           d="m 200.72442,72.159525 h -0.52917 c -0.58916,0 -1.06675,0.473824 -1.06675,1.058333 0,0.584501 0.47761,1.058334 1.06677,1.058334 h 0.52915"
           sodipodi:nodetypes="cscsc" /><path
           id="path10212"
           style="fill:none;fill-rule:evenodd;stroke:#ffffff;stroke-width:0.529167;stroke-miterlimit:4;stroke-dasharray:none;stroke-opacity:1;stop-color:#000000"
           d="m 200.19527,67.92619 h 0.52917 c 0.58916,0 1.06675,0.473824 1.06675,1.058333 0,0.584501 -0.47761,1.058334 -1.06677,1.058334 h -0.52915"
           sodipodi:nodetypes="cscsc" /><path
           id="path10214"
           style="fill:none;fill-rule:evenodd;stroke:#ffffff;stroke-width:0.529167;stroke-miterlimit:4;stroke-dasharray:none;stroke-opacity:1;stop-color:#000000"
           d="m 199.39307,65.809523 h 1.33137 c 0.58916,0 1.06675,0.473824 1.06675,1.058333 0,0.584501 -0.47761,1.058334 -1.06677,1.058334 h -1.33135"
           sodipodi:nodetypes="cscsc" /><path
           id="path10216"
           style="fill:none;fill-rule:evenodd;stroke:#ffffff;stroke-width:0.529167;stroke-miterlimit:4;stroke-dasharray:none;stroke-opacity:1;stop-color:#000000"
           d="m 200.72444,68.984523 h -0.52915 c -0.58916,0 -1.06677,0.473833 -1.06677,1.058334 0,0.584509 0.47759,1.058333 1.06675,1.058333 h 0.52917 c 0.58916,0 1.06675,0.473824 1.06675,1.058333 0,0.584501 -0.47761,1.058334 -1.06677,1.058334 h -0.52915"
           sodipodi:nodetypes="cssccssc" /><rect
           style="font-variation-settings:normal;vector-effect:none;fill:#ffffff;fill-opacity:1;fill-rule:evenodd;stroke:none;stroke-width:0.264583;stroke-linecap:butt;stroke-linejoin:miter;stroke-miterlimit:4;stroke-dasharray:none;stroke-dashoffset:0;stroke-opacity:1;stop-color:#000000"
           id="rect10218"
           width="1.3313692"
           height="0.52916664"
           x="199.39307"
           y="66.603271" /><rect
           style="font-variation-settings:normal;vector-effect:none;fill:#ffffff;fill-opacity:1;fill-rule:evenodd;stroke:none;stroke-width:0.264583;stroke-linecap:butt;stroke-linejoin:miter;stroke-miterlimit:4;stroke-dasharray:none;stroke-dashoffset:0;stroke-opacity:1;stop-color:#000000"
           id="rect10220"
           width="1.3313692"
           height="0.52916664"
           x="200.19527"
           y="75.069939" /></g><text
         xml:space="preserve"
         style="font-style:normal;font-variant:normal;font-weight:normal;font-stretch:normal;font-size:2.82222px;line-height:1.25;font-family:'Source Sans Pro';-inkscape-font-specification:'Source Sans Pro';fill:#ffffff;stroke-width:0.264583"
         x="455.33859"
         y="26.689053"
         id="text10306"><tspan
           sodipodi:role="line"
           id="tspan10304"
           style="font-style:normal;font-variant:normal;font-weight:normal;font-stretch:normal;font-size:2.82222px;font-family:'Source Sans Pro';-inkscape-font-specification:'Source Sans Pro';fill:#ffffff;stroke-width:0.264583"
           x="455.33859"
           y="26.689053">sser</tspan></text></g><text
       xml:space="preserve"
       style="font-style:normal;font-variant:normal;font-weight:600;font-stretch:normal;font-size:4.9389px;line-height:1.25;font-family:'Source Sans 3';-inkscape-font-specification:'Source Sans 3 Semi-Bold';fill:#ffffff;stroke-width:0.264583"
       x="77.218666"
       y="64.005882"
       id="text1-6"><tspan
         sodipodi:role="line"
         id="tspan1-7"
         x="77.218666"
         y="64.005882"
         style="font-style:normal;font-variant:normal;font-weight:500;font-stretch:normal;font-family:'Source Sans 3';-inkscape-font-specification:'Source Sans 3 Medium';fill:#ffffff;stroke-width:0.264583">C O L L E C T E D   W O R K S </tspan></text><text
       xml:space="preserve"
       style="font-size:4.9389px;line-height:1.25;font-family:Arial;-inkscape-font-specification:Arial;letter-spacing:0.0396875px;display:inline;fill:#ffffff;stroke-width:0.264583"
       x="22.87653"
       y="177.68388"
       id="text6"><tspan
         sodipodi:role="line"
         style="font-style:normal;font-variant:normal;font-weight:500;font-stretch:normal;font-family:'Source Sans 3';-inkscape-font-specification:'Source Sans 3 Medium';letter-spacing:0.0396875px;fill:#ffffff;stroke-width:0.264583"
         x="22.87653"
         y="177.68388"
         id="tspan19"><tspan
           style="font-style:normal;font-variant:normal;font-weight:bold;font-stretch:normal;font-family:'Source Sans 3';-inkscape-font-specification:'Source Sans 3 Bold'"
           id="tspan23">General preface</tspan></tspan></text><text
       xml:space="preserve"
       style="font-size:4.9389px;line-height:1.25;font-family:Arial;-inkscape-font-specification:Arial;letter-spacing:0.0396875px;display:inline;fill:#ffffff;stroke-width:0.264583"
       x="22.87653"
       y="158.84563"
       id="text72"><tspan
         sodipodi:role="line"
         style="font-style:normal;font-variant:normal;font-weight:500;font-stretch:normal;font-family:'Source Sans 3';-inkscape-font-specification:'Source Sans 3 Medium';letter-spacing:0.0396875px;fill:#ffffff;stroke-width:0.264583"
         x="22.87653"
         y="158.84563"
         id="tspan72">Collected works</tspan></text></g></svg>
